<svg width="4941" height="16570" viewBox="0 0 4941 16570" fill="none" xmlns="http://www.w3.org/2000/svg">
<path d="M1486 0L1486 6217C1486 8531.7 -2849.28 8344.26 3319 7976C4167 7925.37 6842.63 10050.3 2615.55 12927.2C2144.25 13207.4 1484.44 13822.3 2615.55 14039.6C4029.43 14311.3 3674.32 15903.3 3127.71 15968M2278.82 6724.55C2254.62 6726.59 2241.17 6728.29 2237.98 6729.69C2230.91 6732.8 2219.71 6742.7 2215.97 6749.17C2214.15 6752.3 2212.09 6754.9 2211.38 6754.94C2210.67 6754.99 2210.46 6755.54 2210.91 6756.16C2212.08 6757.82 2203.72 6773.26 2198.11 6779.78C2189.19 6790.18 2182.53 6793.2 2162.58 6795.92C2151.4 6797.44 2149.48 6796.74 2148.63 6790.85C2147.87 6785.59 2142.67 6780.54 2136.89 6779.47C2130.14 6778.22 2087.53 6782.9 2082.4 6785.45C2076.4 6788.43 2072.53 6793.66 2072.47 6798.84C2072.39 6805.79 2071.56 6806.82 2065.95 6806.85C2063.07 6806.87 2059.71 6807.38 2058.49 6807.99C2057.26 6808.6 2055.4 6809.01 2054.36 6808.91C2053.31 6808.8 2051.24 6809.29 2049.75 6810C2048.26 6810.7 2045.16 6812.16 2042.87 6813.24C2037.02 6815.99 2029.47 6823.8 2025.96 6830.74C2021.18 6840.17 2018.73 6855.94 2018.98 6875.73C2019.28 6899.68 2027.33 7028.79 2029.16 7039.01C2032.13 7055.53 2039.26 7070.48 2045.53 7073.34C2047.29 7074.14 2048.39 7075.44 2047.96 7076.24C2047.53 7077.03 2047.74 7077.28 2048.43 7076.8C2049.58 7075.99 2063.64 7079.13 2065.27 7080.56C2065.66 7080.9 2101.62 7078.75 2145.17 7075.77C2188.72 7072.79 2224.38 7070.84 2224.42 7071.45C2224.45 7072.06 2223.35 7074.49 2221.97 7076.87C2218.55 7082.78 2219.34 7095.32 2223.58 7102.46C2228.81 7111.26 2232.57 7112.14 2260.16 7111.03L2284.29 7110.07L2284.03 7116.54C2283.46 7130.83 2282.77 7136.96 2281.57 7138.31C2280.88 7139.09 2280.28 7139.25 2280.24 7138.66C2280.21 7138.07 2279.26 7138.63 2278.13 7139.9C2277 7141.17 2274.53 7142.3 2272.64 7142.42C2264.15 7142.94 2257.02 7150.91 2255.27 7161.82C2254.71 7165.29 2255.01 7181.13 2255.94 7197.02C2257.46 7223.09 2258.92 7233.11 2261.8 7237.15C2262.33 7237.91 2262.01 7238.89 2261.07 7239.33C2259.98 7239.85 2260.18 7240.13 2261.64 7240.11C2262.89 7240.09 2264.78 7241.01 2265.86 7242.14C2266.93 7243.27 2270.22 7245.24 2273.16 7246.52C2284.29 7251.32 2337.11 7248.32 2347.78 7242.28C2354.84 7238.28 2358.21 7231.72 2358.69 7221.02C2358.96 7214.88 2359.61 7212.31 2360.73 7212.88C2361.85 7213.46 2361.81 7213.13 2360.6 7211.81C2359.56 7210.68 2358.26 7203.75 2357.46 7195.08L2356.09 7180.27L2359.73 7180.05C2363.29 7179.84 2363.42 7180.11 2365.07 7191.03C2366 7197.2 2367.48 7203.82 2368.36 7205.75C2369.24 7207.68 2370.02 7209.56 2370.1 7209.94C2370.18 7210.32 2372.24 7211.9 2374.68 7213.47C2380.61 7217.28 2390.69 7216.76 2395.61 7212.41C2402.23 7206.53 2403.13 7202.16 2401.75 7182.58L2400.49 7164.67L2395.59 7159.05C2392.9 7155.96 2390.38 7153.46 2390 7153.51C2383.34 7154.27 2378.82 7153.66 2379.61 7152.12C2380.11 7151.14 2379.33 7151.5 2377.88 7152.92C2376.44 7154.35 2374.63 7155.55 2373.87 7155.6C2371.9 7155.72 2367.51 7161.43 2365.11 7166.98C2363.45 7170.81 2362.37 7171.66 2359.3 7171.5C2355.69 7171.3 2355.46 7170.86 2353.84 7161C2352.91 7155.33 2352 7149.91 2351.81 7148.94C2351.14 7145.52 2338.99 7137.12 2332.88 7135.87C2329.5 7135.17 2325.98 7134.44 2325.06 7134.25C2322.96 7133.81 2320.87 7124.24 2320.89 7115.16L2320.9 7108.22L2341 7106.15C2352.06 7105.02 2362.62 7103.25 2364.48 7102.22C2370.76 7098.74 2374.05 7096.28 2374.05 7095.06C2374.05 7094.39 2374.55 7092.27 2375.15 7090.35C2376.36 7086.48 2374.78 7066.6 2373.34 7067.61C2372.85 7067.96 2372.05 7067.06 2371.57 7065.62C2370.76 7063.16 2371.53 7062.93 2383.4 7062.18C2391.9 7061.65 2395.44 7061.85 2394.1 7062.81C2393 7063.6 2392.76 7064.22 2393.56 7064.18C2394.37 7064.14 2395.62 7063.44 2396.35 7062.62C2397.09 7061.79 2411.33 7059.75 2428.78 7057.99C2465.19 7054.32 2469.38 7053 2479.13 7042.2C2489.19 7031.06 2490.72 7024.2 2490.31 6992.33C2489.91 6961.68 2481.41 6831.34 2479.76 6830.46C2479.14 6830.13 2478.52 6827.97 2478.37 6825.65C2478.04 6820.39 2473.4 6806.08 2470.42 6801.12C2469.19 6799.08 2468.19 6797.06 2468.2 6796.65C2468.24 6794.97 2453.84 6785.14 2448.42 6783.15C2442.1 6780.82 2427.09 6777.47 2423.75 6777.64C2422.6 6777.7 2413.46 6777.05 2403.43 6776.2C2393.4 6775.35 2383.06 6774.48 2380.44 6774.26C2377.83 6774.05 2375.05 6773.53 2374.27 6773.11C2373.49 6772.7 2369.71 6766.55 2365.87 6759.45C2358.76 6746.3 2347.11 6729.92 2344.97 6730.05C2344.31 6730.09 2342.05 6729.06 2339.93 6727.75C2336.42 6725.58 2330.68 6724.04 2319.13 6722.18C2316.81 6721.81 2298.67 6722.87 2278.82 6724.55ZM2332.03 6733.4C2341.44 6737.31 2349.04 6745.42 2356.75 6759.82C2361.92 6769.48 2362.8 6771.97 2360.89 6771.51C2357.09 6770.6 2328.65 6769.91 2319.09 6770.5C2314.36 6770.79 2310.06 6770.43 2309.54 6769.7C2308.96 6768.88 2307.72 6768.89 2306.32 6769.74C2305.07 6770.5 2297.32 6771.63 2289.1 6772.25C2273.76 6773.41 2253.4 6775.66 2248.7 6776.72C2245.66 6777.41 2244.88 6781.26 2247.42 6783.1C2249.68 6784.75 2260.53 6784.32 2280.85 6781.78C2296.11 6779.87 2297.48 6779.9 2299.55 6782.23C2301.46 6784.38 2301.64 6784.4 2300.8 6782.38C2299.89 6780.2 2301.25 6779.93 2317.49 6778.97C2337.89 6777.76 2363.39 6779.19 2366.21 6781.7C2369.12 6784.3 2381.17 6809.86 2380.27 6811.53C2379.83 6812.33 2380.11 6812.54 2380.88 6812C2381.65 6811.46 2382.73 6812.4 2383.27 6814.1C2383.81 6815.8 2386.61 6819.6 2389.48 6822.55C2392.35 6825.49 2394.28 6828.37 2393.77 6828.95C2393.25 6829.53 2393.45 6829.78 2394.2 6829.52C2394.95 6829.25 2397.83 6830.11 2400.6 6831.43C2405.19 6833.63 2408.46 6833.66 2438.25 6831.82L2470.87 6829.81L2472.16 6835.28C2472.87 6838.29 2475.76 6879.63 2478.58 6927.15C2484.34 7024.01 2484.39 7022.67 2474.93 7034.51C2470.18 7040.46 2459.81 7047.08 2457.33 7045.76C2456.61 7045.38 2455.81 7045.86 2455.55 7046.84C2455.19 7048.2 2444.05 7049.45 2407.98 7052.21C2382.08 7054.19 2360.68 7055.73 2360.43 7055.63C2360.18 7055.53 2363.8 7053.21 2368.48 7050.48C2397.97 7033.24 2418.38 7005.32 2426.1 6971.66C2427.48 6965.66 2428.94 6960.73 2429.34 6960.71C2429.74 6960.68 2431.21 6961.57 2432.61 6962.68C2434.54 6964.21 2435.37 6964.27 2436.09 6962.94C2436.67 6961.87 2436.47 6961.59 2435.58 6962.21C2434.78 6962.78 2433.73 6962.68 2433.25 6962C2432.77 6961.32 2435.01 6960.16 2438.23 6959.43C2445.22 6957.82 2449.95 6955.2 2453.25 6951.08C2454.59 6949.42 2456.35 6948.4 2457.16 6948.83C2457.99 6949.28 2458.17 6948.96 2457.56 6948.11C2456.97 6947.28 2457.18 6945.14 2458.03 6943.36C2458.88 6941.57 2459.34 6939.04 2459.05 6937.72C2458.76 6936.4 2459.04 6935.29 2459.67 6935.25C2461.34 6935.15 2457.87 6910.18 2455.7 6906.68C2454.68 6905.04 2454.19 6903.68 2454.62 6903.65C2455.05 6903.63 2453.29 6901.57 2450.72 6899.09C2445.21 6893.77 2438.96 6891.85 2429.38 6892.51C2423.12 6892.95 2422.28 6892.64 2420.73 6889.36C2419.79 6887.37 2417.63 6883.01 2415.94 6879.68C2414.24 6876.35 2413.02 6873.29 2413.22 6872.87C2413.43 6872.46 2412.73 6871.26 2411.67 6870.19C2410.61 6869.14 2407.2 6864.86 2404.1 6860.68C2397.88 6852.32 2381.23 6834.87 2379.45 6834.84C2378.83 6834.83 2375.41 6832.89 2371.85 6830.52C2368.29 6828.15 2361.19 6824.37 2356.05 6822.13C2349.78 6819.38 2346.93 6817.4 2347.34 6816.08C2347.84 6814.47 2347.59 6814.45 2345.95 6815.99C2344.33 6817.5 2343.92 6817.52 2343.83 6816.08C2343.77 6815.1 2343.37 6814.69 2342.95 6815.17C2342.53 6815.64 2339.52 6815.27 2336.27 6814.33C2324.96 6811.08 2304.93 6808.87 2293.1 6809.58C2272.88 6810.79 2255.92 6816.07 2236.74 6827.12C2231 6830.43 2226.02 6833.17 2225.67 6833.23C2224.35 6833.42 2214.69 6843.15 2204.51 6854.54C2189.55 6871.27 2180.96 6887.37 2176.51 6906.97C2175.2 6912.76 2173.85 6918.45 2173.51 6919.61C2173.17 6920.78 2172.8 6924.54 2172.69 6927.99C2172.58 6931.43 2172.28 6939.45 2172.04 6945.82C2171.79 6952.2 2172.21 6959.04 2172.97 6961.03C2176.16 6969.41 2178.33 6982.24 2176.89 6984.2C2175.78 6985.71 2175.92 6985.94 2177.52 6985.21C2179.03 6984.53 2179.89 6985.5 2180.74 6988.86C2182.34 6995.17 2191.44 7011.07 2199.15 7021.03C2211.39 7036.85 2232.03 7052.04 2250.25 7058.65L2259.65 7062.06L2201.14 7065.31C2168.95 7067.09 2138.63 7068.44 2133.76 7068.3L2124.9 7068.04L2127.55 7064.87C2133.86 7057.29 2133.88 7051.46 2127.94 6956.18L2122.39 6867.38L2128.92 6862.53C2136.86 6856.63 2139.49 6850.7 2138.83 6840.17C2138.36 6832.56 2134.1 6822.89 2130.29 6820.8C2129.49 6820.36 2130.14 6819.5 2131.73 6818.89C2133.32 6818.27 2135.38 6818.18 2136.3 6818.67C2137.26 6819.18 2137.57 6818.99 2137.03 6818.22C2136.09 6816.9 2142.3 6812.57 2144.57 6812.97C2145.21 6813.08 2145.35 6812.64 2144.89 6811.99C2144.42 6811.34 2145.15 6809.68 2146.51 6808.29C2148.31 6806.46 2152.28 6805.41 2161.23 6804.42C2174.02 6802.99 2186.42 6799.8 2191.58 6796.6C2193.24 6795.57 2194.62 6795.12 2194.65 6795.6C2194.68 6796.08 2198.76 6791.95 2203.71 6786.42C2208.66 6780.89 2212.62 6776.06 2212.51 6775.69C2211.78 6773.11 2223.99 6751.81 2229.25 6746.48C2239.83 6735.77 2243.07 6735 2287 6732.63C2323.94 6730.65 2325.47 6730.67 2332.03 6733.4ZM2349.93 6755.53C2350.09 6757.14 2350.44 6757.44 2350.82 6756.31C2351.16 6755.29 2351.03 6754.1 2350.54 6753.67C2350.05 6753.24 2349.78 6754.08 2349.93 6755.53ZM2137.27 6789C2140.02 6790.94 2141.87 6794.97 2140.46 6795.96C2138.17 6797.58 2080.66 6802.25 2080.57 6800.83C2080.52 6800.05 2081.57 6797.87 2082.91 6796C2085.79 6791.98 2092.79 6790.53 2118.26 6788.64C2129.85 6787.79 2135.7 6787.9 2137.27 6789ZM2381.76 6782.93C2381.44 6783.52 2384.33 6783.93 2388.17 6783.84C2392.01 6783.74 2396.2 6784.01 2397.48 6784.43C2398.76 6784.85 2402.63 6785.21 2406.09 6785.23C2409.54 6785.26 2414.58 6785.52 2417.28 6785.82C2419.99 6786.12 2424.72 6786.53 2427.81 6786.72C2444.18 6787.76 2458.24 6796.55 2465.6 6810.35C2467.86 6814.58 2469.34 6818.74 2468.89 6819.58C2468.44 6820.42 2464.22 6821.37 2459.51 6821.69C2454.8 6822.01 2441.95 6823.03 2430.94 6823.96C2418.79 6824.97 2409.49 6825.14 2407.25 6824.37C2405.22 6823.68 2403.15 6823.22 2402.65 6823.35C2399.59 6824.16 2383.78 6802.65 2385.32 6799.78C2385.7 6799.08 2385.45 6798.34 2384.78 6798.13C2384.11 6797.91 2382 6794.24 2380.1 6789.97L2376.64 6782.21L2379.48 6782.03C2381.04 6781.94 2382.07 6782.34 2381.76 6782.93ZM2138.1 6806.11C2138.12 6806.36 2136.37 6807.62 2134.21 6808.9C2129.59 6811.65 2114.08 6814.76 2115.18 6812.72C2115.61 6811.93 2113.92 6811.72 2111.12 6812.22C2108.48 6812.69 2102.39 6812.47 2097.58 6811.73L2088.84 6810.37L2103.38 6808.67C2119.62 6806.78 2138.06 6805.42 2138.1 6806.11ZM2078.73 6816.08C2078.79 6816.97 2079.17 6817.31 2079.59 6816.84C2080.01 6816.37 2082.38 6816.68 2084.86 6817.52C2087.35 6818.36 2093.96 6819.51 2099.56 6820.08C2105.16 6820.66 2109.77 6821.67 2109.82 6822.34C2109.86 6823.01 2110.81 6823.14 2111.93 6822.63C2113.05 6822.12 2114.01 6822.42 2114.06 6823.3C2114.12 6824.17 2114.94 6824.74 2115.88 6824.55C2119.71 6823.82 2121.37 6824.42 2120.77 6826.32C2120.42 6827.43 2121.09 6828.63 2122.25 6828.99C2123.66 6829.43 2124 6829.1 2123.26 6828C2122.65 6827.1 2123.48 6827.37 2125.1 6828.62C2129.64 6832.1 2132.4 6840.81 2130.84 6846.71C2129.68 6851.1 2125.52 6855.98 2122.78 6856.14C2122.18 6856.18 2121.61 6854.79 2121.5 6853.06C2121.2 6848.19 2117.36 6844.44 2110.48 6842.3C2105.45 6840.74 2101.08 6840.67 2088.78 6841.96C2080.3 6842.85 2073 6843.98 2072.56 6844.48C2072.11 6844.98 2070.74 6844.68 2069.51 6843.81C2067.63 6842.47 2067.46 6842.62 2068.42 6844.75C2069.33 6846.76 2069.01 6847.17 2066.89 6846.75C2064.83 6846.35 2064.42 6846.82 2065.06 6848.78C2065.53 6850.18 2065.37 6851.36 2064.7 6851.41C2064.04 6851.45 2063.62 6853.95 2063.78 6856.96C2063.93 6859.98 2064.31 6862.16 2064.62 6861.8C2064.93 6861.45 2067.05 6862.54 2069.33 6864.21C2074.82 6868.26 2084.76 6869.59 2101.65 6868.55L2115.52 6867.69L2120.52 6955.14C2123.27 7003.23 2125.26 7045.33 2124.95 7048.69C2124.29 7055.83 2119.59 7063.45 2113.52 7067.26C2109.94 7069.5 2105.54 7070.18 2087.1 7071.32C2071.19 7072.3 2064.79 7072.23 2064.32 7071.07C2063.96 7070.18 2062.89 7069.8 2061.95 7070.23C2058.47 7071.81 2046.14 7063.01 2042.08 7056.06L2038.17 7049.36L2032.44 6957.45C2029.29 6906.9 2026.98 6863.03 2027.3 6859.96C2027.62 6856.88 2028.11 6851.96 2028.38 6849.01C2029.29 6839.3 2036.38 6826.83 2043.43 6822.53C2052.27 6817.15 2078.5 6812.36 2078.73 6816.08ZM2319.84 6819.07C2340.31 6822.95 2360.93 6831.85 2374.65 6842.72C2377.95 6845.33 2380.38 6847.97 2380.05 6848.59C2379.72 6849.2 2380.64 6849.94 2382.1 6850.22C2386.22 6851.03 2397.9 6864.94 2405.62 6878.23C2413.02 6890.97 2417.17 6901.81 2418.76 6912.5C2419.29 6916.07 2420.29 6920.17 2420.99 6921.61C2422.9 6925.61 2421.31 6954.87 2418.44 6968.32C2415.87 6980.39 2410.36 6995.02 2407.61 6997.06C2406.79 6997.67 2406.66 6998.15 2407.33 6998.12C2409.11 6998.04 2402.42 7007.79 2394.55 7016.74C2390.76 7021.04 2387.02 7024.23 2386.25 7023.82C2385.48 7023.41 2384.44 7023.82 2383.94 7024.75C2383.37 7025.8 2383.61 7026.02 2384.58 7025.34C2385.43 7024.75 2386.16 7024.89 2386.21 7025.65C2386.33 7027.6 2371.3 7039.43 2361.56 7045.07C2352.38 7050.37 2334.07 7057.52 2332.71 7056.33C2332.22 7055.9 2331 7056.31 2330 7057.25C2327.62 7059.48 2299.82 7061.13 2288.32 7059.72C2273.68 7057.93 2253.12 7051.99 2250.59 7048.81C2249.98 7048.05 2249.5 7047.91 2249.52 7048.5C2249.55 7049.09 2247.61 7048.71 2245.22 7047.66C2242.69 7046.55 2241.23 7045.08 2241.73 7044.16C2242.26 7043.17 2241.98 7042.99 2240.99 7043.69C2238.37 7045.53 2210.33 7024.42 2210.08 7020.42C2210.02 7019.44 2209.35 7018.68 2208.6 7018.73C2205.02 7018.95 2191.76 6996.61 2186.73 6981.87C2182.83 6970.45 2177.77 6930.45 2180.21 6930.3C2180.88 6930.26 2181.43 6928.82 2181.44 6927.1C2181.47 6915.7 2186.67 6897.29 2193.5 6884.39C2209.62 6853.92 2238.19 6830.27 2269.5 6821.48C2281.9 6818 2307.67 6816.77 2319.84 6819.07ZM2280.15 6835.31C2258.73 6839.73 2238.28 6851.87 2222.96 6869.27C2200.55 6894.72 2192.72 6919.66 2196.54 6953.46C2199.26 6977.54 2206.91 6995.61 2221.15 7011.56C2224.96 7015.82 2227.72 7019.96 2227.29 7020.76C2226.85 7021.56 2227.14 7021.76 2227.93 7021.21C2228.71 7020.66 2232.22 7022.55 2235.73 7025.41C2259.19 7044.53 2297.63 7052.21 2328.75 7043.99C2351.31 7038.04 2374.05 7022.36 2387.06 7003.8C2394.94 6992.54 2403.38 6972.09 2405.37 6959.41C2407.55 6945.53 2405.99 6921.49 2402.11 6909.01C2398.26 6896.64 2390.04 6882.17 2380.72 6871.38C2376.61 6866.63 2373.18 6862.31 2373.09 6861.78C2372.82 6860.24 2357.19 6849.9 2346.67 6844.31C2327.39 6834.07 2302.48 6830.7 2280.15 6835.31ZM2111.58 6852.54C2115.71 6856.72 2115.58 6857.47 2110.52 6858.81C2099.9 6861.61 2075.3 6860.34 2073.73 6856.91C2071.99 6853.13 2080.48 6850.5 2096.42 6849.87C2107.25 6849.44 2108.8 6849.72 2111.58 6852.54ZM2318.63 6842.73C2321.94 6843.5 2324.69 6844.69 2324.73 6845.37C2324.77 6846.06 2325.38 6846.21 2326.09 6845.71C2327.81 6844.51 2343.77 6851.41 2347.59 6855.01C2349.26 6856.59 2351.73 6857.96 2353.08 6858.06C2358.05 6858.42 2376.33 6877.3 2383.9 6889.9C2387.91 6896.58 2390.85 6902.68 2390.43 6903.47C2390.01 6904.25 2390.25 6904.85 2390.97 6904.81C2393.73 6904.63 2398.75 6929.04 2398.64 6942.05C2398.58 6948.91 2398.14 6955.25 2397.66 6956.14C2397.18 6957.02 2396.73 6959.02 2396.66 6960.59C2396.42 6965.44 2391.58 6979.69 2390.14 6979.78C2389.38 6979.82 2389.15 6980.4 2389.61 6981.05C2391.08 6983.11 2380.93 6998.71 2371.64 7008.67C2361.97 7019.03 2349.41 7027.36 2334.37 7033.38C2326.63 7036.47 2321.83 7037.38 2308.86 7038.19C2284.05 7039.75 2264.83 7034.92 2246.26 7022.47C2236.73 7016.08 2222.69 7002.71 2223.65 7000.93C2224.01 7000.27 2223.6 6999.77 2222.75 6999.82C2220.58 6999.95 2211.36 6982.28 2207.84 6971.24C2204.56 6960.98 2202.99 6940.37 2204.44 6926.72C2208.25 6890.74 2236.91 6857.3 2274.12 6845.4C2286.13 6841.56 2307.98 6840.25 2318.63 6842.73ZM2111.44 6870.72C2110.24 6871.6 2110.1 6872.15 2111.1 6872.11C2112.01 6872.06 2113.1 6871.38 2113.52 6870.59C2114.48 6868.81 2114 6868.84 2111.44 6870.72ZM2298.77 6864.06C2297.35 6865.27 2293.35 6866.45 2289.86 6866.68C2273.46 6867.78 2259.78 6875.14 2246.44 6890.06C2240.97 6896.16 2235.09 6904.43 2233.36 6908.44C2229.29 6917.85 2224.84 6939.34 2225.69 6945.53C2226.85 6954.02 2230.66 6967.78 2233.7 6974.45C2235.32 6978.01 2236.24 6980.96 2235.74 6981C2235.24 6981.04 2235.49 6981.5 2236.29 6982.01C2238.34 6983.31 2246.88 6993.44 2245.16 6992.52C2244.38 6992.11 2243.73 6993.13 2243.71 6994.79C2243.68 6997.06 2243.94 6997.3 2244.78 6995.75C2245.66 6994.1 2247.2 6994.75 2252.43 6998.99C2261.53 7006.34 2269.83 7010.65 2282.05 7014.36C2291.63 7017.27 2293.82 7017.42 2307.97 7016.09C2324.14 7014.57 2328.5 7013.87 2329.59 7012.65C2329.94 7012.25 2334.43 7009.47 2339.56 7006.48C2355.16 6997.4 2366.87 6982.41 2372.27 6964.63C2375.92 6952.59 2376.02 6930.34 2372.48 6918.63C2371.19 6914.41 2370.07 6910.64 2369.98 6910.26C2369.9 6909.89 2367.41 6905.72 2364.47 6901C2358.21 6890.98 2338.11 6872.3 2332.54 6871.33C2331.81 6871.21 2326.87 6869.79 2321.55 6868.19C2316.24 6866.59 2309.35 6865.44 2306.25 6865.63C2301.8 6865.91 2300.74 6865.53 2301.27 6863.86C2302.08 6861.29 2302 6861.3 2298.77 6864.06ZM2308.52 6873.85C2318.03 6875.04 2332.79 6880.77 2339.33 6885.8C2342.08 6887.92 2344.09 6889.66 2343.8 6889.68C2343.51 6889.7 2345.67 6891.93 2348.6 6894.64C2357.27 6902.68 2367.52 6923.61 2365.66 6929.49C2365.33 6930.53 2365.74 6931.34 2366.57 6931.28C2367.57 6931.22 2367.88 6933.36 2367.5 6937.71C2367.19 6941.29 2366.91 6946.57 2366.88 6949.44C2366.86 6952.31 2365.61 6958.37 2364.11 6962.9C2350.46 7004.2 2305.47 7021.02 2267.3 6999.1C2258.21 6993.89 2251.13 6988.36 2253.35 6988.22C2253.94 6988.18 2253.05 6987.14 2251.38 6985.91C2247.45 6983.02 2239.27 6968.71 2237.66 6961.92C2233.08 6942.63 2233.76 6929.38 2240.12 6914.2C2244.19 6904.45 2258.46 6886.62 2262.38 6886.38C2263.54 6886.31 2264.46 6885.7 2264.42 6885.03C2264.37 6884.35 2267.84 6882.13 2272.12 6880.09C2284.6 6874.14 2295.67 6872.24 2308.52 6873.85ZM2238.95 6890.6C2239.47 6891.33 2240.17 6891.91 2240.51 6891.89C2240.85 6891.87 2241.08 6891.23 2241.04 6890.47C2240.99 6889.71 2240.29 6889.13 2239.48 6889.18C2238.67 6889.23 2238.43 6889.87 2238.95 6890.6ZM2441.34 6902.96C2447.66 6906.76 2450.38 6913.1 2450.98 6925.38C2451.59 6938.06 2449.82 6943.96 2444.24 6947.71C2440.12 6950.49 2428.28 6952.03 2429.58 6949.62C2430.63 6947.68 2428.96 6912.28 2427.8 6911.91C2427.28 6911.75 2426.24 6908.95 2425.49 6905.69L2424.11 6899.77L2430.91 6900.27C2434.65 6900.55 2439.34 6901.76 2441.34 6902.96ZM2395.01 6941.44C2395.18 6943.04 2395.53 6943.35 2395.91 6942.22C2396.25 6941.2 2396.12 6940.01 2395.63 6939.58C2395.14 6939.15 2394.86 6939.98 2395.01 6941.44ZM2361.39 6961.55C2361.56 6963.15 2361.91 6963.46 2362.28 6962.33C2362.62 6961.31 2362.49 6960.12 2362 6959.69C2361.51 6959.26 2361.24 6960.1 2361.39 6961.55ZM2221.03 7017.12C2221.05 7017.42 2222.06 7017.97 2223.28 7018.35C2224.54 7018.75 2225.09 7018.48 2224.55 7017.73C2223.65 7016.46 2220.96 7016 2221.03 7017.12ZM2278.89 7048.08C2279.23 7048.28 2280.66 7049.21 2282.08 7050.16C2284.32 7051.66 2284.53 7051.6 2283.64 7049.67C2283.08 7048.46 2281.65 7047.52 2280.46 7047.59C2279.27 7047.67 2278.56 7047.89 2278.89 7048.08ZM2177.84 7062.79C2177.86 7063.09 2178.87 7063.65 2180.08 7064.03C2181.35 7064.42 2181.89 7064.16 2181.36 7063.4C2180.46 7062.14 2177.77 7061.67 2177.84 7062.79ZM2305.24 7069.64C2320.51 7068.87 2329.58 7068.88 2327.56 7069.66C2325.2 7070.58 2327.13 7070.78 2333.88 7070.31C2342.48 7069.72 2342.87 7069.58 2337.3 7069.13C2331.1 7068.64 2331.18 7068.6 2341.34 7066.89C2357.1 7064.24 2360.8 7064.72 2364.81 7069.92C2370.99 7077.96 2368.92 7089.96 2360.56 7094.56C2355.96 7097.09 2337.18 7098.92 2280.68 7102.34C2237.88 7104.94 2232.13 7103.93 2228.43 7093.25C2227.39 7090.23 2227.27 7087.28 2228.1 7084.62C2229.62 7079.68 2235.59 7073.6 2238.13 7074.39C2239.15 7074.71 2241.36 7074.33 2243.04 7073.55C2244.72 7072.76 2253.61 7071.85 2262.8 7071.53C2271.99 7071.21 2291.08 7070.35 2305.24 7069.64ZM2403.63 7063.14C2404.66 7063.48 2405.86 7063.35 2406.29 7062.86C2406.72 7062.38 2405.88 7062.1 2404.42 7062.25C2402.81 7062.42 2402.5 7062.77 2403.63 7063.14ZM2356.75 7067.86C2356.8 7068.62 2358.12 7069.16 2359.7 7069.06C2361.27 7068.97 2362.13 7068.29 2361.61 7067.56C2361.09 7066.83 2359.77 7066.28 2358.67 7066.35C2357.56 7066.42 2356.7 7067.1 2356.75 7067.86ZM2262.67 7074.62C2264.04 7074.89 2265.92 7074.75 2266.84 7074.32C2267.75 7073.88 2266.63 7073.66 2264.34 7073.83C2262.05 7074 2261.3 7074.36 2262.67 7074.62ZM2313.76 7121.5C2314.94 7134.07 2314.91 7134.26 2311.71 7134.46C2309.92 7134.57 2307.57 7133.94 2306.48 7133.05C2305.32 7132.1 2304.9 7132.06 2305.48 7132.95C2306.6 7134.69 2302.44 7136.37 2295.98 7136.8L2291.62 7137.09L2291.51 7124.95C2291.45 7118.28 2291.57 7112.13 2291.77 7111.28C2291.99 7110.34 2296.07 7109.55 2302.35 7109.24L2312.56 7108.74L2313.76 7121.5ZM2324.32 7129.44C2324.52 7132.77 2325.32 7133.06 2326.24 7130.14C2326.6 7129 2326.28 7127.73 2325.52 7127.33C2324.76 7126.92 2324.22 7127.87 2324.32 7129.44ZM2331.14 7143.82C2333.78 7144.43 2334.73 7146.91 2332.39 7147.06C2331.63 7147.1 2330.96 7146.52 2330.92 7145.76C2330.87 7145 2330.2 7144.42 2329.44 7144.46C2328.68 7144.51 2328.09 7145.13 2328.13 7145.84C2328.26 7147.9 2333.85 7148.73 2335.73 7146.97C2337.58 7145.24 2340.4 7147.31 2343.74 7152.86C2345.96 7156.55 2346.5 7164.22 2344.55 7164.34C2343.74 7164.39 2343.47 7163.63 2343.95 7162.65C2344.55 7161.42 2344.38 7161.32 2343.41 7162.33C2342.64 7163.14 2341.69 7165.54 2341.3 7167.67C2340.43 7172.42 2343.27 7172.8 2344.83 7168.14C2345.41 7166.39 2345.97 7165.68 2346.08 7166.56C2346.18 7167.45 2346.7 7169.12 2347.23 7170.28C2348.09 7172.14 2345.3 7172.56 2323.46 7173.9C2298.37 7175.43 2291.7 7175.23 2292.93 7172.95C2293.3 7172.25 2292.73 7172.08 2291.65 7172.57C2289.53 7173.54 2284.51 7168.39 2285.6 7166.37C2285.96 7165.71 2285.58 7165.21 2284.78 7165.26C2282.89 7165.37 2282.26 7156.15 2284.07 7154.88C2284.82 7154.36 2285.05 7153.39 2284.58 7152.74C2283.19 7150.78 2288.78 7145.59 2292.52 7145.35C2294.43 7145.24 2296.03 7145.76 2296.08 7146.52C2296.13 7147.28 2297.26 7147.79 2298.59 7147.65C2300.28 7147.46 2300.43 7147.2 2299.08 7146.75C2291.79 7144.38 2321.68 7141.65 2331.14 7143.82ZM2305.61 7146.88C2306.64 7147.22 2307.83 7147.1 2308.27 7146.61C2308.7 7146.12 2307.86 7145.85 2306.4 7146C2304.78 7146.16 2304.47 7146.51 2305.61 7146.88ZM2274.85 7160.24C2275.82 7168.41 2276.66 7170.53 2280.57 7174.8C2288.75 7183.72 2290.81 7184.07 2323.73 7182.17L2348.37 7180.76L2350.7 7228.02L2346.54 7232.2C2341.18 7237.59 2331.18 7239.37 2302.3 7240.11C2279.12 7240.69 2272.02 7239.2 2268.47 7233C2267.21 7230.81 2265.96 7219.12 2264.53 7196.27C2262.74 7167.66 2262.73 7162.05 2264.47 7157.98C2265.8 7154.86 2267.37 7153.29 2268.96 7153.46C2270.31 7153.6 2271.38 7153.07 2271.33 7152.27C2271.28 7151.48 2271.79 7150.8 2272.47 7150.75C2273.15 7150.71 2274.22 7154.98 2274.85 7160.24ZM2340.25 7155.59C2340.37 7157.46 2340.99 7158.63 2341.63 7158.17C2342.27 7157.72 2342.75 7156.49 2342.68 7155.44C2342.62 7154.39 2341.99 7153.23 2341.3 7152.86C2340.61 7152.49 2340.13 7153.72 2340.25 7155.59ZM2363.09 7159.13C2362.63 7159.97 2362.66 7161.01 2363.15 7161.44C2363.63 7161.87 2363.99 7161.54 2363.94 7160.71C2363.89 7159.87 2364.92 7158.84 2366.24 7158.41C2368.4 7157.71 2368.4 7157.63 2366.27 7157.61C2364.97 7157.61 2363.54 7158.29 2363.09 7159.13ZM2389.95 7165.81C2393.52 7169.54 2393.87 7170.84 2394.64 7183.21C2395.74 7200.93 2393.74 7206.22 2385.53 7207.29C2379.72 7208.04 2376.6 7206.31 2375.12 7201.51C2373.6 7196.57 2371.73 7177.57 2372.3 7172.93C2373.63 7162.29 2382.96 7158.52 2389.95 7165.81ZM2356.72 7169.27C2356.33 7169.99 2357.62 7170.47 2359.58 7170.35C2363.83 7170.09 2364.13 7169.28 2360.24 7168.52C2358.69 7168.22 2357.1 7168.56 2356.72 7169.27ZM2365.63 7210.22C2365.68 7210.98 2366.35 7211.56 2367.11 7211.51C2367.87 7211.46 2368.46 7210.8 2368.41 7210.04C2368.37 7209.28 2367.7 7208.7 2366.94 7208.75C2366.17 7208.79 2365.59 7209.46 2365.63 7210.22ZM2256.36 7236.4C2256.89 7237.15 2257.88 7237.36 2258.56 7236.88C2260.42 7235.58 2260.01 7234.77 2257.57 7234.92C2256.37 7234.99 2255.83 7235.66 2256.36 7236.4ZM2252.7 7256.26C2245.83 7261.54 2243.36 7268.12 2244.72 7277.51C2245.34 7281.76 2246.91 7286.66 2248.21 7288.39C2249.51 7290.12 2250.49 7292.52 2250.39 7293.71C2249.94 7299.01 2240.96 7321.83 2239.61 7321.11C2238.75 7320.65 2238.59 7320.98 2239.24 7321.88C2240.21 7323.26 2213.87 7400.96 2211.79 7402.85C2211.34 7403.26 2210.82 7404.54 2210.65 7405.69C2210.21 7408.58 2201.25 7435.31 2199.52 7438.92C2198.74 7440.53 2198.09 7442.16 2198.08 7442.54C2198 7444.69 2192.16 7460.39 2191.16 7461.16C2190.5 7461.67 2190.05 7462.48 2190.16 7462.96C2190.58 7464.8 2189.01 7470.85 2188.11 7470.91C2187.59 7470.94 2187.14 7472.06 2187.11 7473.4C2187.08 7474.73 2183.61 7485.41 2179.41 7497.11C2166.82 7532.17 2161.9 7546.13 2158.43 7556.68C2151.45 7577.89 2145.01 7595.01 2143.6 7596.07C2142.79 7596.68 2142.57 7597.16 2143.11 7597.14C2144.09 7597.1 2136.17 7621.25 2134.74 7622.65C2134.33 7623.06 2133.87 7624.25 2133.71 7625.29C2133.1 7629.43 2117.68 7671.6 2116.59 7672.11C2115.95 7672.4 2115.81 7673.19 2116.29 7673.86C2116.76 7674.53 2116.51 7675.11 2115.72 7675.16C2114.94 7675.21 2114.68 7676.08 2115.14 7677.1C2115.61 7678.12 2115.23 7679.87 2114.3 7681C2113.36 7682.13 2112.47 7683.98 2112.31 7685.12C2112.03 7687.11 2106.9 7702.16 2100.49 7719.81C2098.79 7724.49 2096.78 7728.82 2096.02 7729.43C2095.26 7730.03 2095.13 7730.51 2095.73 7730.49C2096.33 7730.46 2096.13 7731.89 2095.29 7733.65C2094.46 7735.42 2093.67 7737.5 2093.56 7738.27C2093.44 7739.04 2086.61 7758.36 2078.38 7781.2C2070.15 7804.03 2063.45 7823.33 2063.5 7824.08C2063.54 7824.83 2063.06 7825.48 2062.43 7825.52C2061.79 7825.56 2061.3 7826.37 2061.34 7827.32C2061.38 7828.27 2057.26 7840.86 2052.18 7855.29C2047.1 7869.72 2041.46 7885.8 2039.65 7891.02C2034.99 7904.45 2033.86 7906.57 2031.89 7905.63C2030.59 7905 2030.58 7905.2 2031.86 7906.41C2033.14 7907.64 2031.71 7913 2025.84 7928.84C2021.61 7940.29 2015.41 7957.31 2012.08 7966.67C2008.76 7976.04 2005.48 7984.11 2004.8 7984.62C2004.13 7985.13 2003.76 7985.78 2003.98 7986.06C2004.81 7987.09 1997.7 8007.1 1996.49 8007.18C1995.8 8007.22 1995.68 8007.88 1996.22 8008.64C1996.76 8009.41 1996.67 8010.82 1996.01 8011.78C1993.4 8015.6 1987.4 8035.55 1987.65 8039.59C1987.96 8044.51 1992.61 8052.91 1996.6 8055.73C2002.64 8060.01 2018.75 8059.33 2024.4 8054.57C2028.44 8051.16 2028.89 8050.03 2047.67 7995C2054.33 7975.51 2060.14 7959.23 2060.59 7958.83C2061.03 7958.42 2061.52 7957.14 2061.67 7955.98C2061.96 7953.73 2070.01 7930.26 2083.94 7891.1C2088.74 7877.62 2092.62 7865.98 2092.58 7865.24C2092.53 7864.5 2093.01 7863.87 2093.65 7863.83C2094.29 7863.79 2094.77 7862.98 2094.73 7862.03C2094.61 7859.24 2105.94 7827.79 2107.5 7826.57C2108.29 7825.96 2108.51 7825.48 2107.99 7825.5C2107.01 7825.54 2114.01 7803.71 2117.31 7796.47C2118.38 7794.11 2119.33 7791.53 2119.43 7790.72C2119.52 7789.92 2120.69 7786.41 2122.03 7782.93C2123.37 7779.45 2128.57 7765.11 2133.6 7751.06C2138.62 7737.02 2144.08 7722.17 2145.71 7718.07L2148.69 7710.62L2153.15 7712.57C2156.85 7714.19 2160.24 7714.2 2172.94 7712.62C2197.19 7709.6 2203.93 7708.7 2219.4 7706.41C2235.97 7703.95 2235.3 7704.05 2246.37 7702.58C2250.94 7701.98 2255.59 7701.1 2256.71 7700.63C2260.93 7698.87 2305.83 7693.05 2307.36 7694.07C2308.23 7694.65 2309.27 7694.77 2309.66 7694.32C2310.06 7693.88 2311.82 7695.28 2313.58 7697.44C2315.92 7700.32 2316.32 7701.58 2315.07 7702.18C2313.91 7702.73 2313.89 7702.99 2314.99 7702.99C2316.22 7703 2318.21 7727.88 2323.01 7802.85C2329.29 7901.09 2330.4 7911.65 2334.41 7911.41C2335.06 7911.37 2335.2 7912.08 2334.71 7912.99C2334.21 7913.91 2334.4 7914.24 2335.12 7913.73C2335.84 7913.22 2338.23 7913.6 2340.43 7914.57C2350.09 7918.83 2361.83 7913.77 2366.12 7903.51C2368.23 7898.47 2368.01 7892.29 2362.43 7799.69C2357.22 7712.97 2356.76 7701.27 2358.62 7701.57C2359.79 7701.75 2360.26 7701.48 2359.67 7700.96C2359.09 7700.45 2360.04 7698.1 2361.79 7695.75C2363.54 7693.4 2364.93 7690.85 2364.88 7690.08C2364.83 7689.2 2367 7688.92 2370.77 7689.33C2374.05 7689.69 2379.07 7689.75 2381.93 7689.47C2384.78 7689.19 2392.95 7689.26 2400.08 7689.63C2407.2 7690 2413.97 7690.25 2415.12 7690.18C2416.26 7690.11 2428.2 7690.24 2441.65 7690.47C2455.09 7690.69 2477.39 7690.9 2491.21 7690.92C2505.02 7690.94 2517.28 7691.24 2518.46 7691.59C2523.26 7693.01 2525.77 7692.76 2528.71 7690.58C2531.19 7688.73 2532.09 7688.61 2533.25 7689.95C2535.7 7692.82 2548.15 7716.92 2548.51 7719.51C2548.7 7720.86 2549.28 7721.94 2549.81 7721.91C2550.77 7721.85 2554.7 7729.4 2555.06 7731.99C2555.16 7732.75 2556.08 7734.14 2557.1 7735.09C2558.72 7736.6 2559.35 7738.61 2559.13 7741.65C2559.1 7742.13 2559.7 7742.88 2560.46 7743.3C2561.23 7743.72 2564.9 7750.12 2568.61 7757.52C2572.33 7764.92 2576.67 7773.39 2578.26 7776.35C2583.4 7785.91 2621.34 7861.05 2621.74 7862.46C2621.95 7863.21 2622.88 7865.02 2623.81 7866.49C2625.8 7869.62 2659.97 7936.99 2671.74 7960.98C2676.19 7970.04 2679.26 7977.84 2678.57 7978.33C2677.89 7978.81 2677.42 7979.94 2677.54 7980.85C2677.69 7982.03 2677.92 7981.99 2678.34 7980.71C2679.37 7977.65 2680.85 7978.65 2683.09 7983.89C2684.28 7986.68 2688.03 7993.96 2691.41 8000.06C2694.8 8006.17 2697.18 8011.91 2696.69 8012.81C2696.11 8013.88 2696.56 8014.1 2698 8013.45C2699.2 8012.91 2701.99 8013.2 2704.2 8014.11C2710.78 8016.83 2717.47 8016.26 2724.4 8012.37C2727.91 8010.41 2731.74 8006.92 2732.92 8004.63C2734.1 8002.33 2735.46 8000.43 2735.96 8000.4C2736.45 8000.37 2736.55 7997.71 2736.18 7994.49C2735.41 7987.81 2732.91 7982.4 2706.59 7930.63C2696.09 7909.98 2687.25 7892.17 2686.93 7891.04C2686.61 7889.92 2685.98 7888.71 2685.53 7888.35C2684.67 7887.67 2674.51 7868.01 2636.86 7794.24C2624.22 7769.45 2613.7 7748.56 2613.5 7747.81C2613.3 7747.06 2612.23 7745.03 2611.13 7743.29C2610.03 7741.56 2605.7 7733.4 2601.53 7725.16C2597.35 7716.92 2583.88 7690.5 2571.59 7666.46C2559.31 7642.42 2549 7621.82 2548.67 7620.7C2548.35 7619.57 2547.67 7618.37 2547.17 7618.02C2546.29 7617.41 2539.25 7603.56 2521.2 7566.9C2516.64 7557.64 2512.06 7548.71 2511.03 7547.06C2510 7545.41 2509.64 7544.01 2510.24 7543.97C2510.84 7543.92 2510.63 7543.46 2509.78 7542.95C2508.93 7542.45 2502.28 7530.22 2495 7515.79C2487.72 7501.36 2473.57 7473.56 2463.54 7454.01C2453.52 7434.46 2444.91 7417.51 2444.4 7416.34C2443.9 7415.18 2436.03 7400.01 2426.93 7382.64C2417.82 7365.27 2407.19 7344.69 2403.31 7336.92C2385.61 7301.53 2378.31 7288.31 2375.82 7287.18C2374.35 7286.51 2373.11 7285.33 2373.06 7284.55C2373.01 7283.77 2373.72 7283.53 2374.64 7284.02C2375.61 7284.54 2375.89 7284.33 2375.32 7283.51C2374.77 7282.75 2375.12 7279.84 2376.09 7277.05C2378.36 7270.55 2377.8 7261.73 2374.76 7256.28C2370.65 7248.87 2366.13 7247.63 2346.48 7248.48C2336.75 7248.91 2329.03 7249.8 2329.08 7250.49C2329.15 7251.67 2304.77 7252.58 2271.31 7252.65C2258.2 7252.67 2257.08 7252.89 2252.7 7256.26ZM2325.75 7258.74C2364.2 7256.17 2364.31 7256.17 2366.38 7259.12C2370.38 7264.82 2369.67 7280.98 2365.51 7278.77C2364.56 7278.26 2364.26 7278.46 2364.8 7279.22C2366.43 7281.52 2360.33 7286.48 2351.1 7290.37C2343.07 7293.76 2339.79 7294.26 2315.03 7295.83C2295.32 7297.09 2287.2 7297.13 2285.62 7295.98C2284.41 7295.11 2283.11 7294.75 2282.73 7295.18C2281.82 7296.21 2269 7293.83 2268.92 7292.62C2268.89 7292.11 2267.49 7291.68 2265.82 7291.66C2264.14 7291.64 2260.73 7289.83 2258.24 7287.64C2254.19 7284.08 2253.66 7282.79 2253.19 7275.32C2252.74 7268.07 2253.1 7266.59 2255.98 7264.03C2258.97 7261.36 2260.58 7261.1 2273.24 7261.21C2280.92 7261.27 2304.55 7260.16 2325.75 7258.74ZM2270.52 7302.25C2276.14 7303.62 2281.12 7305.59 2281.59 7306.61C2282.06 7307.63 2281.42 7310.84 2280.16 7313.73C2278.91 7316.63 2276.13 7324.1 2273.99 7330.33C2271.86 7336.57 2269.46 7342.17 2268.67 7342.78C2267.88 7343.39 2267.7 7343.87 2268.26 7343.85C2269.18 7343.81 2266.4 7354.07 2263.48 7361.5C2262.86 7363.07 2260.94 7368.49 2259.21 7373.56C2251.66 7395.6 2231.17 7454.22 2193.53 7561.45C2187.51 7578.61 2182.02 7593.06 2181.33 7593.57C2180.65 7594.08 2180.15 7595.05 2180.22 7595.72C2180.49 7598.16 2179.15 7603.26 2178.23 7603.32C2177.71 7603.35 2177.27 7604.47 2177.24 7605.81C2177.21 7607.15 2175.08 7613.99 2172.51 7621.02C2169.94 7628.04 2162.83 7647.84 2156.73 7665C2150.62 7682.17 2145 7696.71 2144.24 7697.32C2143.48 7697.92 2143.36 7698.4 2143.98 7698.37C2144.6 7698.35 2144.31 7700.09 2143.33 7702.25C2142.36 7704.41 2138.49 7715.1 2134.74 7726.02C2130.98 7736.93 2124.05 7756.4 2119.32 7769.29C2111.53 7790.56 2091.67 7846.99 2088 7858.28C2087.18 7860.81 2086.09 7862.91 2085.58 7862.94C2085.07 7862.97 2084.64 7864.09 2084.61 7865.43C2084.58 7866.76 2082.44 7873.61 2079.86 7880.63C2077.27 7887.66 2072.31 7901.7 2068.83 7911.84C2065.36 7921.97 2061.9 7930.76 2061.16 7931.37C2060.41 7931.97 2060.22 7932.45 2060.74 7932.43C2061.94 7932.39 2042.37 7990.22 2040.59 7991.97C2040.17 7992.38 2039.71 7993.65 2039.56 7994.81C2038.99 7999.06 2027.03 8032.38 2025.69 8033.45C2024.93 8034.06 2024.79 8034.53 2025.38 8034.51C2026.96 8034.44 2022.19 8044.76 2019.34 8047.57C2015.33 8051.54 2011.4 8052.28 2005.15 8050.22C1999.57 8048.39 1994.86 8043.36 1994.59 8038.94C1994.41 8036.15 2031.52 7933.69 2033.16 7932.44C2033.96 7931.83 2034.21 7931.35 2033.71 7931.37C2032.85 7931.4 2042.96 7901.67 2045.95 7895.39C2046.74 7893.72 2047.47 7891.72 2047.56 7890.95C2047.65 7890.18 2053.72 7872.64 2061.05 7851.97C2068.38 7831.29 2075.84 7810.23 2077.64 7805.16C2079.44 7800.09 2083.85 7787.57 2087.45 7777.34C2091.05 7767.12 2094.73 7757.21 2095.62 7755.34C2096.51 7753.46 2098.11 7749.06 2099.17 7745.56C2100.23 7742.06 2103.5 7732.49 2106.44 7724.3C2109.38 7716.1 2116.77 7695.35 2122.88 7678.19C2128.98 7661.03 2134.29 7646.65 2134.67 7646.25C2135.06 7645.84 2135.44 7644.88 2135.53 7644.11C2135.62 7643.34 2141.79 7625.48 2149.26 7604.42C2156.72 7583.35 2167.48 7552.72 2173.17 7536.34C2187.5 7495.07 2189.51 7489.7 2191.09 7488.43C2191.85 7487.83 2192.03 7487.35 2191.5 7487.37C2190.58 7487.4 2198.54 7463.08 2201.46 7456.9C2202.21 7455.33 2202.91 7453.13 2203.03 7452.01C2203.27 7449.62 2207.17 7438.83 2208.18 7437.76C2208.56 7437.35 2209.01 7435.78 2209.18 7434.26C2209.35 7432.74 2210.47 7429.23 2211.66 7426.47C2212.86 7423.71 2215.3 7416.99 2217.09 7411.54C2218.87 7406.09 2220.69 7401.29 2221.12 7400.89C2221.56 7400.48 2222.04 7399.2 2222.19 7398.04C2222.56 7395.26 2246.31 7328.08 2247.27 7327.13C2247.67 7326.72 2248.12 7325.44 2248.25 7324.29C2248.89 7318.92 2257.32 7298.73 2258.72 7299.21C2259.59 7299.51 2264.9 7300.88 2270.52 7302.25ZM2371.9 7293.42C2374.77 7296.51 2389.52 7325.65 2388.85 7326.9C2388.48 7327.58 2388.79 7328.11 2389.53 7328.06C2390.61 7327.99 2396.45 7338.65 2396.88 7341.48C2396.94 7341.86 2397.93 7343.64 2399.09 7345.44C2401.66 7349.45 2410.57 7366.54 2430.32 7405.32C2438.61 7421.6 2446.34 7436.73 2447.5 7438.95C2454.21 7451.74 2459.32 7462.06 2459.83 7463.85C2460.16 7464.98 2460.78 7466.19 2461.21 7466.54C2463.68 7468.57 2476.78 7496.45 2476.24 7498.54C2475.71 7500.64 2475.82 7500.69 2476.98 7498.87C2478.16 7496.99 2478.37 7497.03 2478.52 7499.12C2478.61 7500.45 2478.66 7501.94 2478.63 7502.43C2478.59 7502.91 2479.18 7503.66 2479.93 7504.08C2481.63 7505.03 2538.37 7616.61 2539.51 7621.23C2539.78 7622.34 2540.87 7624.07 2541.94 7625.08C2543.01 7626.08 2543.6 7627.78 2543.27 7628.84C2542.93 7629.91 2543.18 7630.75 2543.83 7630.71C2544.95 7630.64 2550.85 7641.18 2552.09 7645.46C2552.41 7646.59 2553.04 7647.8 2553.48 7648.15C2554.67 7649.12 2565.25 7670.1 2565.35 7671.7C2565.4 7672.46 2565.83 7673.37 2566.31 7673.72C2566.79 7674.07 2575.08 7689.79 2584.74 7708.66C2594.4 7727.52 2608.04 7754.15 2615.04 7767.83C2624.41 7786.12 2627.42 7793.2 2626.42 7794.56C2625.39 7795.97 2625.6 7796.17 2627.29 7795.4C2628.53 7794.84 2629.56 7795.07 2629.61 7795.94C2629.66 7796.79 2631.09 7800.04 2632.78 7803.17C2647.03 7829.64 2659.5 7855.74 2659.16 7858.41C2658.86 7860.79 2658.99 7860.96 2659.69 7859.11C2660.36 7857.34 2665.94 7867.14 2679.63 7894.18C2690.08 7914.82 2698.39 7932.24 2698.08 7932.9C2697.78 7933.55 2697 7933.95 2696.36 7933.78C2695.72 7933.61 2695.61 7934.06 2696.12 7934.78C2696.63 7935.49 2697.79 7935.75 2698.7 7935.34C2700.26 7934.64 2724.75 7981.09 2727.6 7990.16C2729.42 7995.95 2727.93 8000.39 2723 8003.86C2716.52 8008.42 2708.41 8008.61 2703.52 8004.31C2701.39 8002.44 2699.96 8000.35 2700.33 7999.65C2700.71 7998.96 2700.31 7998.44 2699.46 7998.49C2698.6 7998.54 2698.22 7997.99 2698.61 7997.27C2699 7996.55 2698.79 7995.78 2698.14 7995.57C2696.78 7995.11 2684.97 7971.63 2686.07 7971.56C2686.48 7971.54 2685.77 7970.6 2684.49 7969.48C2683.22 7968.36 2682.04 7966.56 2681.87 7965.48C2681.41 7962.39 2681.12 7961.65 2679.2 7958.67C2677.81 7956.53 2677.76 7955.46 2678.96 7954.1C2680.19 7952.71 2680.06 7952.53 2678.41 7953.27C2676.74 7954.03 2674.52 7950.65 2668.13 7937.69C2663.64 7928.59 2654.6 7910.55 2648.03 7897.6C2641.46 7884.66 2635.83 7873.14 2635.51 7872.02C2635.19 7870.89 2634.57 7869.68 2634.13 7869.33C2633.69 7868.97 2631.07 7864.14 2628.3 7858.59C2625.54 7853.03 2615.36 7833.06 2605.69 7814.2C2596.02 7795.33 2587.9 7778.98 2587.65 7777.85C2587.4 7776.72 2586.82 7775.51 2586.36 7775.15C2585.34 7774.36 2560.96 7727.13 2560.44 7724.94C2560.24 7724.07 2559.19 7721.99 2558.13 7720.31C2553.92 7713.7 2542.33 7689.23 2543.04 7688.44C2543.45 7687.98 2543.06 7687.64 2542.16 7687.7C2541.27 7687.75 2540.51 7687.2 2540.46 7686.48C2540.41 7685.75 2536.9 7678.63 2532.65 7670.65C2515.89 7639.23 2513.34 7633.91 2514.19 7632.19C2514.68 7631.21 2514.59 7630.91 2513.98 7631.53C2513.08 7632.45 2499.65 7608.21 2498.56 7603.67C2498.38 7602.92 2497.85 7602.02 2497.38 7601.67C2496.91 7601.31 2491.46 7591.04 2485.28 7578.83C2477.13 7562.71 2474.41 7556.12 2475.38 7554.78C2476.36 7553.42 2476.21 7553.16 2474.8 7553.8C2473.4 7554.43 2470.42 7549.81 2463.86 7536.82C2458.9 7527 2450.18 7509.89 2444.49 7498.79C2438.8 7487.7 2433.9 7477.7 2433.6 7476.57C2433.3 7475.44 2432.63 7474.24 2432.11 7473.89C2431.26 7473.31 2426.22 7463.56 2413.26 7437.45C2410.83 7432.56 2407.62 7426.53 2406.13 7424.05C2404.63 7421.56 2398.92 7410.43 2393.43 7399.3C2387.95 7388.18 2380.21 7372.72 2376.23 7364.95C2372.26 7357.19 2368.75 7349.91 2368.44 7348.79C2368.13 7347.66 2367.44 7346.45 2366.92 7346.1C2366.4 7345.75 2361.92 7337.6 2356.98 7327.99C2352.04 7318.37 2347.01 7309.18 2345.81 7307.57C2344.61 7305.95 2343.59 7304.08 2343.54 7303.4C2343.47 7302.2 2360.89 7295.65 2362.97 7296.1C2363.55 7296.23 2363.99 7295.68 2363.94 7294.87C2363.89 7294.07 2364.5 7293.75 2365.29 7294.18C2366.09 7294.6 2366.69 7294.28 2366.64 7293.48C2366.52 7291.46 2370.05 7291.42 2371.9 7293.42ZM2331.75 7306.18C2332.41 7307.62 2349.18 7580.6 2352.74 7647.88C2353.23 7657.2 2353.05 7658 2350.69 7657.1C2346.61 7655.54 2326.14 7656.6 2324.13 7658.48C2322.64 7659.87 2321.84 7650.32 2319.24 7600.08C2317.54 7567.04 2313.33 7493.19 2309.89 7435.96C2306.46 7378.74 2304.09 7332.16 2304.64 7332.45C2305.18 7332.74 2305.07 7326.79 2304.4 7319.24L2303.18 7305.5L2317.02 7304.89C2327.53 7304.42 2331.08 7304.73 2331.75 7306.18ZM2295.06 7309C2295.11 7309.8 2294.5 7310.12 2293.71 7309.69C2292.91 7309.27 2292.33 7309.93 2292.4 7311.16C2292.48 7312.39 2293.14 7312.97 2293.88 7312.46C2294.71 7311.87 2295.44 7314.56 2295.79 7319.54C2298.47 7356.66 2311.91 7603.9 2311.31 7605.02C2311.04 7605.53 2311.63 7619.45 2312.61 7635.95L2314.41 7665.97L2309.57 7665.7C2306.92 7665.56 2304.77 7665.81 2304.8 7666.26C2304.83 7666.89 2253.07 7674.55 2241.2 7675.67C2240.06 7675.78 2226.06 7677.9 2210.1 7680.38C2166.24 7687.19 2156.43 7688.26 2157.17 7686.14C2157.5 7685.16 2160.52 7676.43 2163.86 7666.75C2167.21 7657.06 2170.58 7647.8 2171.35 7646.17C2172.13 7644.54 2172.84 7642.55 2172.92 7641.75C2173.16 7639.63 2178.46 7624.93 2179.31 7624.07C2179.7 7623.66 2180.15 7622.38 2180.3 7621.23C2180.65 7618.59 2198.55 7568.32 2199.51 7567.32C2199.89 7566.92 2200.34 7565.64 2200.5 7564.49C2200.78 7562.46 2205.52 7548.57 2212.67 7528.82C2214.56 7523.61 2216.06 7518.81 2216.02 7518.14C2215.98 7517.46 2216.64 7516.13 2217.5 7515.17C2218.35 7514.21 2219.12 7512.63 2219.21 7511.66C2219.31 7510.7 2220.87 7506.07 2222.7 7501.38C2224.53 7496.69 2226.14 7492.05 2226.28 7491.07C2226.42 7490.09 2229.05 7482.13 2232.11 7473.37C2235.17 7464.61 2241.03 7447.87 2245.12 7436.17C2257.43 7401.01 2270.4 7363.64 2277.69 7342.36C2286.53 7316.53 2290.35 7307.82 2292.91 7307.66C2294.04 7307.59 2295.01 7308.19 2295.06 7309ZM2343.75 7319.99C2343.39 7320.66 2343.64 7321.18 2344.31 7321.14C2345.46 7321.07 2351.75 7332.85 2352.92 7337.26C2353.21 7338.38 2353.82 7339.59 2354.26 7339.95C2355.37 7340.84 2366.65 7363 2367.27 7365.51C2367.55 7366.63 2368.18 7367.84 2368.68 7368.19C2369.18 7368.55 2374.4 7378.21 2380.28 7389.68C2386.16 7401.14 2393.31 7415.06 2396.18 7420.61C2430.96 7488 2436.85 7500.19 2436.18 7503.34C2435.68 7505.69 2435.82 7505.85 2436.88 7504.12C2437.61 7502.93 2438.24 7502.29 2438.28 7502.69C2438.32 7503.1 2443.03 7512.49 2448.75 7523.55C2454.48 7534.62 2459.32 7544.75 2459.52 7546.08C2459.72 7547.4 2460.28 7548.46 2460.76 7548.43C2461.24 7548.4 2464.74 7554.58 2468.54 7562.17C2472.34 7569.76 2477.03 7578.99 2478.97 7582.68C2485.67 7595.45 2487.34 7599.29 2486.58 7600.14C2486.17 7600.61 2486.51 7600.95 2487.34 7600.9C2488.71 7600.81 2493.37 7610.17 2492.63 7611.52C2492.46 7611.82 2492.96 7612.42 2493.73 7612.83C2495.93 7614.03 2500.36 7623.81 2499.46 7625.49C2499.01 7626.31 2499.28 7626.55 2500.05 7626C2501.2 7625.2 2502.58 7627.54 2504.28 7633.15C2504.39 7633.52 2505.31 7635.1 2506.31 7636.66C2507.31 7638.21 2507.74 7639.92 2507.27 7640.45C2506.8 7640.98 2506.31 7642.81 2506.18 7644.52C2505.99 7646.88 2506.22 7647.12 2507.11 7645.53C2507.76 7644.38 2507.95 7642.96 2507.54 7642.38C2507.12 7641.8 2507.4 7641.28 2508.15 7641.24C2509.59 7641.15 2516.15 7654.63 2516.37 7658.12C2516.44 7659.24 2517.12 7660.11 2517.88 7660.06C2518.65 7660.01 2519.33 7660.91 2519.4 7662.05C2519.57 7664.75 2517.48 7664.85 2473.7 7664.24C2454 7663.96 2423.44 7663.64 2405.78 7663.52C2388.12 7663.4 2371.04 7663.14 2367.83 7662.95L2361.98 7662.6L2351.07 7488.18C2341.65 7337.65 2340.45 7314.11 2342.29 7316.26C2343.46 7317.64 2344.12 7319.32 2343.75 7319.99ZM2329.35 7320.1C2329.51 7321.7 2329.86 7322.01 2330.24 7320.88C2330.58 7319.86 2330.45 7318.67 2329.96 7318.24C2329.47 7317.81 2329.2 7318.64 2329.35 7320.1ZM2334.35 7400.26C2334.52 7401.86 2334.87 7402.17 2335.24 7401.04C2335.58 7400.02 2335.46 7398.83 2334.97 7398.4C2334.48 7397.97 2334.2 7398.8 2334.35 7400.26ZM2338.28 7450.08C2337.8 7450.62 2337.53 7452.35 2337.68 7453.93C2337.92 7456.57 2338.04 7456.53 2339.07 7453.41C2340.22 7449.95 2339.84 7448.33 2338.28 7450.08ZM2341.44 7504.46C2341.96 7505.19 2342.66 7505.77 2343 7505.75C2343.34 7505.73 2343.57 7505.09 2343.52 7504.33C2343.48 7503.57 2342.78 7502.99 2341.97 7503.04C2341.16 7503.09 2340.92 7503.72 2341.44 7504.46ZM2319.24 7570.75C2318.9 7571.38 2319.24 7572.76 2319.99 7573.81C2321.01 7575.26 2321.24 7574.97 2320.92 7572.65C2320.46 7569.31 2320.18 7569 2319.24 7570.75ZM2345.83 7597.14C2346.35 7597.87 2347.05 7598.45 2347.39 7598.43C2347.72 7598.41 2347.96 7597.77 2347.91 7597.01C2347.87 7596.25 2347.16 7595.67 2346.35 7595.72C2345.55 7595.77 2345.31 7596.41 2345.83 7597.14ZM2347.43 7608.14C2347.55 7610.04 2347.92 7610.8 2348.24 7609.83C2348.57 7608.85 2348.47 7607.3 2348.03 7606.37C2347.58 7605.45 2347.31 7606.24 2347.43 7608.14ZM2350.92 7668.4C2356.13 7672.52 2356.89 7673.83 2357.22 7679.15C2357.43 7682.48 2357.05 7685.25 2356.37 7685.29C2355.69 7685.33 2355.28 7686.4 2355.47 7687.67C2356.1 7692 2347.61 7696.93 2338.56 7697.49C2328.41 7698.11 2323.08 7695.89 2319.56 7689.57C2316.33 7683.76 2316.74 7677.26 2320.7 7671.56C2324.11 7666.65 2327.1 7665.35 2337.04 7664.44C2344.4 7663.76 2345.45 7664.06 2350.92 7668.4ZM2305.4 7675.9C2305.44 7676.64 2306.39 7676.83 2307.51 7676.32C2309.16 7675.57 2309.43 7676.28 2308.94 7680.09C2308.61 7682.67 2308.27 7684.9 2308.18 7685.06C2308.09 7685.21 2301.52 7686.1 2293.58 7687.04C2285.64 7687.98 2277.87 7689.09 2276.32 7689.51C2274.77 7689.92 2269.15 7690.87 2263.82 7691.61C2258.5 7692.36 2236.72 7695.57 2215.43 7698.75C2194.15 7701.93 2174.19 7704.69 2171.09 7704.87C2167.99 7705.06 2164.87 7705.36 2164.16 7705.55C2160.63 7706.46 2157.91 7705.58 2156.32 7703.02C2154.91 7700.76 2154.98 7699.71 2156.66 7697.82C2158.44 7695.82 2159.23 7695.7 2161.78 7697.08C2163.44 7697.97 2164.38 7698.11 2163.86 7697.39C2163.34 7696.66 2165.21 7695.6 2168.1 7694.98C2177.89 7692.89 2260.93 7680.71 2286.67 7677.59C2294.28 7676.66 2300.76 7675.66 2301.06 7675.35C2302.18 7674.21 2305.32 7674.61 2305.4 7675.9ZM2352.08 7673.47C2352.68 7674.8 2353.51 7675.52 2353.91 7675.07C2354.31 7674.62 2353.82 7673.53 2352.81 7672.65C2351.35 7671.38 2351.2 7671.55 2352.08 7673.47ZM2404.87 7671.3C2415.62 7671.44 2435.73 7671.75 2449.56 7671.99C2463.39 7672.22 2478.92 7672.12 2484.08 7671.77C2489.24 7671.42 2493.49 7671.63 2493.53 7672.24C2493.57 7672.85 2497.82 7673.13 2502.99 7672.87C2517.13 7672.14 2523.05 7672.86 2525.32 7675.58C2528.11 7678.92 2528 7679.88 2524.58 7681.98C2522.36 7683.35 2515.98 7683.73 2497.83 7683.58C2484.72 7683.48 2473.03 7683.1 2471.86 7682.73C2470.68 7682.36 2468.17 7682.27 2466.26 7682.52C2464.36 7682.78 2455.57 7682.78 2446.73 7682.52C2437.89 7682.27 2425.75 7682.09 2419.76 7682.13C2413.77 7682.16 2405.91 7681.91 2402.29 7681.56C2398.67 7681.21 2395.09 7681.14 2394.34 7681.4C2393.59 7681.67 2386.85 7681.83 2379.36 7681.76L2365.75 7681.63L2365.52 7677.87C2365.39 7675.8 2365.67 7673.66 2366.15 7673.12C2367.41 7671.71 2382.44 7671 2404.87 7671.3ZM2518.87 7675.81C2518.88 7676.1 2519.89 7676.66 2521.11 7677.04C2522.37 7677.44 2522.92 7677.17 2522.38 7676.42C2521.48 7675.15 2518.8 7674.69 2518.87 7675.81ZM2340.34 7705.68L2348.97 7705.17L2355.01 7800.55C2361.48 7902.92 2361.48 7901.79 2354.71 7905.95C2351.33 7908.03 2343.63 7908.47 2343.51 7906.6C2343.46 7905.8 2342.89 7905.51 2342.23 7905.97C2341.58 7906.43 2339.98 7905.4 2338.68 7903.67C2336.61 7900.92 2335.66 7890.28 2331.14 7819.47C2328.3 7774.89 2325.93 7730.9 2325.88 7721.71C2325.79 7705.63 2325.89 7705.02 2328.74 7705.6C2330.37 7705.93 2335.59 7705.96 2340.34 7705.68ZM2568.39 7765.16C2568.91 7765.89 2569.61 7766.47 2569.95 7766.45C2570.29 7766.43 2570.52 7765.79 2570.48 7765.03C2570.43 7764.27 2569.73 7763.69 2568.92 7763.74C2568.11 7763.79 2567.87 7764.43 2568.39 7765.16ZM2050.28 7847.08C2048.08 7848.19 2048.01 7848.43 2049.93 7848.39C2051.23 7848.36 2052.64 7847.7 2053.06 7846.91C2053.95 7845.26 2053.9 7845.26 2050.28 7847.08ZM1903.32 15539.5C1877.75 15542.2 1785.11 15553.6 1727.36 15561.2C1621.4 15575.1 1565.02 15584.9 1553.24 15591.5C1550.61 15592.9 1545.18 15591.6 1534.97 15587C1506.44 15574.2 1484.26 15576.6 1454.92 15595.5C1446.4 15601 1437.27 15605.5 1434.63 15605.5C1431.98 15605.5 1411.42 15610.1 1388.92 15615.6C1366.43 15621.2 1332.6 15629 1313.75 15632.9C1294.9 15636.8 1260.45 15644 1237.2 15648.9C1213.94 15653.8 1183.09 15660 1168.64 15662.6C1127.47 15670.2 1085.66 15680.7 1077.67 15685.6C1070.14 15690.2 1068.21 15696.9 1073.24 15701C1083.5 15709.5 1133.69 15710.2 1190.35 15702.6C1256.33 15693.9 1404.63 15664.7 1427.89 15655.8C1431.26 15654.6 1436.93 15653.5 1440.5 15653.5H1446.98L1441.27 15665C1432.86 15681.9 1434.16 15704.3 1444.19 15715.4C1447.08 15718.6 1446.87 15720.5 1442.52 15730.3C1439.57 15736.9 1437.12 15748.1 1436.5 15757.7C1435.5 15773.2 1435.73 15774.1 1441.71 15778.8C1450.65 15785.8 1460.29 15788.1 1497.7 15792C1515.93 15793.8 1540.09 15797.3 1551.4 15799.7C1571.37 15803.9 1579.56 15803 1573.89 15797.3C1570.92 15794.4 1518.86 15784.6 1495.42 15782.7C1473.66 15780.8 1456.86 15777.3 1450.29 15773.2C1446.1 15770.6 1445.16 15767.9 1445.25 15759.1C1445.3 15753.2 1447.1 15743.2 1449.24 15736.9L1453.14 15725.5L1489.71 15725.4C1516.14 15725.4 1531.65 15724.2 1545.69 15721.2C1564.87 15717.2 1565.44 15717.2 1591.39 15722.1C1605.85 15724.8 1646.47 15733.6 1681.66 15741.7C1716.85 15749.8 1748 15756.9 1750.88 15757.6C1753.76 15758.2 1755.58 15759.6 1754.94 15760.7C1753.42 15763.1 1694.52 15795 1635.96 15825C1610.82 15837.9 1581.51 15853.1 1570.83 15858.7C1553.95 15867.7 1548.86 15869.3 1531.98 15870.7C1521.3 15871.7 1498.16 15874.1 1480.56 15876.1C1462.97 15878.1 1435.2 15880.8 1418.87 15882C1402.53 15883.2 1386.07 15884.8 1382.3 15885.4C1371.79 15887.2 1271.16 15893.1 1221.2 15894.8C1171.35 15896.6 1158.37 15894.9 1142.91 15885C1128.11 15875.4 1099.03 15854.1 1098.25 15852.2C1095.15 15844.5 1082.33 15828.7 1077.11 15826C1071.08 15822.9 1070.66 15821.7 1070.66 15808.3C1070.66 15766.7 1031.68 15710.4 984.91 15684.5C971.333 15677 953.361 15674.3 947.792 15678.9C935.335 15689.2 931.282 15720.7 938.731 15749.4C945.927 15777.1 957.271 15796.8 977.974 15817.6C988.374 15828 997.985 15839.7 999.334 15843.6C1001.61 15850.1 1001.17 15851.2 993.081 15859.1C980.234 15871.5 974.37 15891.8 972.378 15930.8C970.977 15958.2 970.255 15962.1 966.002 15965.8C960.036 15971 956.121 15982.6 956.121 15995C956.121 16007.8 966.386 16023.7 980.794 16033.2C991.646 16040.4 992.149 16041.2 998.339 16062.4C1001.84 16074.4 1010.1 16100.7 1016.69 16120.8C1023.28 16140.9 1035.49 16178.5 1043.83 16204.3C1060.57 16256.2 1070.5 16279 1082.06 16292.2C1095.4 16307.3 1115.36 16311.9 1124.79 16301.8C1134.95 16291 1134.46 16287.1 1112.73 16205.4C1107.04 16184 1097.27 16146.5 1091.03 16122C1084.78 16097.5 1077.69 16070.4 1075.27 16061.8L1070.88 16046.1L1078.05 16043.7C1082 16042.3 1094.21 16036.7 1105.18 16031.2C1121.16 16023.2 1126.01 16021.7 1129.56 16023.6C1132 16024.9 1139.68 16027.4 1146.63 16029.2C1164.44 16033.9 1173.83 16031 1179.34 16019.3L1183.49 16010.4L1204.06 16008.9C1264.32 16004.4 1386.65 15992 1420.01 15987C1428.18 15985.8 1439.67 15984.1 1445.55 15983.4L1456.23 15982L1458.77 15992C1463.33 16010 1467.85 16020.1 1476.56 16031.7C1492.9 16053.5 1516.36 16059.4 1540.23 16047.7L1552.74 16041.6L1576.07 16046.2C1588.9 16048.7 1610.7 16052.6 1624.53 16054.7C1663.51 16060.6 1660.75 16057.5 1651 16083.8C1643.55 16104 1641.06 16108 1626.7 16122.8C1597.87 16152.7 1583.77 16188.4 1583.53 16232.2C1583.38 16259.7 1581.21 16263.5 1572.29 16251.6C1558.95 16233.7 1553.7 16213.6 1555.28 16186.3C1556.17 16170.9 1557.75 16165 1564.72 16150.9C1579.65 16120.7 1608.15 16099.1 1633.13 16099.1C1644.18 16099.1 1639.06 16093.5 1627.32 16092.7C1612.13 16091.7 1594.41 16100.8 1577.4 16118.2C1554.5 16141.7 1543.5 16173 1546.4 16206.3C1549.01 16236.1 1563.42 16263.9 1578.31 16267.7C1584.79 16269.4 1585.79 16271 1589.18 16284.3C1596.34 16312.7 1606.26 16326.5 1618.8 16325.6C1633.08 16324.6 1636.37 16325 1651.95 16329.6C1674.04 16336 1757.98 16346.6 1771.56 16344.6C1791.45 16341.7 1823.59 16326.5 1848.35 16308.3C1861.69 16298.6 1868.76 16297 1880.17 16301.4C1888.88 16304.7 1891.66 16304.8 1899.13 16302.4C1917.87 16296.2 1931.04 16281.3 1941.99 16253.7C1954.96 16221.1 1954.93 16177.4 1941.9 16142.8C1934.76 16123.8 1932.22 16121.1 1916.43 16116.2C1891.71 16108.4 1868.87 16111.9 1833.65 16129C1826.05 16132.7 1817.35 16135.7 1814.31 16135.7C1810.71 16135.7 1808.26 16137.4 1807.27 16140.5C1804.27 16149.9 1809.74 16149.4 1836.02 16137.9C1867.86 16123.8 1885.58 16119.4 1900.48 16121.8C1914.18 16124 1916 16125.8 1907.64 16128.8C1882.17 16138 1872.13 16144 1856.85 16159.1C1836.73 16178.9 1822.17 16209.9 1818.8 16240C1816.8 16257.9 1821.96 16279.3 1831.61 16293.2L1838.65 16303.3L1833.28 16307.4C1820.25 16317.2 1789.38 16332.7 1780.48 16333.9L1770.78 16335.1L1775.78 16329.7C1784.38 16320.3 1794.79 16294.8 1799.88 16270.6C1804.33 16249.5 1804.52 16245.5 1801.98 16227.9C1798.69 16205.2 1793.25 16189.6 1782.2 16171.3C1777.81 16164 1774.21 16157.7 1774.21 16157.4C1774.21 16157.1 1780.86 16153 1788.99 16148.2C1812.17 16134.6 1819.57 16120.5 1819.81 16089.5C1819.92 16074.7 1817.19 16075.6 1843.9 16081C1898.81 16091.9 1916.98 16089.6 1925.93 16070.7C1936.53 16048.4 1920.11 16021.4 1895.93 16021.4C1872.63 16021.4 1859.56 16050.6 1874.99 16068.2C1882.81 16077.1 1882.04 16077.5 1864.21 16074.2C1858.07 16073 1820.65 16067.4 1781.06 16061.7C1729.68 16054.3 1702.21 16051.4 1685.09 16051.5C1661.12 16051.7 1620.78 16046.5 1576.33 16037.5C1547.77 16031.7 1547.59 16031.7 1537.48 16038.6C1527.69 16045.2 1510.57 16046.3 1500.27 16041C1486.06 16033.6 1472.83 16012.9 1466.67 15988.4C1465.26 15982.7 1465.55 15982.6 1476.53 15982.6C1487.62 15982.6 1487.89 15982.7 1490.41 15991.2C1494.41 16004.5 1506.17 16019.1 1512.9 16019.1C1527.37 16019.1 1534.84 16005.4 1528.59 15990.2C1526.6 15985.4 1523.21 15980 1521.05 15978.4C1517.58 15975.6 1517.92 15975.4 1523.98 15976.6C1527.75 15977.3 1547.81 15980 1568.54 15982.6C1589.28 15985.2 1623.22 15989.8 1643.95 15992.7C1664.69 15995.7 1690.91 15999.3 1702.22 16000.7C1726.15 16003.7 1792.1 16013.7 1808.95 16016.9C1834.97 16021.9 1845.1 16020.2 1870.84 16006.8C1883.88 16000 1899.16 15993.7 1904.8 15992.9C1925.47 15989.8 1946.86 16001.1 1961.08 16022.6C1976.88 16046.6 1979.28 16048.8 1989.26 16048.8C1994.32 16048.8 2000.7 16047.7 2003.44 16046.2C2013.25 16041.1 2037 16021 2037 16017.8C2037 16012.5 2032.76 16014.1 2019.12 16024.5C1997.89 16040.7 1992.44 16043.2 1985.88 16040.3C1982.74 16038.8 1975.96 16030.5 1970.59 16021.5C1959.29 16002.4 1949.18 15993.4 1931.88 15986.9C1912.26 15979.5 1899.87 15981.5 1869.33 15997.1C1840.94 16011.7 1837.58 16012.2 1805.93 16006.7C1784.28 16002.9 1694.16 15990.2 1629.1 15981.6C1605.22 15978.5 1568.74 15973.7 1548.04 15971C1516.67 15966.9 1507.92 15966.5 1495.48 15968.5C1473.19 15972.3 1461.14 15973.2 1461.14 15971.2C1461.14 15970.3 1480.86 15949.2 1504.97 15924.4L1548.79 15879.4L1600.37 15853.3C1657.92 15824.3 1691.78 15806.5 1725.73 15787.5C1738.32 15780.4 1749.56 15774.6 1750.72 15774.6C1751.87 15774.6 1757.02 15771 1762.15 15766.6C1767.28 15762.2 1781.09 15754.7 1792.84 15749.9C1838.57 15731.1 1851.31 15725.9 1937.6 15691.6L2026.72 15656.1L2051.85 15658.2C2083.9 15660.8 2096.53 15662.1 2113.55 15664.8C2121.09 15665.9 2138.06 15668.5 2151.26 15670.5C2164.45 15672.6 2176.79 15674.6 2178.68 15675.2C2184.73 15677 2254.57 15685.2 2274.66 15686.5C2294.62 15687.8 2308.8 15684.9 2310.66 15679.2C2311.37 15677.1 2307.66 15676.7 2294.84 15677.8C2276.14 15679.3 2244.16 15675.8 2166.11 15663.8C2138.46 15659.5 2104.53 15654.9 2090.7 15653.4C2076.88 15652 2058.88 15650.1 2050.71 15649.3L2035.86 15647.7L2058.71 15634.1L2102.13 15634.2C2137.82 15634.2 2150.22 15635.2 2171.82 15639.4C2186.28 15642.3 2200.67 15645.1 2203.82 15645.7C2216.13 15648.1 2251.58 15655.8 2268.94 15660C2279 15662.4 2295.32 15665.7 2305.22 15667.3C2318.33 15669.5 2324.82 15671.7 2329.12 15675.7C2334.07 15680.3 2334.49 15681.6 2331.7 15683.4C2326.24 15687.1 2310.13 15695.4 2309.44 15694.9C2307.81 15693.7 2240.19 15727.9 2212.81 15743.7C2168.14 15769.6 2087.04 15825.9 2059.28 15850.2C2048.28 15859.9 2046.14 15863 2046.14 15869.3C2046.14 15876.5 2057.47 15895.7 2061.7 15895.7C2062.71 15895.7 2069.32 15901.5 2076.39 15908.6C2093.96 15926.2 2094.58 15931 2083.84 15966.3C2079.25 15981.4 2074.71 15999.5 2073.77 16006.4C2072.82 16013.4 2071.61 16019.5 2071.09 16019.9C2070.56 16020.3 2063.45 16024 2055.28 16028.1C2036.16 16037.8 2033.37 16040.6 2027.97 16056C2023.29 16069.3 2023.09 16070.9 2017.46 16141.4C2011.79 16212.4 2009.95 16218.6 1992.32 16226.9C1979.74 16232.8 1971.66 16232.9 1962.35 16227.2C1956.06 16223.4 1954.93 16223.3 1953.77 16226.3C1953.04 16228.2 1953.08 16230.8 1953.86 16232.1C1956.25 16236 1970.09 16240.8 1978.73 16240.8C1987.75 16240.8 2005.32 16232.6 2014.15 16224.3C2037.63 16202.2 2178.17 16103.7 2186.22 16103.7C2188.02 16103.7 2192.25 16105.9 2195.63 16108.5C2202.84 16114.2 2204.76 16113.3 2201.85 16105.7C2199.26 16098.9 2194.41 16096.4 2168.4 16088.8C2142.34 16081.2 2102.86 16062 2093.13 16052.3C2083.29 16042.4 2080.01 16029.2 2082.64 16010C2085.72 15987.4 2101.62 15932.3 2105.06 15932.3C2106.68 15932.3 2116.2 15937 2126.23 15942.7C2136.26 15948.3 2149.34 15955.7 2155.29 15958.9C2161.24 15962.2 2172.28 15968.3 2179.82 15972.4C2187.36 15976.6 2201.25 15984.2 2210.67 15989.4C2276.61 16025.7 2343.12 16054.8 2384.34 16065.3C2391.18 16067 2393.1 16068.2 2390.06 16068.8C2346.18 16077.2 2223.91 16108.5 2199.71 16117.5C2168.84 16129 2151.26 16142.7 2151.26 16155.4C2151.26 16161.8 2152.53 16163.3 2162.11 16168C2172.21 16173 2175.66 16173.4 2211.81 16173.3C2234.65 16173.3 2266.69 16171.5 2289.55 16168.9L2328.44 16164.6L2384.39 16193.3C2415.15 16209 2453.74 16228.7 2470.13 16237C2495.98 16250 2500.46 16253.1 2503.86 16260.2C2509.52 16272.1 2527.18 16290.1 2538.54 16295.6L2548.33 16300.4L2542.83 16318C2527 16368.7 2490.7 16508.1 2488.16 16527.9C2485.9 16545.5 2490.02 16555.6 2501.71 16560.9C2513.66 16566.3 2522.38 16566.3 2534.29 16560.9C2545.47 16555.8 2552.97 16546.6 2562.15 16526.4C2575.29 16497.7 2588.59 16461 2631.14 16336.1L2644.23 16297.7L2658.01 16291.2C2687.09 16277.4 2700.22 16257.9 2700.18 16228.4C2700.16 16212.2 2695.53 16195.6 2688.82 16187.8C2685.9 16184.4 2686.26 16182.4 2691.97 16170.7C2697.38 16159.7 2698.58 16153.9 2699.32 16135.5C2700.24 16112.5 2697.14 16091.5 2691.92 16085.5C2690.24 16083.6 2688.35 16077.9 2687.72 16072.8L2686.57 16063.7L2722.81 16064.4C2770.05 16065.4 2847.31 16057.8 2915.95 16045.5C2974.74 16035 3027.91 16022 3044.18 16014.2C3052.29 16010.4 3053.89 16008.5 3053.89 16003C3053.89 15997.9 3052.19 15995.5 3046.47 15992.3C3040.02 15988.8 3032.99 15988.3 2993.34 15988.4C2968.2 15988.5 2928.1 15990.3 2904.22 15992.5C2880.34 15994.6 2846.92 15997.3 2829.95 15998.5C2794.32 16001 2731.73 16008.5 2713.41 16012.3C2681.67 16019 2657.96 16028.6 2646.52 16039.3C2640.67 16044.8 2638.86 16045.2 2622.13 16044.6C2612.19 16044.3 2593.96 16045 2581.61 16046.3C2569.26 16047.6 2543.22 16049.8 2523.74 16051.1C2481.9 16054.1 2430.06 16059.6 2418.18 16062.4C2407.49 16064.8 2368.42 16053.8 2328.68 16037.1C2300.91 16025.5 2225.73 15988.6 2210.93 15979.4C2206.39 15976.5 2193.42 15969.3 2182.11 15963.2C2156.71 15949.7 2145.6 15943.4 2124.45 15930.8C2115.36 15925.3 2106.62 15920.9 2105.02 15920.8C2101.49 15920.8 2056.3 15877.7 2054.74 15872.9C2052.72 15866.7 2057.26 15861.9 2085.6 15840.2C2146.59 15793.3 2217.52 15748.8 2274.4 15721.5C2329.95 15694.9 2341.32 15689.7 2341.95 15690.5C2345.08 15694.4 2352.83 15737.5 2358.08 15780.4L2359.49 15791.8L2343.87 15807.9C2334.99 15817.1 2323.37 15826.4 2316.92 15829.5C2301.77 15836.8 2273.48 15838.3 2245.63 15833.1C2227.32 15829.8 2224.24 15829.8 2213.64 15832.9C2194.22 15838.7 2171.8 15858.2 2156.11 15883C2142.89 15904 2146.92 15910.5 2183.4 15927.4C2215.91 15942.4 2252.57 15948.2 2274.08 15941.7L2281.51 15939.5L2281.57 15947.9C2281.71 15970.5 2292.49 15987.2 2310 15992C2320.57 15994.9 2357.9 15993.8 2471.18 15987.2C2512.03 15984.8 2563.96 15982.2 2586.58 15981.4C2609.2 15980.7 2633.37 15979.4 2640.28 15978.6C2647.19 15977.9 2716.61 15977.1 2794.53 15976.8C2949.23 15976.4 2948.66 15976.5 2966.26 15963C2978.17 15954 2981.58 15944 2980.11 15922.4C2978.67 15901.3 2977.61 15901.3 3004.38 15920.6C3040.6 15946.7 3083.63 15968 3112.09 15974C3122.75 15976.2 3125.78 15976.1 3132.6 15972.8C3148.47 15965.3 3145.88 15954.6 3119.67 15919.7C3082.82 15870.7 3050.07 15842.2 2994.59 15810.9C2966.67 15795.2 2960.37 15790.7 2959.38 15785.8C2956.25 15770.5 2933.93 15755.3 2910.65 15752.6C2898.17 15751.2 2895.75 15749.8 2871.08 15730.1C2825.03 15693.2 2786.77 15669.4 2717.98 15635C2682.03 15617 2660.42 15609.5 2651.13 15611.8C2638.32 15614.9 2632.45 15627 2638.31 15638.2C2649.84 15660.4 2678.96 15681.8 2778.53 15741.4C2859.36 15789.7 2853.62 15785.6 2849.28 15792.2C2841.58 15804 2834.67 15827.4 2832.43 15849.2C2829.93 15873.7 2828.79 15875.6 2814.06 15879.9C2791.4 15886.5 2751.26 15887.5 2638.85 15884.3C2577.42 15882.5 2498.55 15881.4 2463.58 15881.7L2400 15882.4L2391.24 15876.6C2385.86 15873.1 2381.55 15867.9 2380.06 15863.3C2377.29 15854.7 2371.86 15820 2367.14 15780.8C2363.08 15747.2 2357.6 15715 2353.6 15701.3C2347.04 15678.9 2335.94 15664 2323.99 15661.6C2321.36 15661.1 2308.14 15658.5 2294.6 15655.9C2281.07 15653.3 2251.76 15647.2 2229.48 15642.3C2162.61 15627.6 2143.02 15625 2099.84 15625.1C2056.39 15625.2 2049.47 15626.8 2030.01 15641C2019.87 15648.5 1964.88 15671.8 1875.9 15706.4C1859.56 15712.8 1834.36 15722.9 1819.91 15728.9C1786.16 15742.9 1760.55 15752.1 1758.54 15750.8C1757.09 15749.9 1726.69 15742.7 1674.8 15730.9C1663.49 15728.3 1636.02 15722.4 1613.76 15717.7C1591.5 15713.1 1572.66 15708.7 1571.89 15707.9C1571.12 15707.1 1572.26 15703.1 1574.42 15698.9C1580.24 15687.6 1579.8 15664.4 1573.5 15650.3L1568.47 15639.1L1573.46 15634.4C1577.3 15630.8 1582.17 15629.6 1594.63 15629.1C1681.47 15625.3 1780.61 15609.6 1864.47 15586.3C1931.12 15567.8 1959.22 15557.1 1963.89 15548.4C1966 15544.4 1965.45 15543.4 1959.97 15541.3C1950.98 15537.7 1927.42 15537 1903.32 15539.5ZM1952.45 15547C1952.45 15549.5 1901.53 15567.4 1871.33 15575.5C1772.06 15602.2 1700.14 15614.1 1598.82 15620.5C1582.74 15621.5 1575.4 15621.2 1575.4 15619.6C1575.4 15618.2 1572.31 15613.6 1568.54 15609.3C1557.94 15597.2 1558.11 15597 1581.11 15592C1619.02 15583.9 1768.78 15563.7 1902.18 15548.6C1920.58 15546.6 1952.45 15545.5 1952.45 15547ZM1531.19 15595.1C1538.29 15598.4 1543.61 15601.5 1543.01 15602.1C1542.41 15602.7 1533.77 15606.2 1523.81 15609.8C1504.6 15616.8 1449.4 15638.5 1441.72 15642.1C1439.2 15643.2 1421.72 15647.9 1402.87 15652.4C1288.74 15679.7 1198.74 15695.4 1137.73 15698.5C1110.72 15699.8 1084.09 15698.1 1084.09 15695C1084.09 15690.2 1118.85 15681.4 1207.49 15663.8C1237.65 15657.8 1305.87 15643.7 1340.03 15636.5C1349.45 15634.5 1378.63 15627.7 1404.87 15621.3C1445.35 15611.6 1453.91 15608.8 1461.36 15602.8C1481.56 15586.6 1506.51 15583.8 1531.19 15595.1ZM1559.08 15613.6C1571.69 15626.9 1558.24 15637 1513.7 15647.9C1476.91 15656.9 1448.83 15656.1 1460.15 15646.4C1463.03 15644 1546.91 15609.2 1552.55 15608.1C1553.18 15608 1556.11 15610.4 1559.08 15613.6ZM2676.86 15625.1C2705.2 15636.7 2772.41 15672.4 2807.1 15694.3C2828.78 15708 2879.83 15748.7 2881.96 15753.9C2882.28 15754.7 2879.2 15757.3 2875.1 15759.7C2871.01 15762.1 2864.92 15767 2861.57 15770.5L2855.48 15777L2844.43 15770.3C2838.35 15766.6 2820.52 15755.9 2804.81 15746.6C2702.01 15685.1 2679.44 15670.2 2657.99 15649.3C2644.79 15636.5 2642.84 15631.8 2647.22 15623.7C2650.47 15617.6 2659.35 15618 2676.86 15625.1ZM1565.5 15655.2C1567.8 15661.2 1569.69 15671.9 1569.69 15679C1569.69 15690.1 1568.65 15693.2 1562.6 15700.7C1552.69 15713 1541.53 15715.6 1496.46 15716C1453.24 15716.4 1449.69 15715.2 1445.37 15698C1442.61 15687.1 1443.17 15682.9 1449.09 15670.1L1452.52 15662.7H1470.64C1490.98 15662.7 1516.69 15658 1538.84 15650.2C1560.24 15642.7 1560.71 15642.8 1565.5 15655.2ZM975.422 15690C1013.86 15707.5 1055.12 15758.5 1060.77 15795.4C1063.9 15815.9 1062.5 15817.5 1042.59 15816.3C1029.77 15815.5 1022.62 15816.4 1012.24 15819.9L998.662 15824.5L989.29 15816.8C976.199 15806.1 967.081 15794.1 957.851 15775.7C948.523 15757 947.232 15752.2 944.638 15727.2C942.602 15707.5 944.35 15697.3 951.087 15689.5C955.6 15684.3 963.187 15684.4 975.422 15690ZM2927.75 15766.8C2940.02 15772.9 2948.78 15781.7 2948.78 15787.9C2948.78 15789.9 2946.01 15794.4 2942.64 15797.9C2938.14 15802.6 2934.32 15804.3 2928.35 15804.3C2915.12 15804.2 2891.15 15797.7 2881.98 15791.7C2877.3 15788.6 2872.54 15786.1 2871.41 15786.1C2870.28 15786.1 2868.21 15784.7 2866.81 15783C2864.83 15780.6 2866.05 15778.3 2872.27 15772.6C2882.67 15763.1 2887.79 15761.2 2903.2 15761.1C2912.48 15761 2919.07 15762.5 2927.75 15766.8ZM2866.66 15794.2C2873.84 15802.9 2898.27 15811.4 2923.64 15814C2929 15814.6 2928.8 15815 2920.21 15820.1C2906.98 15828 2895.07 15828.7 2878.42 15822.6C2860.01 15815.9 2856.47 15811.9 2858.49 15799.9C2860.18 15789.9 2862 15788.6 2866.66 15794.2ZM2969.49 15806.9C2987.78 15815.7 3021.37 15836.2 3040.67 15850.4C3065.17 15868.5 3092.47 15896.8 3113.09 15925.6C3132.69 15953 3135.48 15959.1 3130.61 15964C3119.07 15975.5 3039.46 15939.1 2992.64 15900.8C2982.97 15892.9 2960.91 15875.1 2943.62 15861.2C2926.33 15847.3 2912.68 15835.1 2913.29 15834.1C2913.91 15833.2 2919.83 15829.7 2926.45 15826.4C2933.08 15823.2 2942.56 15816.4 2947.53 15811.3C2952.5 15806.2 2957.19 15802 2957.95 15802C2958.72 15802 2963.91 15804.2 2969.49 15806.9ZM2361.52 15809.5C2361.54 15812.3 2363.88 15826.1 2366.71 15840.1L2371.87 15865.5L2353.35 15866.5C2332.26 15867.6 2320.08 15872.7 2305.88 15886.2C2296.5 15895.2 2287.63 15910.6 2285.08 15922.4C2283.07 15931.7 2275.26 15934.6 2252.04 15934.6C2229.04 15934.5 2209.56 15929.7 2184.47 15917.8C2160.03 15906.2 2156.33 15902.6 2160.05 15894.4C2165.75 15881.9 2181.92 15863.1 2195.35 15853.3C2216.03 15838.3 2222.52 15836.9 2248.29 15842C2274.57 15847.1 2302.55 15845.9 2318.63 15838.9C2324.99 15836.2 2335.4 15828.2 2343.77 15819.6C2351.63 15811.6 2358.83 15804.9 2359.78 15804.7C2360.72 15804.5 2361.51 15806.6 2361.52 15809.5ZM2868.57 15828.3C2872.85 15830.5 2882.62 15834.3 2890.28 15836.8C2904.73 15841.6 2917.15 15850.3 2949.7 15878.8C2970.79 15897.2 2972.99 15901.3 2961.97 15901.7C2957.86 15901.9 2944.21 15902.8 2931.64 15903.7C2902.54 15905.9 2879.22 15902.5 2860.17 15893.2C2839.03 15882.9 2838.09 15880.8 2841.49 15849.6C2843.03 15835.4 2845.22 15821.3 2846.34 15818.3L2848.39 15812.8L2854.59 15818.6C2858.01 15821.8 2864.3 15826.1 2868.57 15828.3ZM1067.86 15833C1080.53 15839.9 1086.91 15849.2 1081.34 15852.6C1072.51 15858.1 1031.67 15857.9 1019.69 15852.3C1016.32 15850.7 1012.27 15846.3 1010.7 15842.5C1008.03 15836.1 1008.29 15835.3 1014.55 15830.1C1020.6 15825.1 1022.92 15824.7 1038.47 15825.5C1052.06 15826.2 1058.27 15827.8 1067.86 15833ZM1117.42 15878.8C1141.92 15897 1147.32 15902.1 1149.5 15909.1C1150.94 15913.7 1154.77 15924.3 1158.01 15932.7C1167.27 15956.7 1175.5 15988.2 1175.5 15999.7C1175.5 16007.9 1174.23 16011.5 1169.61 16016.1C1164.58 16021.1 1162.33 16021.8 1154.18 16020.7C1148.94 16020 1135.19 16014.5 1123.63 16008.6C1097.85 15995.2 1072.71 15973 1057.11 15949.7C1045.51 15932.3 1026.23 15894.5 1018.16 15873.2L1013.53 15861L1018.73 15862.3C1039.36 15867.5 1081.44 15865.3 1085.43 15858.9C1086.1 15857.8 1086.94 15856.9 1087.31 15856.9C1087.67 15856.9 1101.22 15866.7 1117.42 15878.8ZM1015.47 15889C1040.22 15949.6 1057.5 15974.1 1096.66 16004.4C1102.94 16009.2 1109.03 16014 1110.18 16014.9C1111.33 16015.9 1103.58 16020.9 1092.97 16026C1054.64 16044.4 1010.74 16042.9 980.856 16022.3C970.776 16015.3 965.262 16004.6 965.262 15992.1C965.262 15983 969.108 15971.2 972.06 15971.2C972.883 15971.2 975.195 15974.6 977.2 15978.8C986.959 15999.3 1021.57 16001 1050.65 15982.5C1060.77 15976.1 1061.41 15975.2 1057.74 15972.5C1054.28 15970 1051.54 15970.7 1039.02 15977.2C1026.86 15983.6 1021.85 15984.9 1009.78 15984.9C997.684 15984.9 994.139 15983.9 988.813 15979.3L982.401 15973.8V15937.6C982.401 15906 983.047 15899.6 987.574 15886.5C993.362 15869.8 998.765 15860.8 1002.38 15862C1003.7 15862.5 1009.6 15874.6 1015.47 15889ZM1661.78 15873.4C1645.89 15886.5 1641.85 15890.9 1641.74 15895.2C1641.57 15901.8 1651.63 15897.1 1665.58 15884.1L1680.52 15870.1V15886.1C1680.52 15903.7 1683.46 15908.6 1692.68 15906.3C1695.8 15905.5 1699.89 15906.4 1702.43 15908.3C1708.23 15912.7 1718.22 15912.6 1725.11 15908.1C1730.48 15904.6 1730.92 15904.7 1736.66 15911.5C1741.54 15917.3 1744.31 15918.6 1752 15918.6C1760.33 15918.6 1762.42 15917.4 1770.65 15907.9C1789.03 15886.7 1801.9 15874.9 1805.77 15875.7C1811.04 15876.8 1809.99 15893.1 1803.69 15908C1795.83 15926.6 1801.43 15934.6 1822.31 15934.6C1831.26 15934.6 1854.19 15922.9 1854.19 15918.4C1854.19 15915.2 1851.2 15915.8 1837.11 15922.3C1826.56 15927.1 1822.65 15927.9 1816.85 15926.2C1801.9 15921.9 1806.56 15913.2 1833.21 15895.6C1852.87 15882.6 1857.81 15880.7 1862.3 15884.4C1865.06 15886.7 1865.61 15886.1 1865.61 15880.9C1865.61 15874.8 1865.29 15874.6 1855.5 15875.7C1849.84 15876.4 1840.26 15880 1833.76 15884C1827.36 15888 1821.11 15891.2 1819.88 15891.2C1818.64 15891.2 1817.63 15887.1 1817.63 15882.2C1817.63 15872.8 1811.81 15866 1803.75 15866C1797.45 15866 1781.8 15878.9 1771.99 15892.2C1766.85 15899.2 1760.04 15906.6 1756.85 15908.7C1751.26 15912.3 1750.82 15912.2 1745.16 15906.6C1739.34 15900.8 1739.32 15900.6 1743.03 15891.3C1750.33 15873.1 1746.87 15861.5 1734.14 15861.5C1725.04 15861.5 1711.97 15871.9 1700.84 15888.1C1691.76 15901.3 1686.7 15899.6 1688.76 15884.1C1690.34 15872.2 1685.93 15861.5 1679.44 15861.5C1677.65 15861.5 1669.7 15866.8 1661.78 15873.4ZM1736.75 15873.9C1738.52 15878.5 1733.84 15886.6 1724.39 15895.2C1707.2 15910.8 1701.32 15899.3 1717.27 15881.2C1726.58 15870.6 1734.38 15867.7 1736.75 15873.9ZM2382.95 15882.6L2394.52 15890L2484.84 15890.5C2534.51 15890.8 2613.47 15891.8 2660.3 15892.8C2755.67 15894.8 2799.15 15893.4 2817.6 15887.6L2829.94 15883.7L2839.21 15890.3C2853.4 15900.4 2859.7 15903.7 2873.37 15908.2C2890.05 15913.7 2928.09 15915.5 2950.08 15911.7C2967.9 15908.7 2970.27 15909 2968.21 15914.3C2965.85 15920.3 2950.58 15928.1 2934.62 15931.4C2913.17 15935.9 2892.95 15933.9 2844.8 15922.7L2805.96 15913.7L2664.28 15911.5C2586.35 15910.3 2482.49 15909.6 2433.47 15910C2355.37 15910.6 2343.33 15911.1 2336.06 15914.5C2325.27 15919.6 2316.42 15930.3 2314.21 15940.9C2311.6 15953.6 2312.22 15973.1 2315.34 15976.2C2319.51 15980.4 2318.63 15982.6 2312.79 15982.6C2307.4 15982.6 2297.83 15974 2293.22 15965C2291.81 15962.3 2290.65 15954.1 2290.65 15946.9C2290.65 15905.9 2319.63 15875.5 2359.01 15875.2C2369.14 15875.2 2373.47 15876.5 2382.95 15882.6ZM1534.27 15881C1534.27 15881.7 1516.01 15900.8 1493.71 15923.4C1471.4 15946.1 1452.23 15966.3 1451.1 15968.4C1449.97 15970.6 1448.86 15972.5 1448.63 15972.8C1445.97 15976.5 1281.96 15994.9 1208.06 15999.9C1185.19 16001.4 1184.64 16001.3 1184.64 15996.6C1184.64 15993.9 1184.63 15991.5 1184.63 15991.1C1184.54 15986.9 1171.41 15943.3 1165.27 15926.9C1160.84 15915.1 1157.21 15905 1157.22 15904.6C1157.22 15904.1 1178.04 15903.6 1203.49 15903.4C1249.21 15903.1 1289.7 15901 1376.59 15894.4C1432.48 15890.2 1519.1 15881.9 1520.37 15880.7C1521.79 15879.3 1534.27 15879.6 1534.27 15881ZM1907.89 15915.2C1900.35 15919.5 1891.35 15923.7 1887.89 15924.4C1881 15925.9 1879.18 15932.3 1885.63 15932.3C1890.9 15932.3 1923.33 15913.7 1924.5 15910C1925.89 15905.7 1922.81 15906.6 1907.89 15915.2ZM2733.97 15920.8C2791.8 15922.3 2811.27 15923.5 2821.95 15926.5C2852.22 15934.9 2861.74 15937.1 2883.58 15940.6C2897.99 15942.9 2911.3 15943.6 2919.77 15942.7C2937.6 15940.7 2961.73 15933.1 2966.99 15927.8C2971.12 15923.7 2971.27 15923.7 2972.68 15929.3C2974.63 15937.1 2967.5 15950.4 2957.86 15956.9C2940.35 15968.8 2931.8 15969.7 2843.67 15967.9C2744 15966 2633.21 15969.1 2481.46 15978.1C2418.62 15981.8 2359.82 15984.8 2350.8 15984.8C2335.83 15984.9 2333.99 15984.3 2329.7 15978.9C2319.37 15965.7 2319.37 15942 2329.72 15930.9C2341.13 15918.7 2337.15 15919 2504.31 15918.9C2589.78 15918.9 2693.13 15919.8 2733.97 15920.8ZM1515.98 15987.1C1520.84 15992 1522.34 16006.3 1518.25 16008.9C1511.86 16012.8 1499.99 15998.6 1499.99 15987.1C1499.99 15981 1509.89 15981 1515.98 15987.1ZM3041.27 16000C3047.95 16002.6 3044.64 16005.1 3027.04 16010.8C2971.66 16028.9 2873.59 16046.5 2789.96 16053.5C2743.62 16057.3 2676.32 16055.5 2663.67 16050C2654.46 16046.1 2654.14 16045.6 2657.7 16041.7C2666.32 16032.2 2716.13 16018.6 2761.39 16013.5C2792.1 16010.1 2851.38 16005.2 2914.5 16000.8C2932.72 15999.6 2952.78 15998.1 2959.06 15997.7C2974.09 15996.5 3036.81 15998.3 3041.27 16000ZM1910.06 16038.6C1920.09 16048.6 1921.92 16055.4 1917.1 16064.7C1912.29 16074 1904.06 16078 1898.67 16073.7C1877.57 16056.8 1874 16046.7 1885.37 16036.2C1893.73 16028.4 1900.56 16029.1 1910.06 16038.6ZM2074.25 16038.5C2077.21 16056.7 2094.41 16069.7 2141.4 16088.9C2154.99 16094.5 2167.4 16099.1 2168.97 16099.1C2173.88 16099.2 2172.09 16102.8 2165.73 16105.7C2156.71 16109.8 2116.77 16136.9 2069.51 16170.8C2011.54 16212.5 2017.6 16208.7 2019.49 16201.9C2020.36 16198.8 2023.19 16170.5 2025.78 16139.1C2031.53 16069.3 2034.41 16054.4 2043.75 16046.5C2050.03 16041.1 2068.29 16030.7 2071.55 16030.6C2072.33 16030.6 2073.54 16034.1 2074.25 16038.5ZM1043.2 16047.7H1062.86L1065.22 16058C1067.42 16067.6 1094.15 16171.3 1112.32 16240.8C1123.64 16284.1 1124.46 16291.3 1118.64 16296.5C1112.49 16302.1 1104.77 16300.1 1093.6 16290C1076.15 16274.2 1065.51 16246.5 1015.12 16085.4C1010.2 16069.7 1005.26 16054 1004.13 16050.4L1002.07 16044L1012.8 16045.9C1018.7 16046.9 1032.38 16047.7 1043.2 16047.7ZM2667.7 16060.4C2679.72 16064.6 2680.39 16066.2 2673.06 16073.5C2663.67 16082.9 2631.14 16088.8 2598.33 16087.1C2574.73 16085.8 2553.45 16081.8 2553.45 16078.5C2553.45 16077.5 2550.83 16077 2547.64 16077.3C2544.36 16077.7 2542.19 16076.9 2542.64 16075.5C2544.24 16070.8 2560.11 16064.6 2582.25 16060.3C2607.53 16055.3 2653.22 16055.4 2667.7 16060.4ZM2545.25 16061.2C2541.38 16062.9 2535.88 16067.3 2533.03 16070.9C2528.63 16076.4 2528 16079.5 2528.76 16091.6L2529.66 16105.8L2519.27 16110.2C2485.81 16124.5 2362.7 16151.2 2289.51 16160C2271.33 16162.2 2239.76 16164 2216.38 16164.1C2181.08 16164.2 2174.2 16163.7 2167.83 16160.2C2163.74 16158 2160.4 16155.3 2160.4 16154.3C2160.4 16150.6 2173.44 16140.5 2186.86 16133.8C2210.06 16122.2 2282.83 16101.6 2365.15 16083.3C2428.2 16069.3 2438.22 16067.5 2468.89 16064.7C2484.6 16063.2 2505.69 16061.3 2515.74 16060.3C2525.79 16059.4 2538.13 16058.5 2543.16 16058.4L2552.3 16058.2L2545.25 16061.2ZM1716.67 16062.8C1715.42 16063.6 1714.64 16064.6 1714.93 16065.1C1717.02 16068.6 1710.75 16076.7 1702.78 16080.9C1689.41 16087.8 1681.12 16094.5 1685.87 16094.5C1691.38 16094.5 1707.94 16087.5 1707.94 16085.2C1707.94 16084 1708.98 16083.1 1710.25 16083.1C1713.15 16083.1 1707.39 16097.3 1699.84 16108.8C1693.38 16118.6 1693.12 16119.7 1697.23 16119.7C1705.52 16119.7 1720.2 16095.2 1723.58 16075.7L1725.25 16066L1738.87 16066.3C1746.37 16066.5 1765.35 16068.6 1781.06 16071L1809.63 16075.3L1809.49 16092.4C1809.42 16101.7 1808.61 16112.3 1807.68 16115.9C1805.53 16124.3 1795.04 16133.9 1777.07 16144L1762.79 16152.1L1739.29 16148.4C1716.79 16144.9 1663.43 16131.9 1650.24 16126.8C1642.8 16123.9 1642.62 16122.7 1648.54 16115.1C1651.01 16112 1655.7 16100.7 1658.96 16090C1668.05 16060.2 1666.58 16061.4 1694.84 16061.4C1708.1 16061.4 1717.92 16062 1716.67 16062.8ZM1957.02 16069.5C1955.13 16070.7 1950.76 16072.7 1947.31 16073.9C1938.44 16077.1 1939.19 16081 1948.16 16078.5C1955.34 16076.4 1966.16 16070.2 1966.16 16068.2C1966.16 16066.4 1960.71 16067.2 1957.02 16069.5ZM2547.86 16089.9C2550.81 16092.8 2590.39 16099.1 2606 16099.1C2612.92 16099.1 2628.34 16097.5 2640.28 16095.7C2682.25 16089 2683.46 16089 2685.08 16093.2C2688.37 16101.8 2663.17 16112 2630.32 16115.4C2601.97 16118.3 2569.92 16114.2 2550.26 16105.2C2537.51 16099.4 2534.97 16095.7 2540.19 16090.4C2543.5 16087.1 2545 16087 2547.86 16089.9ZM1673.05 16097.1C1674.6 16098.7 1676.45 16099.4 1677.15 16098.7C1677.85 16098 1676.58 16096.7 1674.33 16095.8C1671.07 16094.6 1670.81 16094.9 1673.05 16097.1ZM2687.16 16157.6C2679.94 16182.4 2654.09 16198.7 2617.06 16201.6C2584.28 16204.2 2558.89 16199 2539.17 16185.4C2521.46 16173.2 2514.51 16140.5 2526.02 16123.5C2533.03 16113.2 2536.77 16111.8 2546.79 16116C2558.02 16120.6 2595.11 16126.5 2612.95 16126.5C2639.15 16126.5 2672.87 16118.3 2683.22 16109.4L2689.41 16104.1L2690.07 16124.7C2690.51 16138.4 2689.54 16149.4 2687.16 16157.6ZM2512.87 16142.2C2511.51 16166 2514.02 16175.4 2524.35 16185.4C2548.23 16208.4 2599.03 16218.1 2640.53 16207.5C2653.06 16204.4 2673.23 16194.5 2675.82 16190.3C2678.32 16186.3 2683.18 16188.3 2684.24 16193.8C2685.45 16200.2 2679.55 16206.7 2664.05 16216.3C2643.94 16228.8 2611.8 16232.7 2576.3 16226.9C2555.63 16223.6 2530.53 16211.1 2521.46 16199.7C2513.82 16190 2507.74 16187.8 2507.74 16194.6C2507.74 16208.7 2534.2 16226.8 2567.16 16235.3C2587.88 16240.7 2625.86 16240.7 2643.71 16235.4C2661.08 16230.2 2678.27 16220.9 2683.94 16213.7C2686.36 16210.6 2689.05 16208.8 2689.92 16209.7C2690.8 16210.6 2691.55 16218.7 2691.6 16227.8C2691.68 16241.6 2690.72 16245.9 2685.62 16254.5C2670.06 16280.8 2643.95 16292.7 2596.5 16295C2565.8 16296.5 2544.84 16291.1 2530.17 16277.9C2511.49 16261 2505.75 16247 2504.39 16214.9C2503.57 16195.4 2502.6 16191.2 2496.09 16179C2486.8 16161.6 2473.46 16146.3 2464.15 16142.5C2457.01 16139.5 2457.17 16139.4 2485.21 16131C2500.74 16126.3 2513.58 16122.3 2513.74 16122.2C2513.9 16122.1 2513.51 16131.1 2512.87 16142.2ZM1643.92 16133.4C1656.53 16139.8 1706.75 16153 1736.5 16157.6C1751.01 16159.9 1763.42 16163.1 1765.85 16165.1C1772.33 16170.7 1785.03 16193.6 1788.96 16206.9C1793.04 16220.6 1793.85 16256.8 1790.47 16274.1C1787.35 16290 1780.22 16307.3 1770.57 16322.4L1762.41 16335.2L1740.32 16333.8C1711.73 16332 1662.58 16324.3 1645.1 16318.7C1633.85 16315.1 1631.59 16313.6 1632.52 16310.1C1634.6 16302.4 1633.32 16281 1629.6 16261.2C1626.45 16244.4 1626.34 16239.7 1628.86 16228.8C1637.87 16190.1 1665.74 16173.3 1699.73 16186C1727.3 16196.4 1742 16220.5 1739.25 16250.7C1737.32 16272.1 1723.23 16286.5 1704.35 16286.5C1682.56 16286.5 1673.07 16267.6 1672.72 16223.4C1672.55 16202.2 1671.95 16198.1 1669.09 16198.4C1656.54 16200.1 1651.65 16245.9 1661.83 16266.3C1677.47 16297.8 1707.13 16306.4 1731.3 16286.4C1744.49 16275.6 1749.66 16261.6 1748.65 16239.8C1747.32 16211.3 1734.9 16191.7 1710.73 16179.8C1693.6 16171.4 1668.48 16170.8 1654.24 16178.4C1624.35 16194.4 1613.14 16228.2 1622.23 16275C1626.2 16295.4 1625.76 16307.2 1620.81 16313.1C1616.19 16318.7 1612.12 16316.4 1606.26 16304.8C1596.71 16286 1592.91 16265.6 1592.8 16232.8C1592.71 16206.1 1593.34 16201.3 1599.05 16184.8C1602.55 16174.8 1608.03 16162 1611.23 16156.5C1616.63 16147.3 1631.81 16128.8 1634.03 16128.8C1634.56 16128.8 1639.01 16130.9 1643.92 16133.4ZM1927.31 16136.8C1935.14 16136.8 1944.78 16183.6 1942.38 16209.9C1940.37 16232.1 1935.94 16247.5 1926.76 16264.2C1911.98 16291.2 1889.81 16301.1 1878.41 16285.8C1868.09 16271.9 1874.53 16221.3 1889.69 16197.3C1901.76 16178.1 1911.16 16170.5 1930.17 16164.5C1932.37 16163.8 1934.17 16162.2 1934.17 16160.9C1934.17 16158 1920.41 16157.8 1912.99 16160.6C1903.53 16164.2 1886.25 16183.6 1878.07 16199.9C1865.73 16224.4 1860.11 16267.2 1866.91 16284.9C1867.86 16287.4 1865.09 16289.4 1856.68 16292.1C1850.34 16294.3 1844.32 16295.5 1843.3 16294.8C1839.09 16292.2 1830.71 16271.5 1828.4 16258C1823.92 16231.9 1836.13 16195.9 1858.24 16169.9C1868.14 16158.3 1891.29 16143.3 1905.97 16138.9C1912.45 16137 1918.51 16133.7 1919.42 16131.6C1920.92 16128.1 1921.23 16128.2 1922.49 16132.3C1923.25 16134.8 1925.43 16136.8 1927.31 16136.8ZM2467.34 16156.8C2487.99 16177.2 2494.78 16192.2 2496.29 16220.8C2496.93 16233.1 2497.25 16243.1 2497 16243.1C2496.75 16243.1 2492.12 16240.2 2486.72 16236.6C2481.31 16233 2446.69 16214.7 2409.78 16196C2343.03 16162.1 2342.71 16162 2351.51 16160.1C2406.74 16148.7 2437.22 16143 2444.31 16142.8C2451.89 16142.6 2454.51 16144.2 2467.34 16156.8ZM1665.07 16236.8C1665.52 16241.5 1665.07 16245.4 1664.06 16245.4C1663.06 16245.4 1662.35 16240 1662.5 16233.4C1662.78 16220.9 1663.67 16222.1 1665.07 16236.8ZM2628.43 16319.1C2624.67 16329.4 2614.9 16357.5 2606.71 16381.3C2584.57 16445.9 2560.65 16509.6 2552.15 16526.6C2542.07 16546.8 2531.34 16556.2 2518.26 16556.2C2506.43 16556.2 2496.27 16547.8 2496.4 16538.1C2496.62 16521.4 2520.16 16427.1 2547.05 16335.2L2556.53 16302.9L2580.7 16304C2593.99 16304.7 2608.97 16304.2 2614 16302.9C2619.03 16301.7 2625.87 16300.6 2629.2 16300.4L2635.25 16300.2L2628.43 16319.1Z" stroke="#FF9238" stroke-width="10"/>
</svg>
