<svg width="5525" height="16218" viewBox="0 0 5525 16218" fill="none" xmlns="http://www.w3.org/2000/svg">
<g id="Group 1">
<g id="Camera_SVG" clip-path="url(#clip0_2_30)">
<path id="Vector" fill-rule="evenodd" clip-rule="evenodd" d="M1756.82 8114.55C1732.62 8116.59 1719.17 8118.29 1715.98 8119.69C1708.91 8122.79 1697.71 8132.7 1693.97 8139.17C1692.15 8142.3 1690.09 8144.9 1689.38 8144.94C1688.67 8144.99 1688.46 8145.54 1688.91 8146.16C1690.08 8147.81 1681.72 8163.26 1676.11 8169.78C1667.19 8180.18 1660.53 8183.2 1640.58 8185.92C1629.4 8187.44 1627.48 8186.74 1626.63 8180.85C1625.87 8175.59 1620.67 8170.54 1614.89 8169.47C1608.14 8168.22 1565.53 8172.9 1560.4 8175.45C1554.4 8178.43 1550.53 8183.66 1550.47 8188.84C1550.39 8195.79 1549.56 8196.82 1543.95 8196.85C1541.07 8196.87 1537.71 8197.38 1536.49 8197.99C1535.26 8198.6 1533.4 8199.01 1532.36 8198.91C1531.31 8198.8 1529.24 8199.29 1527.75 8200C1526.26 8200.7 1523.16 8202.16 1520.87 8203.24C1515.02 8205.99 1507.47 8213.8 1503.96 8220.74C1499.18 8230.17 1496.73 8245.94 1496.98 8265.73C1497.28 8289.68 1505.33 8418.79 1507.16 8429.01C1510.13 8445.53 1517.26 8460.48 1523.53 8463.34C1525.29 8464.14 1526.39 8465.44 1525.96 8466.24C1525.53 8467.03 1525.74 8467.28 1526.43 8466.8C1527.58 8465.99 1541.64 8469.13 1543.27 8470.56C1543.66 8470.9 1579.62 8468.75 1623.17 8465.77C1666.72 8462.79 1702.38 8460.84 1702.41 8461.45C1702.45 8462.06 1701.35 8464.49 1699.97 8466.87C1696.55 8472.78 1697.34 8485.32 1701.58 8492.46C1706.81 8501.26 1710.57 8502.14 1738.16 8501.03L1762.29 8500.07L1762.03 8506.54C1761.46 8520.83 1760.77 8526.96 1759.57 8528.31C1758.88 8529.09 1758.28 8529.25 1758.24 8528.66C1758.21 8528.07 1757.26 8528.63 1756.13 8529.9C1755 8531.17 1752.53 8532.3 1750.64 8532.42C1742.15 8532.94 1735.02 8540.91 1733.27 8551.82C1732.71 8555.29 1733.01 8571.13 1733.94 8587.02C1735.46 8613.09 1736.92 8623.11 1739.8 8627.15C1740.33 8627.91 1740.01 8628.89 1739.07 8629.33C1737.98 8629.85 1738.18 8630.13 1739.64 8630.11C1740.89 8630.09 1742.78 8631.01 1743.86 8632.14C1744.93 8633.27 1748.22 8635.24 1751.16 8636.52C1762.29 8641.32 1815.11 8638.32 1825.78 8632.28C1832.84 8628.28 1836.21 8621.72 1836.69 8611.02C1836.96 8604.88 1837.61 8602.31 1838.73 8602.88C1839.85 8603.46 1839.81 8603.13 1838.6 8601.81C1837.56 8600.68 1836.26 8593.75 1835.46 8585.08L1834.09 8570.28L1837.73 8570.05C1841.29 8569.84 1841.42 8570.11 1843.07 8581.03C1844 8587.2 1845.48 8593.82 1846.36 8595.75C1847.24 8597.68 1848.02 8599.56 1848.1 8599.94C1848.18 8600.32 1850.24 8601.91 1852.68 8603.47C1858.61 8607.28 1868.69 8606.76 1873.61 8602.41C1880.23 8596.53 1881.13 8592.16 1879.75 8572.58L1878.49 8554.67L1873.59 8549.05C1870.9 8545.96 1868.38 8543.46 1868 8543.51C1861.34 8544.27 1856.82 8543.66 1857.61 8542.12C1858.11 8541.14 1857.33 8541.5 1855.88 8542.92C1854.44 8544.35 1852.63 8545.55 1851.87 8545.6C1849.9 8545.72 1845.51 8551.43 1843.11 8556.97C1841.45 8560.81 1840.37 8561.66 1837.3 8561.5C1833.69 8561.31 1833.46 8560.86 1831.84 8551C1830.91 8545.33 1830 8539.91 1829.81 8538.94C1829.14 8535.52 1816.99 8527.12 1810.88 8525.87C1807.5 8525.17 1803.98 8524.44 1803.06 8524.25C1800.96 8523.81 1798.87 8514.24 1798.89 8505.16L1798.9 8498.22L1819 8496.15C1830.06 8495.02 1840.62 8493.25 1842.48 8492.22C1848.76 8488.74 1852.05 8486.28 1852.05 8485.06C1852.05 8484.39 1852.54 8482.27 1853.15 8480.35C1854.36 8476.48 1852.78 8456.6 1851.34 8457.61C1850.85 8457.96 1850.05 8457.06 1849.57 8455.62C1848.76 8453.16 1849.53 8452.93 1861.4 8452.18C1869.9 8451.65 1873.44 8451.85 1872.1 8452.81C1871 8453.6 1870.76 8454.22 1871.56 8454.18C1872.37 8454.14 1873.62 8453.44 1874.35 8452.62C1875.09 8451.79 1889.33 8449.75 1906.78 8447.99C1943.19 8444.32 1947.38 8443 1957.13 8432.2C1967.19 8421.06 1968.72 8414.2 1968.31 8382.33C1967.91 8351.68 1959.41 8221.34 1957.76 8220.46C1957.14 8220.13 1956.52 8217.97 1956.37 8215.65C1956.04 8210.39 1951.4 8196.08 1948.42 8191.12C1947.19 8189.08 1946.19 8187.06 1946.2 8186.65C1946.24 8184.97 1931.84 8175.14 1926.42 8173.15C1920.1 8170.82 1905.09 8167.47 1901.75 8167.64C1900.6 8167.7 1891.46 8167.05 1881.43 8166.2C1871.4 8165.35 1861.06 8164.48 1858.44 8164.26C1855.83 8164.05 1853.05 8163.53 1852.27 8163.11C1851.49 8162.7 1847.71 8156.55 1843.87 8149.45C1836.76 8136.3 1825.11 8119.92 1822.97 8120.05C1822.31 8120.09 1820.05 8119.05 1817.93 8117.75C1814.42 8115.58 1808.68 8114.04 1797.13 8112.18C1794.81 8111.81 1776.67 8112.87 1756.82 8114.55ZM1810.03 8123.4C1819.44 8127.31 1827.04 8135.42 1834.75 8149.82C1839.92 8159.48 1840.8 8161.97 1838.88 8161.51C1835.09 8160.6 1806.65 8159.91 1797.09 8160.5C1792.36 8160.79 1788.06 8160.43 1787.54 8159.7C1786.96 8158.87 1785.72 8158.89 1784.32 8159.74C1783.07 8160.5 1775.32 8161.63 1767.1 8162.25C1751.76 8163.41 1731.4 8165.66 1726.7 8166.72C1723.66 8167.41 1722.88 8171.26 1725.42 8173.1C1727.68 8174.75 1738.53 8174.32 1758.85 8171.78C1774.11 8169.87 1775.48 8169.9 1777.55 8172.23C1779.46 8174.38 1779.64 8174.4 1778.8 8172.38C1777.89 8170.2 1779.25 8169.93 1795.49 8168.97C1815.89 8167.76 1841.39 8169.19 1844.21 8171.7C1847.12 8174.3 1859.17 8199.86 1858.27 8201.53C1857.83 8202.33 1858.11 8202.54 1858.88 8202C1859.65 8201.46 1860.73 8202.4 1861.27 8204.1C1861.81 8205.8 1864.61 8209.6 1867.48 8212.55C1870.35 8215.49 1872.28 8218.37 1871.77 8218.95C1871.25 8219.53 1871.45 8219.78 1872.2 8219.52C1872.95 8219.25 1875.83 8220.11 1878.6 8221.43C1883.19 8223.63 1886.46 8223.66 1916.25 8221.82L1948.87 8219.81L1950.16 8225.28C1950.87 8228.29 1953.76 8269.63 1956.58 8317.15C1962.34 8414.01 1962.39 8412.67 1952.93 8424.51C1948.18 8430.46 1937.81 8437.08 1935.33 8435.76C1934.61 8435.38 1933.81 8435.86 1933.55 8436.84C1933.19 8438.2 1922.05 8439.45 1885.98 8442.21C1860.08 8444.19 1838.68 8445.73 1838.43 8445.63C1838.18 8445.53 1841.8 8443.21 1846.48 8440.48C1875.97 8423.24 1896.38 8395.32 1904.1 8361.66C1905.48 8355.66 1906.94 8350.73 1907.34 8350.71C1907.74 8350.68 1909.21 8351.57 1910.61 8352.68C1912.54 8354.21 1913.37 8354.27 1914.09 8352.94C1914.67 8351.87 1914.47 8351.59 1913.58 8352.21C1912.78 8352.78 1911.73 8352.68 1911.25 8352C1910.77 8351.32 1913.01 8350.16 1916.23 8349.43C1923.22 8347.82 1927.95 8345.2 1931.25 8341.08C1932.59 8339.42 1934.35 8338.4 1935.16 8338.83C1935.99 8339.28 1936.17 8338.96 1935.56 8338.11C1934.97 8337.28 1935.18 8335.14 1936.03 8333.36C1936.88 8331.57 1937.34 8329.04 1937.05 8327.72C1936.76 8326.4 1937.04 8325.29 1937.67 8325.25C1939.34 8325.15 1935.87 8300.18 1933.7 8296.68C1932.68 8295.04 1932.19 8293.68 1932.62 8293.65C1933.05 8293.63 1931.29 8291.57 1928.72 8289.09C1923.21 8283.77 1916.96 8281.85 1907.38 8282.51C1901.12 8282.95 1900.28 8282.64 1898.73 8279.36C1897.79 8277.36 1895.63 8273.01 1893.93 8269.68C1892.24 8266.35 1891.02 8263.29 1891.22 8262.87C1891.43 8262.46 1890.73 8261.26 1889.67 8260.19C1888.61 8259.13 1885.2 8254.86 1882.1 8250.68C1875.88 8242.32 1859.23 8224.87 1857.45 8224.84C1856.83 8224.83 1853.41 8222.89 1849.85 8220.52C1846.29 8218.15 1839.19 8214.37 1834.05 8212.13C1827.78 8209.38 1824.93 8207.4 1825.34 8206.08C1825.84 8204.47 1825.59 8204.45 1823.95 8205.99C1822.33 8207.5 1821.92 8207.52 1821.83 8206.08C1821.77 8205.1 1821.37 8204.69 1820.95 8205.17C1820.52 8205.64 1817.52 8205.27 1814.27 8204.33C1802.96 8201.08 1782.93 8198.87 1771.1 8199.58C1750.88 8200.79 1733.92 8206.07 1714.74 8217.12C1709 8220.43 1704.02 8223.17 1703.67 8223.23C1702.35 8223.42 1692.69 8233.15 1682.51 8244.54C1667.55 8261.27 1658.96 8277.37 1654.51 8296.97C1653.2 8302.76 1651.85 8308.45 1651.51 8309.61C1651.17 8310.78 1650.8 8314.54 1650.69 8317.99C1650.58 8321.43 1650.28 8329.45 1650.04 8335.82C1649.79 8342.2 1650.21 8349.04 1650.97 8351.03C1654.16 8359.41 1656.33 8372.24 1654.89 8374.2C1653.78 8375.71 1653.92 8375.94 1655.51 8375.21C1657.03 8374.53 1657.89 8375.5 1658.74 8378.86C1660.34 8385.17 1669.44 8401.07 1677.15 8411.03C1689.39 8426.85 1710.03 8442.04 1728.25 8448.65L1737.65 8452.06L1679.14 8455.31C1646.95 8457.09 1616.63 8458.44 1611.76 8458.3L1602.9 8458.04L1605.55 8454.86C1611.86 8447.29 1611.88 8441.46 1605.93 8346.18L1600.39 8257.38L1606.92 8252.53C1614.86 8246.63 1617.49 8240.7 1616.83 8230.17C1616.36 8222.56 1612.1 8212.89 1608.29 8210.8C1607.49 8210.36 1608.14 8209.5 1609.73 8208.89C1611.32 8208.27 1613.38 8208.18 1614.3 8208.67C1615.26 8209.18 1615.57 8208.99 1615.03 8208.22C1614.09 8206.9 1620.3 8202.57 1622.56 8202.97C1623.21 8203.08 1623.35 8202.64 1622.89 8201.99C1622.42 8201.34 1623.15 8199.68 1624.51 8198.29C1626.31 8196.46 1630.28 8195.41 1639.23 8194.42C1652.02 8192.99 1664.42 8189.8 1669.58 8186.6C1671.24 8185.57 1672.62 8185.12 1672.65 8185.6C1672.68 8186.08 1676.76 8181.95 1681.71 8176.42C1686.66 8170.89 1690.62 8166.06 1690.51 8165.69C1689.78 8163.11 1701.99 8141.81 1707.25 8136.48C1717.83 8125.77 1721.07 8125 1765 8122.63C1801.94 8120.65 1803.47 8120.67 1810.03 8123.4ZM1827.93 8145.53C1828.09 8147.14 1828.44 8147.44 1828.82 8146.31C1829.16 8145.29 1829.03 8144.1 1828.54 8143.67C1828.05 8143.24 1827.78 8144.08 1827.93 8145.53ZM1615.27 8179C1618.02 8180.94 1619.87 8184.97 1618.46 8185.96C1616.17 8187.58 1558.66 8192.25 1558.57 8190.83C1558.52 8190.05 1559.57 8187.87 1560.91 8186C1563.79 8181.98 1570.79 8180.53 1596.26 8178.64C1607.85 8177.79 1613.7 8177.9 1615.27 8179ZM1859.76 8172.93C1859.44 8173.52 1862.33 8173.93 1866.17 8173.84C1870.01 8173.74 1874.2 8174.01 1875.48 8174.43C1876.76 8174.85 1880.63 8175.21 1884.09 8175.23C1887.54 8175.26 1892.58 8175.52 1895.28 8175.82C1897.99 8176.12 1902.72 8176.53 1905.81 8176.72C1922.18 8177.76 1936.24 8186.55 1943.6 8200.35C1945.86 8204.58 1947.34 8208.74 1946.89 8209.58C1946.44 8210.42 1942.22 8211.37 1937.51 8211.69C1932.8 8212.01 1919.95 8213.03 1908.94 8213.96C1896.79 8214.97 1887.49 8215.14 1885.25 8214.37C1883.22 8213.68 1881.15 8213.22 1880.65 8213.35C1877.59 8214.16 1861.78 8192.65 1863.32 8189.78C1863.7 8189.08 1863.45 8188.34 1862.78 8188.13C1862.11 8187.91 1860 8184.24 1858.1 8179.97L1854.64 8172.21L1857.48 8172.03C1859.04 8171.94 1860.07 8172.34 1859.76 8172.93ZM1616.1 8196.11C1616.12 8196.36 1614.37 8197.62 1612.21 8198.9C1607.59 8201.65 1592.08 8204.76 1593.18 8202.72C1593.61 8201.93 1591.92 8201.72 1589.12 8202.22C1586.48 8202.69 1580.39 8202.47 1575.58 8201.73L1566.84 8200.37L1581.38 8198.67C1597.62 8196.78 1616.06 8195.42 1616.1 8196.11ZM1556.73 8206.08C1556.79 8206.97 1557.17 8207.31 1557.59 8206.84C1558.01 8206.37 1560.38 8206.68 1562.86 8207.52C1565.35 8208.36 1571.96 8209.51 1577.56 8210.08C1583.16 8210.66 1587.77 8211.67 1587.82 8212.34C1587.86 8213.01 1588.81 8213.14 1589.93 8212.63C1591.05 8212.12 1592.01 8212.42 1592.06 8213.3C1592.12 8214.17 1592.94 8214.74 1593.88 8214.55C1597.71 8213.82 1599.37 8214.42 1598.77 8216.32C1598.42 8217.43 1599.09 8218.63 1600.25 8218.99C1601.66 8219.43 1602 8219.1 1601.26 8218C1600.65 8217.1 1601.48 8217.37 1603.1 8218.62C1607.64 8222.1 1610.4 8230.81 1608.84 8236.71C1607.68 8241.1 1603.52 8245.98 1600.78 8246.14C1600.18 8246.18 1599.61 8244.79 1599.5 8243.06C1599.2 8238.19 1595.36 8234.44 1588.48 8232.3C1583.45 8230.74 1579.08 8230.67 1566.78 8231.96C1558.3 8232.85 1551 8233.98 1550.56 8234.48C1550.11 8234.98 1548.74 8234.68 1547.51 8233.81C1545.63 8232.47 1545.46 8232.62 1546.42 8234.75C1547.32 8236.76 1547.01 8237.17 1544.89 8236.76C1542.83 8236.35 1542.42 8236.82 1543.06 8238.78C1543.53 8240.18 1543.36 8241.36 1542.7 8241.41C1542.04 8241.45 1541.62 8243.95 1541.77 8246.96C1541.93 8249.98 1542.31 8252.16 1542.62 8251.8C1542.93 8251.45 1545.05 8252.54 1547.33 8254.21C1552.82 8258.26 1562.76 8259.59 1579.65 8258.55L1593.52 8257.69L1598.52 8345.14C1601.27 8393.23 1603.26 8435.33 1602.95 8438.69C1602.29 8445.83 1597.59 8453.45 1591.52 8457.26C1587.94 8459.5 1583.54 8460.18 1565.1 8461.32C1549.19 8462.3 1542.79 8462.23 1542.32 8461.07C1541.96 8460.18 1540.89 8459.8 1539.95 8460.23C1536.47 8461.81 1524.14 8453.01 1520.08 8446.06L1516.17 8439.36L1510.44 8347.45C1507.29 8296.9 1504.98 8253.03 1505.3 8249.95C1505.62 8246.88 1506.11 8241.96 1506.38 8239.01C1507.29 8229.3 1514.38 8216.83 1521.43 8212.53C1530.27 8207.15 1556.5 8202.36 1556.73 8206.08ZM1797.84 8209.07C1818.31 8212.95 1838.93 8221.85 1852.65 8232.72C1855.95 8235.33 1858.38 8237.97 1858.05 8238.59C1857.72 8239.2 1858.64 8239.94 1860.1 8240.22C1864.22 8241.03 1875.9 8254.94 1883.62 8268.23C1891.02 8280.97 1895.17 8291.81 1896.76 8302.5C1897.29 8306.07 1898.29 8310.17 1898.99 8311.61C1900.9 8315.61 1899.31 8344.87 1896.44 8358.32C1893.87 8370.39 1888.36 8385.02 1885.61 8387.06C1884.79 8387.67 1884.66 8388.15 1885.33 8388.12C1887.11 8388.04 1880.42 8397.79 1872.55 8406.74C1868.76 8411.04 1865.02 8414.23 1864.25 8413.82C1863.48 8413.41 1862.44 8413.82 1861.94 8414.75C1861.37 8415.8 1861.61 8416.02 1862.58 8415.34C1863.43 8414.75 1864.16 8414.89 1864.21 8415.65C1864.33 8417.6 1849.3 8429.43 1839.56 8435.07C1830.38 8440.37 1812.07 8447.52 1810.71 8446.33C1810.22 8445.9 1809 8446.31 1808 8447.25C1805.62 8449.48 1777.82 8451.13 1766.32 8449.72C1751.68 8447.93 1731.12 8441.99 1728.59 8438.81C1727.98 8438.05 1727.5 8437.91 1727.52 8438.5C1727.55 8439.09 1725.61 8438.71 1723.22 8437.66C1720.69 8436.55 1719.23 8435.08 1719.73 8434.16C1720.26 8433.17 1719.98 8432.99 1718.99 8433.69C1716.37 8435.53 1688.33 8414.41 1688.08 8410.42C1688.02 8409.44 1687.35 8408.68 1686.6 8408.73C1683.02 8408.95 1669.76 8386.61 1664.73 8371.87C1660.83 8360.45 1655.77 8320.45 1658.21 8320.3C1658.88 8320.26 1659.43 8318.82 1659.44 8317.1C1659.47 8305.7 1664.67 8287.29 1671.5 8274.39C1687.62 8243.92 1716.19 8220.27 1747.5 8211.48C1759.9 8208 1785.67 8206.77 1797.84 8209.07ZM1758.15 8225.31C1736.73 8229.73 1716.28 8241.87 1700.96 8259.27C1678.55 8284.72 1670.72 8309.66 1674.54 8343.46C1677.26 8367.54 1684.91 8385.61 1699.15 8401.56C1702.96 8405.82 1705.72 8409.96 1705.29 8410.76C1704.85 8411.56 1705.14 8411.76 1705.93 8411.21C1706.71 8410.66 1710.22 8412.55 1713.73 8415.41C1737.19 8434.53 1775.63 8442.21 1806.75 8433.99C1829.31 8428.04 1852.05 8412.36 1865.06 8393.8C1872.94 8382.54 1881.38 8362.09 1883.37 8349.41C1885.55 8335.53 1883.99 8311.49 1880.11 8299.01C1876.26 8286.64 1868.04 8272.17 1858.72 8261.38C1854.61 8256.63 1851.18 8252.31 1851.09 8251.78C1850.82 8250.24 1835.19 8239.9 1824.67 8234.31C1805.39 8224.07 1780.48 8220.7 1758.15 8225.31ZM1589.58 8242.54C1593.71 8246.72 1593.58 8247.47 1588.52 8248.81C1577.9 8251.61 1553.3 8250.34 1551.73 8246.91C1549.99 8243.13 1558.48 8240.5 1574.42 8239.87C1585.25 8239.44 1586.8 8239.72 1589.58 8242.54ZM1796.63 8232.73C1799.94 8233.5 1802.69 8234.69 1802.73 8235.37C1802.77 8236.06 1803.38 8236.21 1804.09 8235.71C1805.81 8234.51 1821.77 8241.41 1825.59 8245.01C1827.26 8246.59 1829.73 8247.96 1831.08 8248.06C1836.05 8248.42 1854.33 8267.3 1861.9 8279.9C1865.91 8286.58 1868.85 8292.68 1868.43 8293.47C1868.01 8294.25 1868.25 8294.85 1868.97 8294.8C1871.73 8294.63 1876.75 8319.04 1876.64 8332.05C1876.58 8338.91 1876.14 8345.25 1875.66 8346.14C1875.18 8347.02 1874.73 8349.02 1874.66 8350.59C1874.42 8355.44 1869.58 8369.69 1868.14 8369.78C1867.38 8369.82 1867.15 8370.4 1867.61 8371.05C1869.08 8373.11 1858.93 8388.71 1849.64 8398.67C1839.97 8409.03 1827.4 8417.36 1812.37 8423.38C1804.63 8426.47 1799.83 8427.38 1786.86 8428.19C1762.05 8429.75 1742.83 8424.92 1724.26 8412.47C1714.73 8406.08 1700.69 8392.71 1701.65 8390.93C1702.01 8390.27 1701.6 8389.77 1700.75 8389.82C1698.58 8389.95 1689.36 8372.28 1685.84 8361.24C1682.56 8350.98 1680.99 8330.37 1682.44 8316.72C1686.25 8280.74 1714.91 8247.3 1752.12 8235.4C1764.13 8231.56 1785.98 8230.25 1796.63 8232.73ZM1589.44 8260.72C1588.24 8261.6 1588.1 8262.15 1589.1 8262.11C1590.01 8262.06 1591.1 8261.38 1591.52 8260.59C1592.48 8258.81 1592 8258.84 1589.44 8260.72ZM1776.77 8254.06C1775.35 8255.27 1771.35 8256.45 1767.86 8256.68C1751.46 8257.78 1737.78 8265.14 1724.44 8280.06C1718.97 8286.16 1713.09 8294.43 1711.36 8298.44C1707.29 8307.85 1702.84 8329.34 1703.69 8335.53C1704.85 8344.02 1708.66 8357.78 1711.7 8364.45C1713.32 8368.01 1714.24 8370.96 1713.74 8371C1713.24 8371.04 1713.49 8371.5 1714.29 8372.01C1716.34 8373.31 1724.88 8383.44 1723.16 8382.52C1722.38 8382.11 1721.73 8383.13 1721.71 8384.79C1721.68 8387.06 1721.94 8387.3 1722.78 8385.74C1723.66 8384.1 1725.2 8384.75 1730.43 8388.99C1739.53 8396.34 1747.83 8400.65 1760.05 8404.36C1769.63 8407.27 1771.82 8407.42 1785.97 8406.09C1802.14 8404.57 1806.5 8403.87 1807.59 8402.65C1807.94 8402.25 1812.43 8399.47 1817.56 8396.48C1833.16 8387.4 1844.87 8372.41 1850.27 8354.63C1853.92 8342.59 1854.02 8320.34 1850.48 8308.63C1849.19 8304.41 1848.07 8300.64 1847.98 8300.26C1847.9 8299.89 1845.41 8295.72 1842.47 8291C1836.21 8280.98 1816.11 8262.3 1810.54 8261.33C1809.81 8261.21 1804.87 8259.79 1799.55 8258.2C1794.24 8256.59 1787.35 8255.44 1784.25 8255.63C1779.8 8255.91 1778.74 8255.53 1779.27 8253.86C1780.08 8251.29 1780 8251.3 1776.77 8254.06ZM1786.52 8263.85C1796.03 8265.04 1810.79 8270.77 1817.33 8275.8C1820.08 8277.92 1822.09 8279.66 1821.8 8279.68C1821.51 8279.7 1823.67 8281.93 1826.6 8284.64C1835.27 8292.68 1845.52 8313.61 1843.66 8319.49C1843.33 8320.53 1843.74 8321.34 1844.57 8321.28C1845.57 8321.22 1845.88 8323.36 1845.5 8327.71C1845.19 8331.29 1844.91 8336.57 1844.88 8339.44C1844.86 8342.31 1843.61 8348.37 1842.11 8352.9C1828.46 8394.2 1783.47 8411.02 1745.3 8389.1C1736.21 8383.89 1729.13 8378.36 1731.35 8378.22C1731.94 8378.18 1731.05 8377.14 1729.38 8375.91C1725.45 8373.02 1717.27 8358.71 1715.66 8351.92C1711.08 8332.63 1711.76 8319.38 1718.12 8304.2C1722.19 8294.45 1736.46 8276.62 1740.38 8276.38C1741.54 8276.31 1742.46 8275.7 1742.42 8275.03C1742.37 8274.35 1745.84 8272.13 1750.12 8270.09C1762.6 8264.14 1773.67 8262.24 1786.52 8263.85ZM1716.95 8280.6C1717.47 8281.33 1718.17 8281.91 1718.51 8281.89C1718.85 8281.87 1719.08 8281.23 1719.04 8280.47C1718.99 8279.71 1718.29 8279.13 1717.48 8279.18C1716.67 8279.23 1716.43 8279.87 1716.95 8280.6ZM1919.34 8292.96C1925.66 8296.76 1928.38 8303.1 1928.98 8315.38C1929.59 8328.06 1927.82 8333.96 1922.24 8337.71C1918.12 8340.49 1906.28 8342.03 1907.58 8339.62C1908.63 8337.68 1906.96 8302.28 1905.8 8301.91C1905.28 8301.74 1904.24 8298.95 1903.49 8295.69L1902.11 8289.77L1908.91 8290.27C1912.65 8290.55 1917.34 8291.76 1919.34 8292.96ZM1873.01 8331.44C1873.18 8333.04 1873.53 8333.35 1873.91 8332.22C1874.25 8331.2 1874.12 8330.01 1873.63 8329.58C1873.14 8329.15 1872.86 8329.98 1873.01 8331.44ZM1839.39 8351.55C1839.56 8353.15 1839.91 8353.46 1840.28 8352.33C1840.62 8351.31 1840.49 8350.12 1840 8349.69C1839.51 8349.26 1839.24 8350.1 1839.39 8351.55ZM1699.03 8407.12C1699.05 8407.42 1700.06 8407.97 1701.28 8408.35C1702.54 8408.75 1703.09 8408.48 1702.55 8407.73C1701.65 8406.46 1698.96 8406 1699.03 8407.12ZM1756.89 8438.08C1757.23 8438.28 1758.66 8439.21 1760.08 8440.16C1762.32 8441.66 1762.53 8441.6 1761.64 8439.67C1761.08 8438.46 1759.65 8437.52 1758.46 8437.59C1757.27 8437.67 1756.56 8437.89 1756.89 8438.08ZM1655.84 8452.79C1655.86 8453.09 1656.87 8453.65 1658.08 8454.03C1659.35 8454.42 1659.89 8454.16 1659.36 8453.4C1658.46 8452.14 1655.77 8451.67 1655.84 8452.79ZM1783.24 8459.64C1798.51 8458.87 1807.58 8458.88 1805.56 8459.66C1803.2 8460.58 1805.13 8460.78 1811.88 8460.31C1820.48 8459.72 1820.87 8459.58 1815.3 8459.13C1809.1 8458.64 1809.18 8458.6 1819.34 8456.89C1835.1 8454.24 1838.8 8454.72 1842.81 8459.92C1848.99 8467.96 1846.92 8479.96 1838.56 8484.56C1833.96 8487.09 1815.18 8488.92 1758.68 8492.34C1715.88 8494.94 1710.13 8493.93 1706.43 8483.25C1705.39 8480.23 1705.27 8477.28 1706.1 8474.62C1707.62 8469.68 1713.59 8463.6 1716.13 8464.39C1717.15 8464.71 1719.36 8464.33 1721.04 8463.55C1722.72 8462.76 1731.61 8461.85 1740.8 8461.53C1749.99 8461.21 1769.08 8460.35 1783.24 8459.64ZM1881.63 8453.14C1882.66 8453.48 1883.86 8453.35 1884.29 8452.86C1884.72 8452.38 1883.88 8452.1 1882.42 8452.25C1880.81 8452.42 1880.5 8452.77 1881.63 8453.14ZM1834.75 8457.86C1834.8 8458.62 1836.12 8459.16 1837.7 8459.06C1839.27 8458.97 1840.13 8458.29 1839.61 8457.56C1839.09 8456.83 1837.77 8456.28 1836.67 8456.35C1835.56 8456.42 1834.7 8457.1 1834.75 8457.86ZM1740.67 8464.62C1742.04 8464.89 1743.92 8464.75 1744.84 8464.32C1745.75 8463.88 1744.63 8463.66 1742.34 8463.83C1740.05 8464 1739.3 8464.36 1740.67 8464.62ZM1791.76 8511.5C1792.94 8524.07 1792.91 8524.26 1789.71 8524.46C1787.92 8524.57 1785.57 8523.94 1784.48 8523.05C1783.32 8522.1 1782.9 8522.06 1783.48 8522.95C1784.6 8524.69 1780.44 8526.37 1773.98 8526.8L1769.62 8527.09L1769.51 8514.95C1769.45 8508.28 1769.57 8502.13 1769.77 8501.28C1769.99 8500.34 1774.07 8499.55 1780.35 8499.24L1790.56 8498.74L1791.76 8511.5ZM1802.32 8519.44C1802.52 8522.77 1803.32 8523.06 1804.24 8520.14C1804.6 8519 1804.28 8517.73 1803.52 8517.33C1802.76 8516.92 1802.22 8517.87 1802.32 8519.44ZM1809.14 8533.82C1811.78 8534.43 1812.73 8536.91 1810.39 8537.06C1809.63 8537.1 1808.96 8536.52 1808.92 8535.76C1808.87 8535 1808.2 8534.42 1807.44 8534.46C1806.68 8534.51 1806.09 8535.13 1806.13 8535.84C1806.26 8537.9 1811.85 8538.73 1813.73 8536.97C1815.58 8535.24 1818.4 8537.31 1821.74 8542.86C1823.96 8546.55 1824.5 8554.22 1822.55 8554.34C1821.74 8554.39 1821.47 8553.63 1821.95 8552.65C1822.55 8551.42 1822.38 8551.32 1821.41 8552.33C1820.64 8553.14 1819.69 8555.54 1819.3 8557.67C1818.43 8562.42 1821.27 8562.8 1822.83 8558.14C1823.41 8556.39 1823.97 8555.68 1824.08 8556.56C1824.18 8557.45 1824.7 8559.12 1825.23 8560.28C1826.09 8562.13 1823.3 8562.56 1801.46 8563.9C1776.37 8565.43 1769.7 8565.23 1770.93 8562.95C1771.3 8562.25 1770.73 8562.08 1769.65 8562.57C1767.53 8563.54 1762.51 8558.39 1763.6 8556.37C1763.96 8555.71 1763.58 8555.21 1762.78 8555.26C1760.89 8555.37 1760.26 8546.15 1762.07 8544.88C1762.82 8544.35 1763.05 8543.39 1762.58 8542.74C1761.19 8540.78 1766.78 8535.59 1770.52 8535.36C1772.43 8535.24 1774.03 8535.76 1774.08 8536.52C1774.13 8537.28 1775.26 8537.79 1776.59 8537.65C1778.28 8537.47 1778.43 8537.2 1777.08 8536.75C1769.79 8534.38 1799.68 8531.65 1809.14 8533.82ZM1783.61 8536.88C1784.64 8537.22 1785.83 8537.1 1786.27 8536.61C1786.7 8536.12 1785.86 8535.85 1784.4 8536C1782.78 8536.16 1782.47 8536.51 1783.61 8536.88ZM1752.85 8550.24C1753.82 8558.41 1754.66 8560.53 1758.57 8564.8C1766.75 8573.72 1768.81 8574.07 1801.73 8572.17L1826.37 8570.76L1827.53 8594.39L1828.7 8618.02L1824.54 8622.2C1819.18 8627.59 1809.18 8629.37 1780.3 8630.11C1757.12 8630.69 1750.01 8629.2 1746.47 8623C1745.21 8620.81 1743.96 8609.12 1742.53 8586.27C1740.74 8557.66 1740.73 8552.05 1742.47 8547.98C1743.8 8544.86 1745.37 8543.29 1746.96 8543.46C1748.31 8543.6 1749.38 8543.07 1749.33 8542.27C1749.28 8541.48 1749.79 8540.8 1750.47 8540.75C1751.15 8540.71 1752.22 8544.98 1752.85 8550.24ZM1818.25 8545.59C1818.37 8547.46 1818.99 8548.63 1819.63 8548.17C1820.27 8547.72 1820.75 8546.49 1820.68 8545.44C1820.62 8544.39 1819.99 8543.23 1819.3 8542.86C1818.61 8542.49 1818.13 8543.72 1818.25 8545.59ZM1841.09 8549.13C1840.63 8549.97 1840.66 8551.01 1841.15 8551.44C1841.63 8551.87 1841.99 8551.54 1841.94 8550.71C1841.89 8549.87 1842.92 8548.84 1844.24 8548.41C1846.4 8547.71 1846.4 8547.63 1844.27 8547.61C1842.97 8547.61 1841.54 8548.29 1841.09 8549.13ZM1867.95 8555.81C1871.52 8559.54 1871.87 8560.84 1872.64 8573.21C1873.74 8590.93 1871.74 8596.22 1863.53 8597.28C1857.72 8598.04 1854.6 8596.31 1853.12 8591.51C1851.6 8586.57 1849.72 8567.57 1850.3 8562.93C1851.63 8552.29 1860.96 8548.52 1867.95 8555.81ZM1834.72 8559.27C1834.33 8559.99 1835.62 8560.47 1837.58 8560.35C1841.83 8560.09 1842.13 8559.28 1838.24 8558.52C1836.69 8558.22 1835.1 8558.56 1834.72 8559.27ZM1843.63 8600.22C1843.68 8600.98 1844.35 8601.56 1845.11 8601.51C1845.87 8601.46 1846.46 8600.8 1846.41 8600.04C1846.37 8599.28 1845.7 8598.7 1844.94 8598.75C1844.17 8598.79 1843.59 8599.46 1843.63 8600.22ZM1734.36 8626.4C1734.89 8627.15 1735.88 8627.36 1736.56 8626.88C1738.42 8625.58 1738.01 8624.77 1735.57 8624.92C1734.37 8624.99 1733.83 8625.66 1734.36 8626.4ZM1730.7 8646.26C1723.83 8651.54 1721.36 8658.12 1722.72 8667.51C1723.34 8671.76 1724.91 8676.66 1726.21 8678.39C1727.51 8680.12 1728.49 8682.52 1728.39 8683.71C1727.94 8689.01 1718.96 8711.83 1717.61 8711.11C1716.75 8710.65 1716.59 8710.98 1717.24 8711.88C1718.21 8713.26 1691.87 8790.96 1689.79 8792.85C1689.34 8793.26 1688.82 8794.54 1688.65 8795.69C1688.21 8798.58 1679.25 8825.31 1677.52 8828.92C1676.74 8830.53 1676.09 8832.16 1676.08 8832.54C1676 8834.69 1670.16 8850.39 1669.16 8851.16C1668.5 8851.67 1668.05 8852.48 1668.16 8852.96C1668.58 8854.8 1667.01 8860.85 1666.11 8860.91C1665.59 8860.94 1665.14 8862.06 1665.11 8863.4C1665.08 8864.73 1661.61 8875.41 1657.41 8887.11C1644.82 8922.17 1639.9 8936.13 1636.43 8946.68C1629.45 8967.89 1623.01 8985.01 1621.6 8986.07C1620.79 8986.68 1620.57 8987.16 1621.11 8987.14C1622.09 8987.1 1614.17 9011.25 1612.74 9012.65C1612.33 9013.06 1611.87 9014.25 1611.71 9015.29C1611.1 9019.43 1595.68 9061.6 1594.59 9062.11C1593.95 9062.4 1593.81 9063.19 1594.29 9063.86C1594.76 9064.53 1594.51 9065.11 1593.72 9065.16C1592.94 9065.21 1592.68 9066.08 1593.14 9067.1C1593.61 9068.12 1593.23 9069.87 1592.3 9071C1591.36 9072.13 1590.47 9073.98 1590.31 9075.12C1590.03 9077.11 1584.9 9092.16 1578.49 9109.81C1576.79 9114.49 1574.78 9118.82 1574.02 9119.43C1573.26 9120.03 1573.13 9120.51 1573.73 9120.49C1574.33 9120.46 1574.13 9121.89 1573.29 9123.65C1572.46 9125.42 1571.67 9127.5 1571.56 9128.27C1571.44 9129.04 1564.61 9148.36 1556.38 9171.2C1548.15 9194.03 1541.45 9213.33 1541.5 9214.08C1541.54 9214.83 1541.06 9215.48 1540.43 9215.52C1539.79 9215.56 1539.3 9216.37 1539.34 9217.32C1539.38 9218.27 1535.26 9230.86 1530.18 9245.29C1525.1 9259.72 1519.46 9275.8 1517.65 9281.02C1512.99 9294.45 1511.86 9296.57 1509.89 9295.63C1508.59 9295 1508.58 9295.2 1509.86 9296.41C1511.14 9297.64 1509.71 9303 1503.84 9318.84C1499.61 9330.29 1493.41 9347.31 1490.08 9356.67C1486.76 9366.04 1483.48 9374.11 1482.8 9374.62C1482.13 9375.13 1481.76 9375.78 1481.98 9376.06C1482.81 9377.09 1475.7 9397.1 1474.49 9397.18C1473.8 9397.22 1473.68 9397.88 1474.22 9398.64C1474.76 9399.41 1474.67 9400.82 1474.01 9401.78C1471.4 9405.6 1465.4 9425.55 1465.65 9429.59C1465.96 9434.51 1470.61 9442.91 1474.6 9445.73C1480.64 9450.01 1496.75 9449.33 1502.4 9444.57C1506.44 9441.16 1506.89 9440.03 1525.67 9385C1532.33 9365.51 1538.14 9349.23 1538.59 9348.83C1539.03 9348.42 1539.52 9347.14 1539.66 9345.98C1539.96 9343.73 1548.01 9320.26 1561.94 9281.1C1566.74 9267.62 1570.62 9255.98 1570.58 9255.24C1570.53 9254.5 1571.01 9253.87 1571.65 9253.83C1572.29 9253.79 1572.77 9252.98 1572.73 9252.03C1572.61 9249.24 1583.94 9217.79 1585.5 9216.57C1586.29 9215.96 1586.51 9215.48 1585.99 9215.5C1585.01 9215.54 1592.01 9193.71 1595.31 9186.47C1596.38 9184.11 1597.33 9181.53 1597.43 9180.72C1597.52 9179.92 1598.69 9176.41 1600.03 9172.93C1601.37 9169.45 1606.57 9155.11 1611.6 9141.06C1616.62 9127.02 1622.08 9112.17 1623.71 9108.07L1626.69 9100.62L1631.15 9102.57C1634.85 9104.19 1638.24 9104.2 1650.94 9102.62C1675.19 9099.6 1681.93 9098.7 1697.4 9096.41C1713.97 9093.95 1713.3 9094.05 1724.37 9092.58C1728.94 9091.98 1733.59 9091.1 1734.71 9090.63C1738.93 9088.87 1783.83 9083.05 1785.36 9084.07C1786.23 9084.65 1787.27 9084.76 1787.66 9084.32C1788.06 9083.88 1789.82 9085.28 1791.58 9087.44C1793.92 9090.32 1794.32 9091.58 1793.07 9092.18C1791.91 9092.73 1791.89 9092.99 1792.99 9092.99C1794.22 9093 1796.21 9117.88 1801.01 9192.85C1807.29 9291.09 1808.4 9301.65 1812.41 9301.41C1813.06 9301.37 1813.2 9302.08 1812.71 9302.99C1812.21 9303.91 1812.4 9304.24 1813.12 9303.73C1813.84 9303.22 1816.23 9303.6 1818.43 9304.57C1828.09 9308.83 1839.83 9303.77 1844.12 9293.51C1846.22 9288.47 1846.01 9282.29 1840.43 9189.69C1835.22 9102.97 1834.76 9091.27 1836.62 9091.57C1837.79 9091.75 1838.26 9091.48 1837.67 9090.96C1837.08 9090.45 1838.04 9088.1 1839.79 9085.75C1841.54 9083.4 1842.93 9080.85 1842.88 9080.08C1842.83 9079.2 1845 9078.92 1848.77 9079.33C1852.05 9079.69 1857.07 9079.75 1859.93 9079.47C1862.78 9079.19 1870.95 9079.26 1878.08 9079.63C1885.2 9080 1891.97 9080.25 1893.12 9080.18C1894.26 9080.11 1906.2 9080.24 1919.65 9080.47C1933.09 9080.7 1955.39 9080.9 1969.21 9080.92C1983.02 9080.94 1995.28 9081.24 1996.46 9081.59C2001.26 9083.01 2003.77 9082.76 2006.71 9080.58C2009.19 9078.73 2010.09 9078.61 2011.25 9079.95C2013.7 9082.82 2026.15 9106.92 2026.51 9109.51C2026.7 9110.86 2027.28 9111.94 2027.81 9111.91C2028.77 9111.85 2032.7 9119.4 2033.06 9121.99C2033.16 9122.75 2034.08 9124.14 2035.1 9125.09C2036.72 9126.6 2037.35 9128.61 2037.13 9131.65C2037.1 9132.13 2037.7 9132.88 2038.46 9133.3C2039.23 9133.72 2042.9 9140.12 2046.61 9147.52C2050.33 9154.92 2054.67 9163.39 2056.26 9166.35C2061.4 9175.91 2099.34 9251.05 2099.74 9252.46C2099.95 9253.21 2100.88 9255.02 2101.81 9256.49C2103.8 9259.62 2137.97 9326.99 2149.74 9350.98C2154.19 9360.04 2157.26 9367.84 2156.57 9368.33C2155.89 9368.81 2155.42 9369.94 2155.54 9370.85C2155.69 9372.03 2155.92 9371.99 2156.34 9370.71C2157.37 9367.65 2158.85 9368.65 2161.09 9373.89C2162.28 9376.68 2166.03 9383.96 2169.41 9390.06C2172.8 9396.17 2175.18 9401.91 2174.69 9402.81C2174.11 9403.88 2174.56 9404.1 2176 9403.45C2177.2 9402.91 2179.99 9403.2 2182.2 9404.11C2188.78 9406.83 2195.47 9406.26 2202.4 9402.37C2205.91 9400.41 2209.74 9396.92 2210.92 9394.63C2212.1 9392.33 2213.46 9390.43 2213.96 9390.4C2214.45 9390.37 2214.55 9387.71 2214.18 9384.49C2213.41 9377.81 2210.91 9372.4 2184.59 9320.63C2174.09 9299.98 2165.25 9282.17 2164.93 9281.04C2164.61 9279.92 2163.98 9278.71 2163.53 9278.35C2162.67 9277.67 2152.51 9258.01 2114.86 9184.24C2102.22 9159.45 2091.7 9138.56 2091.5 9137.81C2091.3 9137.06 2090.23 9135.03 2089.13 9133.29C2088.03 9131.56 2083.7 9123.4 2079.52 9115.16C2075.35 9106.92 2061.88 9080.5 2049.59 9056.46C2037.31 9032.42 2027 9011.82 2026.67 9010.7C2026.35 9009.57 2025.67 9008.37 2025.17 9008.02C2024.29 9007.41 2017.25 8993.56 1999.2 8956.9C1994.64 8947.64 1990.06 8938.71 1989.03 8937.06C1988 8935.41 1987.64 8934.01 1988.24 8933.97C1988.84 8933.92 1988.63 8933.46 1987.78 8932.95C1986.93 8932.45 1980.28 8920.22 1973 8905.79C1965.72 8891.36 1951.56 8863.56 1941.54 8844.01C1931.52 8824.46 1922.91 8807.51 1922.4 8806.34C1921.9 8805.18 1914.03 8790.01 1904.93 8772.64C1895.82 8755.27 1885.19 8734.69 1881.31 8726.92C1863.61 8691.53 1856.31 8678.31 1853.82 8677.18C1852.35 8676.51 1851.11 8675.33 1851.06 8674.55C1851.01 8673.77 1851.72 8673.53 1852.64 8674.02C1853.61 8674.54 1853.89 8674.33 1853.32 8673.51C1852.77 8672.75 1853.12 8669.84 1854.09 8667.05C1856.36 8660.55 1855.8 8651.73 1852.76 8646.28C1848.65 8638.87 1844.13 8637.63 1824.48 8638.48C1814.75 8638.91 1807.03 8639.8 1807.08 8640.49C1807.15 8641.67 1782.77 8642.58 1749.31 8642.65C1736.2 8642.67 1735.08 8642.89 1730.7 8646.26ZM1803.75 8648.74C1842.2 8646.17 1842.31 8646.17 1844.38 8649.12C1848.38 8654.82 1847.67 8670.98 1843.51 8668.77C1842.56 8668.26 1842.26 8668.46 1842.8 8669.22C1844.43 8671.52 1838.33 8676.48 1829.1 8680.37C1821.07 8683.76 1817.79 8684.26 1793.03 8685.83C1773.32 8687.09 1765.2 8687.13 1763.62 8685.98C1762.41 8685.11 1761.11 8684.75 1760.73 8685.18C1759.82 8686.21 1747 8683.83 1746.92 8682.62C1746.89 8682.11 1745.49 8681.68 1743.82 8681.66C1742.14 8681.64 1738.73 8679.83 1736.24 8677.64C1732.19 8674.08 1731.66 8672.79 1731.19 8665.32C1730.74 8658.07 1731.1 8656.59 1733.98 8654.03C1736.97 8651.36 1738.58 8651.1 1751.24 8651.21C1758.92 8651.27 1782.55 8650.16 1803.75 8648.74ZM1748.52 8692.25C1754.14 8693.62 1759.12 8695.59 1759.59 8696.61C1760.06 8697.63 1759.42 8700.84 1758.16 8703.73C1756.91 8706.63 1754.13 8714.1 1751.99 8720.33C1749.86 8726.57 1747.46 8732.17 1746.67 8732.78C1745.88 8733.39 1745.7 8733.87 1746.26 8733.85C1747.18 8733.81 1744.4 8744.07 1741.48 8751.51C1740.86 8753.07 1738.94 8758.49 1737.21 8763.56C1729.66 8785.6 1709.17 8844.22 1671.53 8951.45C1665.51 8968.61 1660.02 8983.06 1659.33 8983.57C1658.65 8984.08 1658.15 8985.05 1658.22 8985.72C1658.49 8988.16 1657.15 8993.26 1656.23 8993.32C1655.71 8993.35 1655.27 8994.47 1655.24 8995.81C1655.21 8997.15 1653.08 9003.99 1650.51 9011.02C1647.94 9018.04 1640.83 9037.84 1634.72 9055C1628.62 9072.17 1623 9086.71 1622.24 9087.32C1621.48 9087.92 1621.36 9088.4 1621.98 9088.37C1622.6 9088.35 1622.31 9090.09 1621.33 9092.25C1620.36 9094.41 1616.49 9105.1 1612.74 9116.02C1608.98 9126.93 1602.05 9146.4 1597.32 9159.29C1589.53 9180.56 1569.67 9236.99 1566 9248.28C1565.18 9250.81 1564.09 9252.91 1563.58 9252.94C1563.07 9252.97 1562.64 9254.09 1562.61 9255.43C1562.58 9256.76 1560.44 9263.61 1557.86 9270.63C1555.27 9277.66 1550.31 9291.7 1546.83 9301.84C1543.36 9311.97 1539.9 9320.76 1539.16 9321.37C1538.41 9321.97 1538.22 9322.45 1538.74 9322.43C1539.94 9322.39 1520.37 9380.21 1518.59 9381.97C1518.17 9382.38 1517.71 9383.66 1517.56 9384.81C1516.99 9389.06 1505.03 9422.38 1503.69 9423.45C1502.93 9424.06 1502.79 9424.53 1503.38 9424.51C1504.96 9424.44 1500.19 9434.76 1497.34 9437.57C1493.33 9441.54 1489.4 9442.28 1483.15 9440.22C1477.57 9438.39 1472.86 9433.36 1472.59 9428.94C1472.41 9426.15 1509.52 9323.69 1511.16 9322.44C1511.96 9321.83 1512.21 9321.35 1511.71 9321.37C1510.85 9321.4 1520.96 9291.67 1523.95 9285.39C1524.74 9283.72 1525.47 9281.72 1525.56 9280.95C1525.65 9280.18 1531.72 9262.64 1539.05 9241.97C1546.38 9221.29 1553.84 9200.23 1555.64 9195.16C1557.44 9190.09 1561.85 9177.57 1565.45 9167.34C1569.05 9157.12 1572.73 9147.21 1573.62 9145.34C1574.51 9143.46 1576.11 9139.06 1577.17 9135.56C1578.23 9132.06 1581.5 9122.49 1584.44 9114.3C1587.38 9106.1 1594.77 9085.35 1600.88 9068.19C1606.98 9051.03 1612.29 9036.65 1612.67 9036.25C1613.06 9035.84 1613.44 9034.88 1613.53 9034.11C1613.62 9033.34 1619.79 9015.48 1627.26 8994.42C1634.72 8973.35 1645.48 8942.72 1651.17 8926.34C1665.5 8885.07 1667.51 8879.7 1669.09 8878.43C1669.85 8877.83 1670.03 8877.35 1669.5 8877.37C1668.58 8877.4 1676.54 8853.08 1679.46 8846.9C1680.21 8845.33 1680.91 8843.13 1681.03 8842.01C1681.27 8839.62 1685.17 8828.83 1686.18 8827.76C1686.56 8827.35 1687.01 8825.78 1687.18 8824.26C1687.35 8822.74 1688.47 8819.23 1689.66 8816.47C1690.86 8813.71 1693.3 8806.99 1695.09 8801.54C1696.87 8796.09 1698.69 8791.29 1699.12 8790.89C1699.56 8790.48 1700.04 8789.2 1700.19 8788.04C1700.56 8785.26 1724.31 8718.08 1725.27 8717.13C1725.67 8716.72 1726.12 8715.44 1726.25 8714.29C1726.89 8708.92 1735.32 8688.73 1736.72 8689.21C1737.59 8689.51 1742.9 8690.88 1748.52 8692.25ZM1849.9 8683.42C1852.77 8686.51 1867.52 8715.65 1866.85 8716.9C1866.48 8717.58 1866.79 8718.11 1867.53 8718.06C1868.61 8717.99 1874.45 8728.65 1874.88 8731.48C1874.94 8731.86 1875.93 8733.64 1877.09 8735.44C1879.66 8739.45 1888.57 8756.54 1908.32 8795.32C1916.61 8811.6 1924.34 8826.73 1925.5 8828.95C1932.21 8841.74 1937.32 8852.06 1937.83 8853.85C1938.16 8854.98 1938.78 8856.19 1939.21 8856.54C1941.68 8858.57 1954.78 8886.45 1954.24 8888.54C1953.71 8890.64 1953.82 8890.69 1954.97 8888.87C1956.16 8886.99 1956.37 8887.03 1956.52 8889.12C1956.61 8890.45 1956.66 8891.94 1956.63 8892.43C1956.59 8892.91 1957.18 8893.66 1957.93 8894.08C1959.63 8895.03 2016.37 9006.61 2017.51 9011.23C2017.78 9012.34 2018.87 9014.07 2019.94 9015.08C2021.01 9016.08 2021.6 9017.78 2021.27 9018.84C2020.93 9019.91 2021.18 9020.75 2021.83 9020.71C2022.95 9020.64 2028.85 9031.18 2030.09 9035.46C2030.41 9036.59 2031.04 9037.8 2031.48 9038.15C2032.67 9039.12 2043.25 9060.1 2043.35 9061.7C2043.4 9062.46 2043.83 9063.37 2044.31 9063.72C2044.79 9064.07 2053.08 9079.79 2062.74 9098.66C2072.4 9117.52 2086.04 9144.15 2093.04 9157.83C2102.41 9176.12 2105.42 9183.2 2104.42 9184.56C2103.39 9185.97 2103.6 9186.17 2105.29 9185.4C2106.53 9184.84 2107.56 9185.07 2107.61 9185.94C2107.66 9186.79 2109.09 9190.04 2110.77 9193.17C2125.03 9219.64 2137.5 9245.74 2137.16 9248.41C2136.86 9250.79 2136.99 9250.96 2137.69 9249.11C2138.36 9247.34 2143.94 9257.14 2157.63 9284.18C2168.08 9304.82 2176.39 9322.24 2176.08 9322.9C2175.78 9323.55 2175 9323.95 2174.36 9323.78C2173.72 9323.61 2173.61 9324.06 2174.12 9324.78C2174.63 9325.49 2175.79 9325.75 2176.7 9325.34C2178.26 9324.64 2202.75 9371.09 2205.6 9380.16C2207.42 9385.95 2205.93 9390.39 2201 9393.86C2194.52 9398.42 2186.41 9398.61 2181.52 9394.31C2179.39 9392.44 2177.96 9390.35 2178.33 9389.65C2178.71 9388.96 2178.31 9388.44 2177.46 9388.49C2176.6 9388.54 2176.22 9387.99 2176.61 9387.27C2177 9386.55 2176.79 9385.78 2176.14 9385.57C2174.78 9385.11 2162.97 9361.63 2164.07 9361.57C2164.48 9361.54 2163.77 9360.6 2162.49 9359.48C2161.21 9358.36 2160.04 9356.56 2159.87 9355.48C2159.41 9352.39 2159.12 9351.65 2157.2 9348.67C2155.81 9346.53 2155.76 9345.46 2156.96 9344.1C2158.19 9342.71 2158.06 9342.53 2156.41 9343.27C2154.74 9344.03 2152.52 9340.65 2146.13 9327.69C2141.64 9318.59 2132.6 9300.55 2126.03 9287.6C2119.46 9274.66 2113.83 9263.14 2113.51 9262.02C2113.19 9260.89 2112.57 9259.68 2112.13 9259.33C2111.69 9258.97 2109.07 9254.14 2106.3 9248.59C2103.54 9243.03 2093.36 9223.06 2083.69 9204.2C2074.02 9185.33 2065.9 9168.98 2065.65 9167.85C2065.4 9166.72 2064.82 9165.51 2064.36 9165.15C2063.34 9164.36 2038.96 9117.13 2038.44 9114.94C2038.24 9114.07 2037.19 9111.99 2036.13 9110.31C2031.92 9103.7 2020.33 9079.23 2021.04 9078.44C2021.45 9077.98 2021.06 9077.64 2020.16 9077.7C2019.27 9077.75 2018.51 9077.2 2018.46 9076.47C2018.41 9075.75 2014.9 9068.63 2010.65 9060.65C1993.89 9029.23 1991.34 9023.91 1992.19 9022.19C1992.68 9021.21 1992.59 9020.91 1991.98 9021.53C1991.08 9022.45 1977.65 8998.21 1976.56 8993.67C1976.38 8992.92 1975.85 8992.02 1975.38 8991.67C1974.91 8991.31 1969.46 8981.04 1963.28 8968.83C1955.13 8952.71 1952.41 8946.12 1953.38 8944.78C1954.36 8943.42 1954.21 8943.16 1952.8 8943.8C1951.4 8944.43 1948.42 8939.81 1941.86 8926.82C1936.9 8917 1928.18 8899.89 1922.49 8888.79C1916.8 8877.7 1911.9 8867.7 1911.6 8866.57C1911.3 8865.44 1910.63 8864.24 1910.11 8863.89C1909.26 8863.31 1904.22 8853.56 1891.26 8827.45C1888.83 8822.56 1885.62 8816.53 1884.13 8814.05C1882.63 8811.56 1876.92 8800.43 1871.43 8789.3C1865.95 8778.18 1858.21 8762.72 1854.23 8754.95C1850.26 8747.19 1846.75 8739.91 1846.44 8738.78C1846.13 8737.66 1845.44 8736.45 1844.92 8736.1C1844.4 8735.75 1839.92 8727.6 1834.98 8717.99C1830.04 8708.37 1825.01 8699.18 1823.81 8697.57C1822.61 8695.95 1821.59 8694.08 1821.54 8693.4C1821.47 8692.2 1838.89 8685.65 1840.97 8686.1C1841.55 8686.23 1841.99 8685.68 1841.94 8684.87C1841.89 8684.07 1842.5 8683.75 1843.29 8684.18C1844.09 8684.6 1844.69 8684.28 1844.64 8683.48C1844.52 8681.46 1848.05 8681.42 1849.9 8683.42ZM1809.75 8696.18C1810.41 8697.62 1827.18 8970.6 1830.74 9037.88C1831.23 9047.2 1831.05 9048 1828.69 9047.1C1824.61 9045.54 1804.14 9046.6 1802.13 9048.48C1800.64 9049.87 1799.84 9040.32 1797.24 8990.08C1795.54 8957.04 1791.33 8883.19 1787.89 8825.96C1784.46 8768.74 1782.09 8722.16 1782.64 8722.45C1783.18 8722.74 1783.07 8716.79 1782.4 8709.24L1781.18 8695.5L1795.02 8694.89C1805.53 8694.42 1809.08 8694.73 1809.75 8696.18ZM1773.06 8699C1773.11 8699.8 1772.5 8700.12 1771.71 8699.69C1770.91 8699.27 1770.33 8699.93 1770.4 8701.16C1770.48 8702.39 1771.14 8702.97 1771.88 8702.46C1772.71 8701.87 1773.44 8704.56 1773.79 8709.54C1776.47 8746.66 1789.91 8993.9 1789.31 8995.02C1789.04 8995.53 1789.63 9009.45 1790.61 9025.95L1792.41 9055.97L1787.57 9055.7C1784.92 9055.56 1782.77 9055.81 1782.8 9056.26C1782.83 9056.89 1731.07 9064.55 1719.2 9065.67C1718.06 9065.78 1704.06 9067.9 1688.1 9070.38C1644.24 9077.19 1634.43 9078.26 1635.17 9076.14C1635.5 9075.16 1638.52 9066.43 1641.86 9056.75C1645.21 9047.06 1648.58 9037.8 1649.35 9036.17C1650.13 9034.54 1650.84 9032.55 1650.92 9031.75C1651.16 9029.62 1656.46 9014.93 1657.31 9014.07C1657.7 9013.66 1658.15 9012.38 1658.3 9011.23C1658.65 9008.59 1676.55 8958.32 1677.51 8957.32C1677.89 8956.92 1678.34 8955.64 1678.5 8954.49C1678.78 8952.46 1683.52 8938.57 1690.67 8918.82C1692.56 8913.61 1694.06 8908.81 1694.02 8908.14C1693.98 8907.47 1694.64 8906.13 1695.5 8905.17C1696.35 8904.21 1697.12 8902.63 1697.21 8901.66C1697.31 8900.7 1698.87 8896.07 1700.7 8891.38C1702.53 8886.69 1704.14 8882.05 1704.28 8881.07C1704.42 8880.09 1707.05 8872.13 1710.11 8863.37C1713.17 8854.61 1719.03 8837.87 1723.12 8826.17C1735.43 8791.01 1748.4 8753.64 1755.69 8732.36C1764.53 8706.53 1768.35 8697.82 1770.91 8697.66C1772.04 8697.59 1773.01 8698.19 1773.06 8699ZM1821.75 8709.99C1821.39 8710.66 1821.64 8711.18 1822.31 8711.14C1823.46 8711.07 1829.75 8722.85 1830.92 8727.26C1831.21 8728.38 1831.82 8729.59 1832.26 8729.95C1833.37 8730.84 1844.65 8753 1845.27 8755.51C1845.55 8756.63 1846.18 8757.84 1846.68 8758.19C1847.18 8758.54 1852.4 8768.21 1858.28 8779.68C1864.16 8791.14 1871.31 8805.06 1874.18 8810.61C1908.96 8878 1914.85 8890.19 1914.18 8893.34C1913.68 8895.69 1913.82 8895.85 1914.88 8894.12C1915.61 8892.93 1916.24 8892.29 1916.28 8892.69C1916.32 8893.1 1921.03 8902.49 1926.75 8913.55C1932.48 8924.62 1937.32 8934.75 1937.52 8936.08C1937.72 8937.4 1938.28 8938.46 1938.76 8938.43C1939.24 8938.4 1942.74 8944.58 1946.54 8952.17C1950.34 8959.76 1955.03 8968.99 1956.97 8972.68C1963.67 8985.46 1965.34 8989.29 1964.58 8990.14C1964.17 8990.61 1964.51 8990.95 1965.34 8990.9C1966.71 8990.81 1971.37 9000.17 1970.63 9001.51C1970.46 9001.82 1970.96 9002.42 1971.73 9002.83C1973.93 9004.03 1978.36 9013.81 1977.46 9015.49C1977.01 9016.31 1977.28 9016.55 1978.05 9016C1979.2 9015.2 1980.58 9017.54 1982.28 9023.15C1982.39 9023.53 1983.31 9025.1 1984.31 9026.66C1985.31 9028.21 1985.74 9029.92 1985.27 9030.45C1984.8 9030.98 1984.31 9032.81 1984.18 9034.52C1983.99 9036.88 1984.22 9037.12 1985.11 9035.53C1985.76 9034.38 1985.95 9032.96 1985.54 9032.38C1985.12 9031.8 1985.4 9031.28 1986.15 9031.24C1987.59 9031.15 1994.15 9044.63 1994.37 9048.12C1994.44 9049.24 1995.12 9050.11 1995.88 9050.06C1996.65 9050.01 1997.33 9050.91 1997.4 9052.05C1997.57 9054.75 1995.48 9054.85 1951.7 9054.24C1932 9053.96 1901.44 9053.64 1883.78 9053.52C1866.12 9053.4 1849.04 9053.14 1845.83 9052.95L1839.98 9052.6L1829.07 8878.18C1819.65 8727.65 1818.45 8704.11 1820.29 8706.26C1821.46 8707.64 1822.12 8709.32 1821.75 8709.99ZM1807.35 8710.1C1807.51 8711.7 1807.86 8712.01 1808.24 8710.88C1808.58 8709.86 1808.45 8708.67 1807.96 8708.24C1807.47 8707.81 1807.2 8708.64 1807.35 8710.1ZM1812.35 8790.26C1812.52 8791.86 1812.87 8792.17 1813.24 8791.04C1813.58 8790.02 1813.46 8788.83 1812.97 8788.4C1812.48 8787.97 1812.2 8788.8 1812.35 8790.26ZM1816.28 8840.08C1815.8 8840.62 1815.53 8842.35 1815.68 8843.93C1815.92 8846.57 1816.04 8846.53 1817.07 8843.41C1818.22 8839.95 1817.84 8838.32 1816.28 8840.08ZM1819.44 8894.46C1819.96 8895.19 1820.66 8895.77 1821 8895.75C1821.34 8895.73 1821.57 8895.09 1821.52 8894.33C1821.48 8893.57 1820.78 8892.99 1819.97 8893.04C1819.16 8893.09 1818.92 8893.72 1819.44 8894.46ZM1797.24 8960.75C1796.9 8961.38 1797.24 8962.76 1797.99 8963.81C1799.01 8965.26 1799.24 8964.97 1798.92 8962.65C1798.46 8959.31 1798.18 8959 1797.24 8960.75ZM1823.83 8987.14C1824.35 8987.87 1825.05 8988.45 1825.39 8988.43C1825.72 8988.41 1825.96 8987.77 1825.91 8987.01C1825.87 8986.25 1825.16 8985.67 1824.35 8985.72C1823.55 8985.77 1823.31 8986.41 1823.83 8987.14ZM1825.43 8998.14C1825.55 9000.04 1825.92 9000.8 1826.24 8999.83C1826.57 8998.85 1826.47 8997.3 1826.03 8996.37C1825.58 8995.45 1825.31 8996.24 1825.43 8998.14ZM1828.92 9058.4C1834.13 9062.52 1834.89 9063.83 1835.22 9069.15C1835.43 9072.48 1835.05 9075.25 1834.37 9075.29C1833.69 9075.33 1833.28 9076.4 1833.47 9077.67C1834.1 9082 1825.61 9086.93 1816.56 9087.49C1806.41 9088.11 1801.08 9085.89 1797.56 9079.57C1794.33 9073.76 1794.74 9067.26 1798.7 9061.56C1802.11 9056.65 1805.1 9055.35 1815.04 9054.44C1822.4 9053.76 1823.45 9054.06 1828.92 9058.4ZM1783.4 9065.9C1783.44 9066.64 1784.39 9066.83 1785.51 9066.32C1787.16 9065.57 1787.43 9066.28 1786.94 9070.09C1786.61 9072.67 1786.27 9074.91 1786.18 9075.06C1786.09 9075.21 1779.52 9076.1 1771.58 9077.04C1763.64 9077.98 1755.87 9079.09 1754.32 9079.51C1752.77 9079.92 1747.15 9080.87 1741.82 9081.61C1736.5 9082.36 1714.72 9085.57 1693.43 9088.75C1672.15 9091.93 1652.19 9094.69 1649.09 9094.87C1645.99 9095.06 1642.87 9095.36 1642.16 9095.55C1638.63 9096.46 1635.91 9095.58 1634.32 9093.02C1632.91 9090.76 1632.98 9089.71 1634.66 9087.82C1636.44 9085.82 1637.23 9085.71 1639.78 9087.08C1641.44 9087.97 1642.38 9088.11 1641.86 9087.39C1641.34 9086.66 1643.21 9085.6 1646.1 9084.98C1655.89 9082.89 1738.93 9070.71 1764.67 9067.59C1772.28 9066.66 1778.76 9065.66 1779.06 9065.35C1780.18 9064.21 1783.32 9064.61 1783.4 9065.9ZM1830.08 9063.47C1830.68 9064.8 1831.51 9065.52 1831.91 9065.07C1832.31 9064.62 1831.82 9063.53 1830.81 9062.65C1829.35 9061.38 1829.2 9061.55 1830.08 9063.47ZM1882.87 9061.3C1893.62 9061.44 1913.73 9061.75 1927.56 9061.99C1941.39 9062.22 1956.92 9062.12 1962.08 9061.77C1967.24 9061.42 1971.49 9061.63 1971.53 9062.24C1971.57 9062.85 1975.82 9063.13 1980.99 9062.87C1995.13 9062.14 2001.05 9062.86 2003.32 9065.58C2006.11 9068.92 2006 9069.88 2002.58 9071.98C2000.36 9073.35 1993.98 9073.73 1975.83 9073.59C1962.72 9073.48 1951.03 9073.1 1949.86 9072.73C1948.68 9072.36 1946.17 9072.27 1944.26 9072.52C1942.36 9072.78 1933.57 9072.78 1924.73 9072.52C1915.89 9072.27 1903.75 9072.09 1897.76 9072.13C1891.77 9072.16 1883.91 9071.91 1880.29 9071.56C1876.67 9071.21 1873.09 9071.14 1872.34 9071.4C1871.59 9071.67 1864.85 9071.83 1857.36 9071.76L1843.75 9071.63L1843.52 9067.87C1843.39 9065.8 1843.67 9063.66 1844.15 9063.12C1845.41 9061.71 1860.44 9061 1882.87 9061.3ZM1996.87 9065.81C1996.88 9066.1 1997.89 9066.66 1999.11 9067.04C2000.37 9067.43 2000.92 9067.17 2000.38 9066.42C1999.48 9065.15 1996.8 9064.69 1996.87 9065.81ZM1818.34 9095.68L1826.97 9095.17L1833.01 9190.55C1839.48 9292.92 1839.48 9291.79 1832.71 9295.95C1829.33 9298.03 1821.63 9298.47 1821.51 9296.6C1821.46 9295.8 1820.89 9295.51 1820.23 9295.97C1819.58 9296.43 1817.98 9295.4 1816.68 9293.67C1814.61 9290.92 1813.66 9280.28 1809.14 9209.47C1806.3 9164.89 1803.93 9120.9 1803.87 9111.71C1803.79 9095.63 1803.89 9095.02 1806.74 9095.6C1808.37 9095.93 1813.59 9095.96 1818.34 9095.68ZM2046.39 9155.16C2046.91 9155.89 2047.61 9156.47 2047.95 9156.45C2048.29 9156.43 2048.52 9155.79 2048.48 9155.03C2048.43 9154.27 2047.73 9153.69 2046.92 9153.74C2046.11 9153.79 2045.87 9154.43 2046.39 9155.16ZM1528.28 9237.08C1526.08 9238.19 1526.01 9238.43 1527.93 9238.39C1529.23 9238.36 1530.64 9237.7 1531.06 9236.91C1531.95 9235.26 1531.9 9235.26 1528.28 9237.08Z" fill="#FF9238"/>
</g>
<g id="Drone_SVG">
<path id="Vector_2" fill-rule="evenodd" clip-rule="evenodd" d="M4153.32 713.494C4127.75 716.177 4035.11 727.584 3977.36 735.162C3871.4 749.067 3815.02 758.879 3803.24 765.472C3800.61 766.944 3795.18 765.63 3784.97 761.05C3756.44 748.246 3734.26 750.591 3704.92 769.512C3696.4 775.003 3687.27 779.503 3684.63 779.51C3681.98 779.519 3661.42 784.078 3638.92 789.642C3616.43 795.206 3582.6 802.962 3563.75 806.879C3544.9 810.796 3510.45 818.005 3487.2 822.902C3463.94 827.8 3433.09 833.972 3418.64 836.623C3377.47 844.168 3335.66 854.716 3327.67 859.575C3320.14 864.156 3318.21 870.87 3323.24 875.009C3333.5 883.45 3383.69 884.152 3440.35 876.645C3506.33 867.906 3654.63 838.686 3677.89 829.845C3681.26 828.563 3686.93 827.514 3690.5 827.514H3696.98L3691.27 838.969C3682.86 855.857 3684.16 878.336 3694.19 889.421C3697.08 892.616 3696.87 894.453 3692.52 904.279C3689.57 910.922 3687.12 922.09 3686.5 931.676C3685.5 947.158 3685.73 948.074 3691.71 952.779C3700.65 959.818 3710.29 962.084 3747.7 965.951C3765.93 967.836 3790.09 971.314 3801.4 973.679C3821.37 977.857 3829.56 977.007 3823.89 971.342C3820.92 968.369 3768.86 958.627 3745.42 956.655C3723.66 954.822 3706.86 951.294 3700.29 947.174C3696.1 944.553 3695.16 941.936 3695.25 933.15C3695.3 927.208 3697.1 917.206 3699.24 910.922L3703.14 899.496L3739.71 899.439C3766.14 899.398 3781.65 898.235 3795.69 895.244C3814.87 891.156 3815.44 891.167 3841.39 896.055C3855.85 898.779 3896.47 907.616 3931.66 915.691C3966.85 923.767 3998 930.913 4000.88 931.569C4003.76 932.227 4005.58 933.623 4004.94 934.669C4003.42 937.117 3944.52 968.958 3885.96 998.987C3860.82 1011.88 3831.51 1027.06 3820.83 1032.73C3803.95 1041.69 3798.86 1043.26 3781.98 1044.74C3771.3 1045.68 3748.16 1048.1 3730.56 1050.12C3712.97 1052.14 3685.2 1054.8 3668.87 1056.02C3652.53 1057.24 3636.07 1058.77 3632.3 1059.41C3621.79 1061.19 3521.16 1067.06 3471.2 1068.81C3421.35 1070.56 3408.37 1068.92 3392.91 1058.96C3378.11 1049.42 3349.03 1028.06 3348.25 1026.15C3345.15 1018.55 3332.33 1002.68 3327.11 999.979C3321.08 996.86 3320.66 995.727 3320.66 982.278C3320.66 940.657 3281.68 884.41 3234.91 858.546C3221.33 851.042 3203.36 848.311 3197.79 852.909C3185.34 863.192 3181.28 894.741 3188.73 923.417C3195.93 951.118 3207.27 970.823 3227.97 991.581C3238.37 1002.01 3247.99 1013.71 3249.33 1017.57C3251.61 1024.11 3251.17 1025.21 3243.08 1033.06C3230.23 1045.52 3224.37 1065.84 3222.38 1104.78C3220.98 1132.15 3220.25 1136.11 3216 1139.82C3210.04 1145.03 3206.12 1156.6 3206.12 1169.04C3206.12 1181.8 3216.39 1197.68 3230.79 1207.21C3241.65 1214.39 3242.15 1215.23 3248.34 1236.44C3251.84 1248.44 3260.1 1274.72 3266.69 1294.83C3273.28 1314.94 3285.49 1352.52 3293.83 1378.34C3310.57 1430.19 3320.5 1452.99 3332.06 1466.16C3345.4 1481.35 3365.36 1485.86 3374.79 1475.82C3384.95 1465 3384.46 1461.05 3362.73 1379.38C3357.04 1358.01 3347.27 1320.48 3341.03 1295.97C3334.78 1271.46 3327.69 1244.38 3325.27 1235.78L3320.88 1220.15L3328.05 1217.66C3332 1216.29 3344.21 1210.68 3355.18 1205.19C3371.16 1197.2 3376.01 1195.69 3379.56 1197.58C3382 1198.89 3389.68 1201.44 3396.63 1203.25C3414.44 1207.89 3423.83 1205.03 3429.34 1193.3L3433.49 1184.45L3454.06 1182.91C3514.32 1178.4 3636.65 1165.99 3670.01 1161C3678.18 1159.78 3689.67 1158.15 3695.55 1157.38L3706.23 1155.98L3708.77 1165.99C3713.33 1184 3717.85 1194.1 3726.56 1205.71C3742.9 1227.48 3766.36 1233.36 3790.23 1221.68L3802.74 1215.56L3826.07 1220.2C3838.9 1222.75 3860.7 1226.55 3874.53 1228.65C3913.51 1234.58 3910.75 1231.53 3901 1257.84C3893.55 1277.97 3891.06 1281.96 3876.7 1296.83C3847.87 1326.66 3833.77 1362.4 3833.53 1406.2C3833.38 1433.75 3831.21 1437.48 3822.29 1425.56C3808.95 1407.75 3803.7 1387.59 3805.28 1360.27C3806.17 1344.9 3807.75 1338.98 3814.72 1324.88C3829.65 1294.68 3858.15 1273.12 3883.13 1273.12C3894.18 1273.12 3889.06 1267.48 3877.32 1266.71C3862.13 1265.72 3844.41 1274.77 3827.4 1292.21C3804.5 1315.69 3793.5 1346.98 3796.4 1380.33C3799 1410.14 3813.42 1437.89 3828.31 1441.75C3834.79 1443.42 3835.79 1444.95 3839.18 1458.33C3846.34 1486.67 3856.26 1500.5 3868.8 1499.64C3883.08 1498.65 3886.37 1499.04 3901.95 1503.59C3924.04 1510.03 4007.98 1520.56 4021.56 1518.58C4041.45 1515.69 4073.59 1500.52 4098.35 1482.35C4111.69 1472.56 4118.76 1471.01 4130.17 1475.36C4138.88 1478.69 4141.66 1478.84 4149.13 1476.39C4167.87 1470.25 4181.03 1455.29 4191.99 1427.7C4204.96 1395.05 4204.93 1351.36 4191.9 1316.76C4184.76 1297.79 4182.22 1295.14 4166.43 1290.17C4141.71 1282.39 4118.87 1285.93 4083.65 1302.99C4076.05 1306.67 4067.35 1309.68 4064.31 1309.68C4060.71 1309.68 4058.26 1311.35 4057.27 1314.48C4054.27 1323.94 4059.74 1323.44 4086.02 1311.86C4117.86 1297.82 4135.58 1293.4 4150.48 1295.79C4164.18 1297.99 4166 1299.78 4157.64 1302.8C4132.17 1312.01 4122.13 1318 4106.85 1333.08C4086.73 1352.93 4072.17 1383.88 4068.8 1413.98C4066.8 1431.9 4071.96 1453.33 4081.61 1467.18L4088.65 1477.28L4083.28 1481.35C4070.25 1491.23 4039.38 1506.75 4030.48 1507.88L4020.78 1509.12L4025.78 1503.66C4034.38 1494.27 4044.79 1468.75 4049.88 1444.57C4054.33 1423.46 4054.52 1419.53 4051.98 1401.92C4048.69 1379.18 4043.25 1363.61 4032.2 1345.26C4027.81 1337.96 4024.21 1331.73 4024.21 1331.42C4024.21 1331.11 4030.86 1326.96 4038.99 1322.2C4062.17 1308.65 4069.57 1294.54 4069.81 1263.46C4069.92 1248.68 4067.19 1249.65 4093.9 1254.95C4148.81 1265.86 4166.98 1263.6 4175.93 1244.74C4186.53 1222.41 4170.11 1195.42 4145.93 1195.42C4122.63 1195.42 4109.56 1224.62 4124.99 1242.19C4132.81 1251.1 4132.04 1251.53 4114.21 1248.16C4108.07 1247 4070.65 1241.38 4031.06 1235.68C3979.68 1228.28 3952.21 1225.36 3935.09 1225.48C3911.12 1225.65 3870.78 1220.46 3826.33 1211.47C3797.77 1205.7 3797.59 1205.7 3787.48 1212.56C3777.69 1219.2 3760.57 1220.32 3750.27 1215C3736.06 1207.65 3722.83 1186.93 3716.67 1162.38C3715.26 1156.75 3715.55 1156.58 3726.53 1156.58C3737.62 1156.58 3737.89 1156.74 3740.41 1165.17C3744.41 1178.51 3756.17 1193.14 3762.9 1193.14C3777.37 1193.14 3784.84 1179.36 3778.59 1164.2C3776.6 1159.38 3773.21 1154.05 3771.05 1152.36C3767.58 1149.63 3767.92 1149.43 3773.98 1150.6C3777.75 1151.33 3797.81 1154.05 3818.54 1156.64C3839.28 1159.23 3873.22 1163.78 3893.95 1166.75C3914.69 1169.71 3940.91 1173.3 3952.22 1174.72C3976.15 1177.72 4042.1 1187.75 4058.95 1190.94C4084.97 1195.88 4095.1 1194.21 4120.84 1180.77C4133.88 1173.97 4149.16 1167.71 4154.8 1166.86C4175.47 1163.76 4196.86 1175.09 4211.08 1196.64C4226.88 1220.61 4229.28 1222.85 4239.26 1222.85C4244.32 1222.85 4250.7 1221.67 4253.44 1220.23C4263.25 1215.09 4287 1194.97 4287 1191.8C4287 1186.47 4282.76 1188.05 4269.12 1198.46C4247.89 1214.65 4242.44 1217.24 4235.88 1214.26C4232.74 1212.82 4225.96 1204.49 4220.59 1195.46C4209.29 1176.43 4199.18 1167.41 4181.88 1160.89C4162.26 1153.5 4149.87 1155.53 4119.33 1171.14C4090.94 1185.65 4087.58 1186.16 4055.93 1180.68C4034.28 1176.93 3944.16 1164.17 3879.1 1155.63C3855.22 1152.5 3818.74 1147.71 3798.04 1144.99C3766.67 1140.86 3757.92 1140.45 3745.48 1142.53C3723.19 1146.26 3711.14 1147.21 3711.14 1145.24C3711.14 1144.28 3730.86 1123.21 3754.97 1098.42L3798.79 1053.35L3850.37 1027.34C3907.92 998.32 3941.78 980.528 3975.73 961.467C3988.32 954.406 3999.56 948.627 4000.72 948.627C4001.87 948.627 4007.02 945.033 4012.15 940.641C4017.28 936.246 4031.09 928.698 4042.84 923.868C4088.57 905.058 4101.31 899.928 4187.6 865.582L4276.72 830.108L4301.85 832.164C4333.9 834.783 4346.53 836.136 4363.55 838.764C4371.09 839.929 4388.06 842.527 4401.26 844.541C4414.45 846.552 4426.79 848.649 4428.68 849.2C4434.73 850.971 4504.57 859.193 4524.66 860.5C4544.62 861.8 4558.8 858.939 4560.66 853.236C4561.37 851.06 4557.66 850.717 4544.84 851.773C4526.14 853.311 4494.16 849.84 4416.11 837.799C4388.46 833.535 4354.53 828.871 4340.7 827.436C4326.88 825.999 4308.88 824.123 4300.71 823.264L4285.86 821.7L4297.28 814.895L4308.71 808.09L4352.13 808.172C4387.82 808.239 4400.22 809.176 4421.82 813.449C4436.28 816.305 4450.67 819.13 4453.82 819.726C4466.13 822.057 4501.58 829.84 4518.94 834.024C4529 836.447 4545.32 839.74 4555.22 841.341C4568.33 843.464 4574.82 845.74 4579.12 849.732C4584.07 854.314 4584.49 855.578 4581.7 857.447C4576.24 861.097 4560.13 869.36 4559.44 868.857C4557.81 867.655 4490.19 901.855 4462.81 917.73C4418.14 943.634 4337.04 999.883 4309.28 1024.22C4298.28 1033.86 4296.14 1036.96 4296.14 1043.25C4296.14 1050.46 4307.47 1069.74 4311.7 1069.74C4312.71 1069.74 4319.32 1075.53 4326.39 1082.61C4343.96 1100.18 4344.58 1104.98 4333.84 1140.29C4329.25 1155.39 4324.71 1173.45 4323.77 1180.44C4322.82 1187.42 4321.61 1193.47 4321.09 1193.88C4320.56 1194.29 4313.45 1198 4305.28 1202.12C4286.16 1211.76 4283.37 1214.6 4277.97 1229.99C4273.29 1243.29 4273.09 1244.89 4267.46 1315.39C4261.79 1386.36 4259.95 1392.62 4242.32 1400.9C4229.74 1406.82 4221.66 1406.91 4212.35 1401.23C4206.06 1397.4 4204.93 1397.27 4203.77 1400.3C4203.04 1402.22 4203.08 1404.83 4203.86 1406.1C4206.25 1409.96 4220.09 1414.8 4228.73 1414.8C4237.75 1414.8 4255.32 1406.62 4264.15 1398.31C4287.63 1376.21 4428.17 1277.69 4436.22 1277.69C4438.02 1277.69 4442.25 1279.86 4445.63 1282.52C4452.84 1288.19 4454.76 1287.31 4451.85 1279.67C4449.26 1272.86 4444.41 1270.41 4418.4 1262.79C4392.34 1255.15 4352.86 1235.99 4343.13 1226.26C4333.29 1216.43 4330.01 1203.19 4332.64 1183.95C4335.72 1161.4 4351.62 1106.34 4355.06 1106.32C4356.68 1106.31 4366.2 1110.96 4376.23 1116.65C4386.26 1122.34 4399.34 1129.67 4405.29 1132.95C4411.24 1136.22 4422.28 1142.29 4429.82 1146.45C4437.36 1150.6 4451.25 1158.24 4460.67 1163.43C4526.61 1199.73 4593.12 1228.78 4634.34 1239.29C4641.18 1241.04 4643.1 1242.21 4640.06 1242.79C4596.18 1251.2 4473.91 1282.47 4449.71 1291.48C4418.84 1302.97 4401.26 1316.72 4401.26 1329.37C4401.26 1335.84 4402.53 1337.32 4412.11 1342.04C4422.21 1347.02 4425.66 1347.38 4461.81 1347.35C4484.65 1347.32 4516.69 1345.51 4539.55 1342.94L4578.44 1338.58L4634.38 1367.27C4665.15 1383.04 4703.74 1402.72 4720.13 1410.98C4745.98 1424.01 4750.46 1427.1 4753.86 1434.23C4759.52 1446.1 4777.18 1464.12 4788.54 1469.62L4798.33 1474.36L4792.83 1492C4777 1542.74 4740.7 1682.12 4738.16 1701.9C4735.9 1719.54 4740.02 1729.59 4751.71 1734.89C4763.66 1740.32 4772.38 1740.33 4784.29 1734.92C4795.47 1729.84 4802.97 1720.56 4812.15 1700.44C4825.29 1671.65 4838.59 1634.95 4881.14 1510.08L4894.23 1471.68L4908.01 1465.16C4937.09 1451.4 4950.22 1431.85 4950.18 1402.36C4950.16 1386.18 4945.53 1369.65 4938.82 1361.8C4935.9 1358.38 4936.26 1356.41 4941.97 1344.74C4947.38 1333.7 4948.58 1327.95 4949.32 1309.49C4950.24 1286.49 4947.14 1265.53 4941.92 1259.5C4940.24 1257.56 4938.35 1251.87 4937.72 1246.84L4936.57 1237.7L4972.81 1238.43C5020.05 1239.38 5097.31 1231.81 5165.95 1219.51C5224.74 1208.98 5277.91 1196.01 5294.18 1188.23C5302.29 1184.36 5303.89 1182.5 5303.89 1177C5303.89 1171.91 5302.19 1169.48 5296.47 1166.35C5290.02 1162.83 5282.99 1162.31 5243.34 1162.44C5218.2 1162.53 5178.1 1164.33 5154.22 1166.45C5130.34 1168.57 5096.92 1171.3 5079.95 1172.51C5044.32 1175.05 4981.73 1182.47 4963.41 1186.32C4931.67 1193 4907.96 1202.56 4896.52 1213.28C4890.67 1218.77 4888.86 1219.16 4872.13 1218.59C4862.19 1218.25 4843.96 1219.02 4831.61 1220.3C4819.26 1221.58 4793.22 1223.75 4773.74 1225.13C4731.9 1228.09 4680.06 1233.6 4668.18 1236.35C4657.49 1238.82 4618.42 1227.82 4578.68 1211.14C4550.91 1199.49 4475.73 1162.6 4460.93 1153.37C4456.39 1150.54 4443.42 1143.28 4432.11 1137.23C4406.71 1123.66 4395.6 1117.4 4374.45 1104.76C4365.36 1099.32 4356.62 1094.85 4355.02 1094.83C4351.49 1094.77 4306.3 1051.69 4304.74 1046.89C4302.72 1040.73 4307.26 1035.92 4335.6 1014.16C4396.59 967.333 4467.52 922.766 4524.4 895.529C4579.95 868.93 4591.32 863.702 4591.94 864.476C4595.08 868.357 4602.83 911.503 4608.08 954.365L4609.49 965.818L4593.87 981.904C4584.99 991.053 4573.37 1000.35 4566.92 1003.48C4551.77 1010.81 4523.48 1012.26 4495.63 1007.15C4477.32 1003.78 4474.24 1003.76 4463.64 1006.91C4444.22 1012.67 4421.8 1032.22 4406.11 1057.05C4392.89 1077.98 4396.92 1084.54 4433.4 1101.41C4465.91 1116.43 4502.57 1122.22 4524.08 1115.72L4531.51 1113.48L4531.57 1121.89C4531.71 1144.51 4542.49 1161.25 4560 1166.05C4570.57 1168.95 4607.9 1167.81 4721.18 1161.16C4762.03 1158.76 4813.96 1156.19 4836.58 1155.43C4859.2 1154.68 4883.37 1153.43 4890.28 1152.65C4897.19 1151.87 4966.61 1151.05 5044.53 1150.84C5199.23 1150.42 5198.66 1150.47 5216.26 1137.04C5228.17 1127.96 5231.58 1117.97 5230.11 1096.42C5228.67 1075.25 5227.61 1075.33 5254.38 1094.61C5290.6 1120.71 5333.63 1142.04 5362.09 1148.01C5372.75 1150.25 5375.78 1150.07 5382.6 1146.82C5398.47 1139.25 5395.88 1128.64 5369.67 1093.73C5332.82 1044.67 5300.07 1016.19 5244.59 984.922C5216.67 969.189 5210.37 964.701 5209.38 959.802C5206.25 944.475 5183.93 929.272 5160.65 926.623C5148.17 925.202 5145.75 923.822 5121.08 904.067C5075.03 867.189 5036.77 843.439 4967.98 809.02C4932.03 791.036 4910.42 783.52 4901.13 785.769C4888.32 788.87 4882.45 800.981 4888.31 812.24C4899.84 834.415 4928.96 855.832 5028.53 915.385C5109.36 963.723 5103.62 959.601 5099.28 966.23C5091.58 977.978 5084.67 1001.37 5082.43 1023.2C5079.93 1047.67 5078.79 1049.57 5064.06 1053.87C5041.4 1060.47 5001.26 1061.48 4888.85 1058.28C4827.42 1056.52 4748.55 1055.39 4713.58 1055.75L4650 1056.41L4641.24 1050.62C4635.86 1047.06 4631.55 1041.92 4630.06 1037.29C4627.29 1028.66 4621.86 994.047 4617.14 954.847C4613.08 921.171 4607.6 888.964 4603.6 875.29C4597.04 852.895 4585.94 838.014 4573.99 835.587C4571.36 835.055 4558.14 832.491 4544.6 829.891C4531.07 827.29 4501.76 821.163 4479.48 816.276C4412.61 801.609 4393.02 799.013 4349.84 799.096C4306.39 799.178 4299.47 800.757 4280.01 815.046C4269.87 822.489 4214.88 845.816 4125.9 880.418C4109.56 886.773 4084.36 896.884 4069.91 902.892C4036.16 916.916 4010.55 926.077 4008.54 924.839C4007.09 923.943 3976.69 916.685 3924.8 904.85C3913.49 902.271 3886.02 896.366 3863.76 891.727C3841.5 887.088 3822.66 882.664 3821.89 881.896C3821.12 881.126 3822.26 877.077 3824.42 872.897C3830.24 861.638 3829.8 838.366 3823.5 824.287L3818.47 813.065L3823.46 808.419C3827.3 804.841 3832.17 803.609 3844.63 803.067C3931.47 799.295 4030.61 783.589 4114.47 760.321C4181.12 741.827 4209.22 731.103 4213.89 722.367C4216 718.43 4215.44 717.427 4209.97 715.26C4200.98 711.702 4177.42 710.969 4153.32 713.494ZM4202.45 721.012C4202.45 723.491 4151.53 741.361 4121.33 749.48C4022.06 776.171 3950.14 788.058 3848.82 794.521C3832.74 795.547 3825.4 795.245 3825.4 793.563C3825.4 792.213 3822.31 787.597 3818.54 783.303C3807.94 771.221 3808.11 770.979 3831.11 766.05C3869.02 757.926 4018.78 737.678 4152.18 722.637C4170.58 720.562 4202.45 719.531 4202.45 721.012ZM3781.19 769.11C3788.29 772.362 3793.61 775.513 3793.01 776.114C3792.41 776.715 3783.77 780.165 3773.81 783.778C3754.6 790.75 3699.4 812.455 3691.72 816.058C3689.2 817.238 3671.72 821.897 3652.87 826.41C3538.74 853.736 3448.74 869.373 3387.73 872.474C3360.72 873.848 3334.09 872.134 3334.09 869.022C3334.09 864.166 3368.85 855.361 3457.49 837.761C3487.65 831.773 3555.87 817.724 3590.03 810.469C3599.45 808.467 3628.63 801.657 3654.87 795.339C3695.35 785.588 3703.91 782.78 3711.36 776.788C3731.56 760.557 3756.51 757.812 3781.19 769.11ZM3809.08 787.569C3821.69 800.869 3808.24 811.045 3763.7 821.897C3726.91 830.859 3698.83 830.101 3710.15 820.448C3713.03 817.989 3796.91 783.184 3802.55 782.108C3803.18 781.989 3806.11 784.446 3809.08 787.569ZM4926.86 799.135C4955.2 810.652 5022.41 846.353 5057.1 868.318C5078.78 882.049 5129.83 922.666 5131.96 927.88C5132.28 928.68 5129.2 931.299 5125.1 933.698C5121.01 936.098 5114.92 940.965 5111.57 944.516L5105.48 950.969L5094.43 944.297C5088.35 940.627 5070.52 929.944 5054.81 920.556C4952.01 859.138 4929.44 844.189 4907.99 823.309C4894.79 810.458 4892.84 805.828 4897.22 797.656C4900.47 791.578 4909.35 792.019 4926.86 799.135ZM3815.5 829.228C3817.8 835.199 3819.69 845.9 3819.69 853.009C3819.69 864.054 3818.65 867.219 3812.6 874.718C3802.69 887.013 3791.53 889.593 3746.46 890.013C3703.24 890.417 3699.69 889.165 3695.37 872.01C3692.61 861.06 3693.17 856.887 3699.09 844.081L3702.52 836.655H3720.64C3740.98 836.655 3766.69 831.965 3788.84 824.214C3810.24 816.723 3810.71 816.81 3815.5 829.228ZM3225.42 864.019C3263.86 881.533 3305.12 932.487 3310.77 969.434C3313.9 989.913 3312.5 991.526 3292.59 990.318C3279.77 989.541 3272.62 990.382 3262.24 993.894L3248.66 998.487L3239.29 990.807C3226.2 980.08 3217.08 968.147 3207.85 949.653C3198.52 930.963 3197.23 926.219 3194.64 901.162C3192.6 881.496 3194.35 871.295 3201.09 863.505C3205.6 858.286 3213.19 858.446 3225.42 864.019ZM5177.75 940.83C5190.02 946.943 5198.78 955.739 5198.78 961.95C5198.78 963.91 5196.01 968.401 5192.64 971.924C5188.14 976.62 5184.32 978.325 5178.35 978.3C5165.12 978.245 5141.15 971.716 5131.98 965.672C5127.3 962.583 5122.54 960.053 5121.41 960.053C5120.28 960.053 5118.21 958.67 5116.81 956.979C5114.83 954.596 5116.05 952.267 5122.27 946.609C5132.67 937.149 5137.79 935.236 5153.2 935.06C5162.48 934.955 5169.07 936.505 5177.75 940.83ZM5116.66 968.229C5123.84 976.876 5148.27 985.366 5173.64 988.019C5179 988.581 5178.8 988.951 5170.21 994.068C5156.98 1001.96 5145.07 1002.68 5128.42 996.606C5110.01 989.895 5106.47 985.864 5108.49 973.906C5110.18 963.874 5112 962.612 5116.66 968.229ZM5219.49 980.917C5237.78 989.698 5271.37 1010.23 5290.67 1024.43C5315.17 1042.45 5342.47 1070.79 5363.09 1099.62C5382.69 1127 5385.48 1133.1 5380.61 1137.97C5369.07 1149.51 5289.46 1113.07 5242.64 1074.8C5232.97 1066.9 5210.91 1049.07 5193.62 1035.19C5176.33 1021.31 5162.68 1009.14 5163.29 1008.14C5163.91 1007.15 5169.83 1003.68 5176.45 1000.44C5183.08 997.203 5192.56 990.388 5197.53 985.302C5202.5 980.213 5207.19 976.049 5207.95 976.049C5208.72 976.049 5213.91 978.238 5219.49 980.917ZM4611.52 983.476C4611.54 986.305 4613.88 1000.07 4616.71 1014.07L4621.87 1039.51L4603.35 1040.49C4582.26 1041.59 4570.08 1046.66 4555.88 1060.22C4546.5 1069.19 4537.63 1084.62 4535.08 1096.42C4533.07 1105.73 4525.26 1108.6 4502.04 1108.55C4479.04 1108.51 4459.56 1103.67 4434.47 1091.76C4410.03 1080.15 4406.33 1076.62 4410.05 1068.45C4415.75 1055.94 4431.92 1037.11 4445.35 1027.33C4466.03 1012.29 4472.52 1010.9 4498.29 1015.96C4524.57 1021.13 4552.55 1019.92 4568.63 1012.93C4574.99 1010.17 4585.4 1002.18 4593.77 993.649C4601.63 985.638 4608.83 978.915 4609.78 978.709C4610.72 978.503 4611.51 980.647 4611.52 983.476ZM5118.57 1002.31C5122.85 1004.46 5132.62 1008.29 5140.28 1010.81C5154.73 1015.55 5167.15 1024.32 5199.7 1052.78C5220.79 1071.22 5222.99 1075.33 5211.97 1075.71C5207.86 1075.85 5194.21 1076.75 5181.64 1077.71C5152.54 1079.93 5129.22 1076.52 5110.17 1067.24C5089.03 1056.94 5088.09 1054.76 5091.49 1023.56C5093.03 1009.37 5095.22 995.286 5096.34 992.262L5098.39 986.769L5104.59 992.573C5108.01 995.768 5114.3 1000.15 5118.57 1002.31ZM3317.86 1006.99C3330.53 1013.89 3336.91 1023.17 3331.34 1026.61C3322.51 1032.07 3281.67 1031.85 3269.69 1026.29C3266.32 1024.73 3262.27 1020.34 3260.7 1016.55C3258.03 1010.1 3258.29 1009.28 3264.55 1004.12C3270.6 999.136 3272.92 998.686 3288.47 999.488C3302.06 1000.19 3308.27 1001.77 3317.86 1006.99ZM3367.42 1052.79C3391.92 1071.01 3397.32 1076.1 3399.5 1083.07C3400.94 1087.68 3404.77 1098.32 3408.01 1106.71C3417.27 1130.68 3425.5 1162.19 3425.5 1173.69C3425.5 1181.94 3424.23 1185.47 3419.61 1190.09C3414.58 1195.12 3412.33 1195.79 3404.18 1194.7C3398.94 1194 3385.19 1188.53 3373.63 1182.56C3347.85 1169.25 3322.71 1146.98 3307.11 1123.67C3295.51 1106.31 3276.23 1068.49 3268.16 1047.25L3263.53 1035.04L3268.73 1036.34C3289.36 1041.52 3331.44 1039.32 3335.43 1032.85C3336.1 1031.77 3336.94 1030.89 3337.31 1030.89C3337.67 1030.89 3351.22 1040.75 3367.42 1052.79ZM3265.47 1063C3290.22 1123.58 3307.5 1148.14 3346.66 1178.37C3352.94 1183.23 3359.03 1187.99 3360.18 1188.95C3361.33 1189.91 3353.58 1194.87 3342.97 1199.96C3304.64 1218.35 3260.74 1216.9 3230.86 1196.27C3220.78 1189.31 3215.26 1178.62 3215.26 1166.05C3215.26 1156.97 3219.11 1145.15 3222.06 1145.15C3222.88 1145.15 3225.2 1148.59 3227.2 1152.79C3236.96 1173.26 3271.57 1175.03 3300.65 1156.55C3310.77 1150.12 3311.41 1149.21 3307.74 1146.52C3304.28 1144 3301.54 1144.68 3289.02 1151.21C3276.86 1157.55 3271.85 1158.86 3259.78 1158.86C3247.68 1158.86 3244.14 1157.93 3238.81 1153.35L3232.4 1147.83V1111.64C3232.4 1079.97 3233.05 1073.58 3237.57 1060.49C3243.36 1043.75 3248.76 1034.82 3252.38 1036.03C3253.7 1036.47 3259.6 1048.61 3265.47 1063ZM3911.78 1047.37C3895.89 1060.51 3891.85 1064.9 3891.74 1069.17C3891.57 1075.79 3901.63 1071.1 3915.58 1058.05L3930.52 1044.08V1060.06C3930.52 1077.73 3933.46 1082.64 3942.68 1080.33C3945.8 1079.55 3949.89 1080.37 3952.43 1082.29C3958.23 1086.68 3968.22 1086.59 3975.11 1082.08C3980.48 1078.56 3980.92 1078.69 3986.66 1085.51C3991.54 1091.31 3994.31 1092.59 4002 1092.59C4010.33 1092.59 4012.42 1091.39 4020.65 1081.9C4039.03 1060.7 4051.9 1048.89 4055.77 1049.69C4061.04 1050.78 4059.99 1067.14 4053.69 1082.01C4045.83 1100.59 4051.43 1108.59 4072.31 1108.59C4081.26 1108.59 4104.19 1096.95 4104.19 1092.4C4104.19 1089.16 4101.2 1089.84 4087.11 1096.29C4076.56 1101.11 4072.65 1101.87 4066.85 1100.21C4051.9 1095.92 4056.56 1087.17 4083.21 1069.57C4102.87 1056.59 4107.81 1054.69 4112.3 1058.41C4115.06 1060.7 4115.61 1060.11 4115.61 1054.87C4115.61 1048.78 4115.29 1048.62 4105.5 1049.72C4099.84 1050.36 4090.26 1054.01 4083.76 1058.02C4077.36 1061.95 4071.11 1065.17 4069.88 1065.17C4068.64 1065.17 4067.62 1061.12 4067.62 1056.16C4067.62 1046.79 4061.81 1040.03 4053.75 1040.03C4047.45 1040.03 4031.8 1052.94 4021.99 1066.22C4016.85 1073.17 4010.04 1080.57 4006.85 1082.66C4001.26 1086.32 4000.82 1086.24 3995.16 1080.58C3989.34 1074.75 3989.32 1074.61 3993.03 1065.32C4000.32 1047.09 3996.87 1035.46 3984.14 1035.46C3975.04 1035.46 3961.97 1045.91 3950.84 1062.09C3941.76 1075.29 3936.7 1073.62 3938.76 1058.09C3940.34 1046.17 3935.93 1035.46 3929.44 1035.46C3927.65 1035.46 3919.7 1040.82 3911.78 1047.37ZM3986.75 1047.85C3988.52 1052.47 3983.84 1060.55 3974.39 1069.17C3957.2 1084.85 3951.32 1073.33 3967.27 1055.21C3976.58 1044.64 3984.38 1041.69 3986.75 1047.85ZM4632.95 1056.6L4644.52 1064.03L4734.84 1064.5C4784.51 1064.76 4863.47 1065.79 4910.3 1066.78C5005.67 1068.81 5049.15 1067.38 5067.6 1061.58L5079.94 1057.69L5089.21 1064.29C5103.4 1074.39 5109.7 1077.7 5123.37 1082.22C5140.05 1087.74 5178.09 1089.47 5200.08 1085.71C5217.9 1082.66 5220.27 1082.99 5218.21 1088.27C5215.85 1094.29 5200.58 1102.08 5184.62 1105.41C5163.17 1109.88 5142.95 1107.92 5094.8 1096.71L5055.96 1087.66L4914.28 1085.48C4836.35 1084.28 4732.49 1083.61 4683.47 1083.98C4605.37 1084.58 4593.33 1085.15 4586.06 1088.55C4575.27 1093.59 4566.42 1104.29 4564.21 1114.94C4561.6 1127.59 4562.22 1147.07 4565.34 1150.18C4569.51 1154.36 4568.63 1156.58 4562.79 1156.58C4557.4 1156.58 4547.83 1147.99 4543.22 1139.02C4541.81 1136.27 4540.65 1128.14 4540.65 1120.94C4540.65 1079.88 4569.63 1049.49 4609.01 1049.25C4619.14 1049.19 4623.47 1050.52 4632.95 1056.6ZM3784.27 1054.99C3784.27 1055.67 3766.01 1074.77 3743.71 1097.42C3721.4 1120.07 3702.23 1140.33 3701.1 1142.45C3699.97 1144.56 3698.86 1146.54 3698.63 1146.85C3695.97 1150.47 3531.96 1168.89 3458.06 1173.87C3435.19 1175.41 3434.64 1175.33 3434.64 1170.58C3434.64 1167.91 3434.63 1165.46 3434.63 1165.15C3434.54 1160.86 3421.41 1117.29 3415.27 1100.91C3410.84 1089.07 3407.21 1079.02 3407.22 1078.57C3407.22 1078.11 3428.04 1077.59 3453.49 1077.41C3499.21 1077.09 3539.7 1074.98 3626.59 1068.42C3682.48 1064.2 3769.1 1055.92 3770.36 1054.68C3771.79 1053.28 3784.27 1053.55 3784.27 1054.99ZM4157.89 1089.17C4150.35 1093.5 4141.35 1097.67 4137.89 1098.43C4131 1099.94 4129.18 1106.3 4135.63 1106.3C4140.9 1106.3 4173.33 1087.71 4174.5 1084.02C4175.89 1079.66 4172.81 1080.61 4157.89 1089.17ZM4983.97 1094.81C5041.8 1096.28 5061.27 1097.54 5071.95 1100.5C5102.22 1108.92 5111.74 1111.09 5133.58 1114.57C5147.99 1116.87 5161.3 1117.65 5169.77 1116.69C5187.6 1114.67 5211.73 1107.06 5216.99 1101.8C5221.12 1097.67 5221.27 1097.71 5222.68 1103.31C5224.63 1111.09 5217.5 1124.38 5207.86 1130.93C5190.35 1142.83 5181.8 1143.65 5093.67 1141.93C4994 1139.99 4883.21 1143.09 4731.46 1152.07C4668.62 1155.79 4609.82 1158.84 4600.8 1158.85C4585.83 1158.86 4583.99 1158.34 4579.7 1152.88C4569.37 1139.75 4569.37 1115.96 4579.72 1104.9C4591.13 1092.69 4587.15 1092.97 4754.31 1092.95C4839.78 1092.94 4943.13 1093.78 4983.97 1094.81ZM3765.98 1161.15C3770.84 1166 3772.34 1180.34 3768.25 1182.87C3761.86 1186.82 3749.99 1172.64 3749.99 1161.05C3749.99 1154.99 3759.89 1155.05 3765.98 1161.15ZM5291.27 1174.01C5297.95 1176.57 5294.64 1179.09 5277.04 1184.83C5221.66 1202.88 5123.59 1220.53 5039.96 1227.48C4993.62 1231.34 4926.32 1229.51 4913.67 1224.05C4904.46 1220.07 4904.14 1219.62 4907.7 1215.68C4916.32 1206.16 4966.13 1192.64 5011.39 1187.54C5042.1 1184.09 5101.38 1179.16 5164.5 1174.82C5182.72 1173.57 5202.78 1172.15 5209.06 1171.67C5224.09 1170.51 5286.81 1172.3 5291.27 1174.01ZM4160.06 1212.61C4170.09 1222.63 4171.92 1229.39 4167.1 1238.7C4162.29 1248 4154.06 1252.01 4148.67 1247.69C4127.57 1230.78 4124 1220.7 4135.37 1210.17C4143.73 1202.43 4150.56 1203.1 4160.06 1212.61ZM4324.25 1212.52C4327.21 1230.75 4344.41 1243.66 4391.4 1262.9C4404.99 1268.47 4417.4 1273.05 4418.97 1273.07C4423.88 1273.15 4422.09 1276.84 4415.73 1279.73C4406.71 1283.84 4366.77 1310.85 4319.51 1344.81C4261.54 1386.46 4267.6 1382.68 4269.49 1375.93C4270.36 1372.8 4273.19 1344.53 4275.78 1313.11C4281.53 1243.33 4284.41 1228.45 4293.75 1220.47C4300.03 1215.09 4318.29 1204.67 4321.55 1204.6C4322.33 1204.58 4323.54 1208.14 4324.25 1212.52ZM3293.2 1221.7H3312.86L3315.22 1231.99C3317.42 1241.61 3344.15 1345.34 3362.32 1414.8C3373.64 1458.07 3374.46 1465.27 3368.64 1470.54C3362.49 1476.1 3354.77 1474.08 3343.6 1463.99C3326.15 1448.23 3315.51 1420.5 3265.12 1259.41C3260.2 1243.7 3255.26 1227.96 3254.13 1224.44L3252.07 1218.03L3262.8 1219.87C3268.7 1220.88 3282.38 1221.7 3293.2 1221.7ZM4917.7 1234.4C4929.72 1238.57 4930.39 1240.22 4923.06 1247.55C4913.67 1256.94 4881.14 1262.84 4848.33 1261.09C4824.73 1259.84 4803.45 1255.76 4803.45 1252.48C4803.45 1251.49 4800.83 1250.96 4797.64 1251.31C4794.36 1251.67 4792.19 1250.9 4792.64 1249.54C4794.24 1244.76 4810.11 1238.64 4832.25 1234.29C4857.53 1229.32 4903.22 1229.38 4917.7 1234.4ZM4795.25 1235.23C4791.38 1236.92 4785.88 1241.25 4783.03 1244.86C4778.63 1250.44 4778 1253.51 4778.76 1265.61L4779.66 1279.81L4769.27 1284.24C4735.81 1298.49 4612.7 1325.17 4539.51 1334.03C4521.33 1336.22 4489.76 1337.97 4466.38 1338.07C4431.08 1338.22 4424.2 1337.67 4417.83 1334.19C4413.74 1331.96 4410.4 1329.32 4410.4 1328.33C4410.4 1324.62 4423.44 1314.5 4436.86 1307.8C4460.06 1296.22 4532.83 1275.62 4615.15 1257.33C4678.2 1243.32 4688.22 1241.52 4718.89 1238.68C4734.6 1237.22 4755.69 1235.27 4765.74 1234.34C4775.79 1233.41 4788.13 1232.53 4793.16 1232.4L4802.3 1232.16L4795.25 1235.23ZM3966.67 1236.81C3965.42 1237.58 3964.64 1238.61 3964.93 1239.1C3967.02 1242.58 3960.75 1250.72 3952.78 1254.87C3939.41 1261.84 3931.12 1268.55 3935.87 1268.55C3941.38 1268.55 3957.94 1261.5 3957.94 1259.16C3957.94 1258.04 3958.98 1257.12 3960.25 1257.12C3963.15 1257.12 3957.39 1271.32 3949.84 1282.78C3943.38 1292.58 3943.12 1293.69 3947.23 1293.69C3955.52 1293.69 3970.2 1269.16 3973.58 1249.65L3975.25 1239.98L3988.87 1240.29C3996.37 1240.46 4015.35 1242.56 4031.06 1244.96L4059.63 1249.32L4059.49 1266.36C4059.42 1275.73 4058.61 1286.33 4057.68 1289.91C4055.53 1298.26 4045.04 1307.89 4027.07 1318.02L4012.79 1326.07L3989.29 1322.38C3966.79 1318.85 3913.43 1305.93 3900.24 1300.81C3892.8 1297.92 3892.62 1296.66 3898.54 1289.12C3901.01 1285.97 3905.7 1274.66 3908.96 1263.98C3918.05 1234.24 3916.58 1235.41 3944.84 1235.41C3958.1 1235.41 3967.92 1236.04 3966.67 1236.81ZM4207.02 1243.55C4205.13 1244.73 4200.76 1246.7 4197.31 1247.93C4188.44 1251.07 4189.19 1255.05 4198.16 1252.47C4205.34 1250.41 4216.16 1244.25 4216.16 1242.22C4216.16 1240.44 4210.71 1241.23 4207.02 1243.55ZM4797.86 1263.88C4800.81 1266.83 4840.39 1273.1 4856 1273.09C4862.92 1273.09 4878.34 1271.55 4890.28 1269.66C4932.25 1263.04 4933.46 1262.98 4935.08 1267.2C4938.37 1275.76 4913.17 1285.95 4880.32 1289.35C4851.97 1292.29 4819.92 1288.24 4800.26 1279.23C4787.51 1273.4 4784.97 1269.66 4790.19 1264.44C4793.5 1261.12 4795 1261.01 4797.86 1263.88ZM3923.05 1271.12C3924.6 1272.68 3926.45 1273.38 3927.15 1272.68C3927.85 1271.97 3926.58 1270.7 3924.33 1269.84C3921.07 1268.6 3920.81 1268.86 3923.05 1271.12ZM4937.16 1331.62C4929.94 1356.44 4904.09 1372.67 4867.06 1375.63C4834.28 1378.25 4808.89 1372.96 4789.17 1359.4C4771.46 1347.22 4764.51 1314.52 4776.02 1297.54C4783.03 1287.2 4786.77 1285.84 4796.79 1289.98C4808.02 1294.62 4845.11 1300.54 4862.95 1300.54C4889.15 1300.54 4922.87 1292.32 4933.22 1283.4L4939.41 1278.07L4940.07 1298.7C4940.51 1312.44 4939.54 1323.43 4937.16 1331.62ZM4762.87 1316.18C4761.51 1340.01 4764.02 1349.44 4774.35 1359.41C4798.23 1382.43 4849.03 1392.11 4890.53 1381.54C4903.06 1378.35 4923.23 1368.52 4925.82 1364.34C4928.32 1360.28 4933.18 1362.3 4934.24 1367.85C4935.45 1374.17 4929.55 1380.74 4914.05 1390.34C4893.94 1402.79 4861.8 1406.67 4826.3 1400.94C4805.63 1397.6 4780.53 1385.13 4771.46 1373.68C4763.82 1364.03 4757.74 1361.78 4757.74 1368.59C4757.74 1382.67 4784.2 1400.83 4817.16 1409.34C4837.88 1414.7 4875.86 1414.71 4893.71 1409.36C4911.08 1404.16 4928.27 1394.9 4933.94 1387.69C4936.36 1384.62 4939.05 1382.83 4939.92 1383.7C4940.8 1384.57 4941.55 1392.7 4941.6 1401.76C4941.68 1415.59 4940.72 1419.87 4935.62 1428.51C4920.06 1454.82 4893.95 1466.68 4846.5 1469.02C4815.8 1470.52 4794.84 1465.1 4780.17 1451.85C4761.49 1434.97 4755.75 1420.96 4754.39 1388.88C4753.57 1369.42 4752.6 1365.24 4746.09 1353.02C4736.8 1335.58 4723.46 1320.32 4714.15 1316.46C4707.01 1313.51 4707.17 1313.42 4735.21 1304.95C4750.74 1300.26 4763.58 1296.32 4763.74 1296.2C4763.9 1296.07 4763.51 1305.06 4762.87 1316.18ZM3893.92 1307.38C3906.53 1313.81 3956.75 1326.95 3986.5 1331.6C4001.01 1333.87 4013.42 1337.06 4015.85 1339.15C4022.33 1344.72 4035.02 1367.64 4038.96 1380.91C4043.04 1394.63 4043.85 1430.76 4040.47 1448.05C4037.35 1464 4030.22 1481.32 4020.57 1496.41L4012.41 1509.16L3990.32 1507.8C3961.73 1506.05 3912.58 1498.26 3895.1 1492.71C3883.85 1489.14 3881.59 1487.6 3882.52 1484.14C3884.6 1476.42 3883.32 1455.02 3879.6 1435.17C3876.45 1418.44 3876.34 1413.69 3878.86 1402.84C3887.87 1364.09 3915.74 1347.26 3949.73 1360.04C3977.3 1370.42 3992 1394.45 3989.25 1424.7C3987.32 1446.06 3973.23 1460.5 3954.35 1460.5C3932.56 1460.5 3923.07 1441.57 3922.72 1397.39C3922.55 1376.19 3921.95 1372.05 3919.09 1372.44C3906.54 1374.14 3901.65 1419.86 3911.83 1440.33C3927.47 1471.77 3957.13 1480.35 3981.3 1460.42C3994.49 1449.56 3999.66 1435.64 3998.65 1413.79C3997.32 1385.33 3984.9 1365.68 3960.73 1353.81C3943.6 1345.4 3918.48 1344.76 3904.24 1352.38C3874.35 1368.36 3863.14 1402.21 3872.23 1449.02C3876.2 1469.43 3875.76 1481.17 3870.81 1487.14C3866.19 1492.7 3862.12 1490.37 3856.26 1478.8C3846.71 1459.96 3842.91 1439.64 3842.8 1406.8C3842.71 1380.07 3843.34 1375.26 3849.05 1358.81C3852.55 1348.76 3858.03 1336.03 3861.23 1330.53C3866.63 1321.28 3881.81 1302.83 3884.03 1302.83C3884.56 1302.83 3889.01 1304.88 3893.92 1307.38ZM4177.31 1310.82C4185.14 1310.82 4194.78 1357.59 4192.38 1383.94C4190.37 1406.06 4185.94 1421.46 4176.76 1438.22C4161.98 1465.22 4139.81 1475.1 4128.41 1459.76C4118.09 1445.88 4124.53 1395.26 4139.69 1371.26C4151.76 1352.12 4161.16 1344.52 4180.17 1338.51C4182.37 1337.82 4184.17 1336.19 4184.17 1334.89C4184.17 1331.98 4170.41 1331.8 4162.99 1334.62C4153.53 1338.21 4136.25 1357.65 4128.07 1373.89C4115.73 1398.38 4110.11 1441.22 4116.91 1458.93C4117.86 1461.4 4115.09 1463.35 4106.68 1466.15C4100.34 1468.25 4094.32 1469.46 4093.3 1468.83C4089.09 1466.23 4080.71 1445.54 4078.4 1432.02C4073.92 1405.89 4086.13 1369.85 4108.24 1343.89C4118.14 1332.27 4141.29 1317.26 4155.97 1312.94C4162.45 1311.04 4168.51 1307.72 4169.42 1305.58C4170.92 1302.08 4171.23 1302.15 4172.49 1306.25C4173.25 1308.77 4175.43 1310.82 4177.31 1310.82ZM4717.34 1330.82C4737.99 1351.19 4744.78 1366.2 4746.29 1394.79C4746.93 1407.06 4747.25 1417.09 4747 1417.09C4746.75 1417.08 4742.12 1414.15 4736.72 1410.57C4731.31 1406.98 4696.69 1388.73 4659.78 1370.01C4593.03 1336.14 4592.71 1335.95 4601.51 1334.14C4656.74 1322.73 4687.22 1317.04 4694.31 1316.81C4701.89 1316.57 4704.51 1318.16 4717.34 1330.82ZM3915.07 1410.8C3915.52 1415.51 3915.07 1419.37 3914.06 1419.37C3913.06 1419.37 3912.35 1413.97 3912.5 1407.37C3912.78 1394.91 3913.67 1396.1 3915.07 1410.8ZM4878.43 1493.07C4874.67 1503.44 4864.9 1531.46 4856.71 1555.34C4834.57 1619.94 4810.65 1683.63 4802.15 1700.64C4792.07 1720.81 4781.34 1730.15 4768.26 1730.15C4756.43 1730.15 4746.27 1721.77 4746.4 1712.13C4746.62 1695.42 4770.16 1601.13 4797.05 1509.24L4806.53 1476.86L4830.7 1478.02C4843.99 1478.66 4858.97 1478.17 4864 1476.93C4869.03 1475.69 4875.87 1474.57 4879.2 1474.44L4885.25 1474.21L4878.43 1493.07Z" fill="#FF9238"/>
</g>
<path id="Line" d="M458.107 9513.53C-350.87 9591.15 -503.92 7099.73 3723.17 4222.83C4194.46 3942.55 4854.28 3327.68 3723.17 3110.36C2309.28 2838.71 2664.39 1246.68 3211 1182M902.68 16218V11492.7C902.68 9178 6620.84 9145.29 452.558 9513.55" stroke="#FF9238" stroke-width="10"/>
</g>
<defs>
<clipPath id="clip0_2_30">
<rect width="1426" height="1418" fill="white" transform="translate(1087 8032)"/>
</clipPath>
</defs>
</svg>
